<?xml version="1.0" standalone="no"?>
<!DOCTYPE svg PUBLIC "-//W3C//DTD SVG 20010904//EN"
 "http://www.w3.org/TR/2001/REC-SVG-20010904/DTD/svg10.dtd">
<svg version="1.0" xmlns="http://www.w3.org/2000/svg"
 width="1500.000000pt" height="1500.000000pt" viewBox="0 0 1500.000000 1500.000000"
 preserveAspectRatio="xMidYMid meet">
<metadata>
Created by potrace 1.14, written by Peter Selinger 2001-2017
</metadata>
<g transform="translate(0.000000,1500.000000) scale(0.100000,-0.100000)"
fill="#000000" stroke="none">
<path d="M4848 12135 c-2 -2 -41 -5 -88 -9 -261 -21 -480 -81 -717 -197 -409
-202 -793 -595 -974 -999 -58 -130 -107 -273 -125 -363 -2 -10 -5 -26 -8 -35
-3 -9 -8 -39 -12 -67 -3 -27 -8 -53 -10 -56 -17 -29 -25 -455 -10 -551 l7 -46
102 -50 c56 -28 124 -67 151 -88 l49 -37 -6 39 c-3 21 -11 66 -16 99 -40 225
-34 473 15 709 51 243 199 535 375 738 230 264 475 436 774 543 424 152 960
126 1359 -65 296 -142 582 -403 767 -700 118 -190 185 -377 234 -650 4 -19 9
-120 11 -225 l5 -189 32 -27 c164 -135 176 -428 25 -580 -21 -21 -38 -41 -38
-44 0 -3 15 -21 34 -40 l35 -34 39 102 c104 266 142 478 143 787 2 398 -103
765 -307 1078 -229 351 -563 636 -935 798 -117 51 -282 102 -381 119 -18 3
-40 8 -48 10 -8 2 -37 7 -65 10 -27 3 -69 8 -91 11 -41 5 -321 13 -326 9z"/>
<path d="M7958 12135 c-2 -2 -27 -6 -56 -9 -192 -23 -396 -157 -521 -342 -176
-262 -167 -613 22 -870 88 -119 263 -238 412 -280 82 -22 270 -27 364 -9 95
19 193 56 262 100 30 19 57 35 60 35 6 0 22 -13 84 -68 17 -15 64 -56 105 -92
64 -56 120 -105 164 -145 6 -6 67 -60 136 -120 69 -60 142 -126 164 -146 l38
-36 -78 -114 c-119 -175 -171 -303 -198 -487 -23 -155 -6 -432 26 -432 6 0 19
7 28 15 9 8 59 37 111 64 l94 50 1 128 c2 182 34 302 116 439 196 327 480 495
838 496 293 1 551 -133 741 -385 116 -153 167 -305 173 -510 2 -59 5 -109 7
-110 2 -2 21 -13 41 -25 l37 -21 43 24 c24 13 66 31 95 40 l52 17 -4 107 c-2
58 -8 126 -14 151 -5 24 -9 45 -8 46 1 1 81 36 177 78 96 42 198 88 225 101
l50 24 28 -32 c211 -240 394 -348 652 -386 62 -9 268 -7 301 2 11 3 37 8 59
12 127 19 328 117 406 200 163 172 229 264 278 387 68 173 85 413 42 598 -58
251 -238 487 -476 624 -97 55 -169 81 -285 101 -84 15 -257 21 -310 11 -14 -3
-43 -7 -65 -11 -101 -15 -196 -49 -300 -109 -95 -55 -266 -225 -338 -336 -126
-197 -172 -429 -131 -666 29 -169 50 -142 -185 -245 -112 -49 -207 -89 -211
-89 -4 0 -26 33 -50 73 -186 315 -503 536 -845 590 -83 13 -299 16 -350 4 -11
-2 -42 -8 -70 -12 -68 -10 -238 -66 -312 -103 -33 -17 -90 -52 -128 -77 l-68
-47 -40 39 c-22 21 -46 43 -52 48 -38 32 -340 299 -345 305 -3 3 -48 43 -100
89 -52 46 -112 99 -132 117 l-37 34 29 59 c88 178 100 412 32 605 -88 245
-328 448 -582 491 -36 6 -198 14 -202 10z m162 -280 c54 -9 155 -54 190 -84
155 -135 212 -254 204 -426 -10 -206 -122 -365 -305 -431 -67 -24 -77 -26
-173 -29 -152 -5 -249 32 -358 137 -81 77 -120 150 -145 268 -9 44 -5 154 7
200 34 128 148 264 273 324 39 19 90 38 111 41 22 3 41 7 42 8 5 5 109 0 154
-8z m4629 -779 c143 -33 255 -111 374 -258 173 -216 190 -543 41 -790 -56 -93
-185 -217 -264 -256 -104 -51 -209 -74 -335 -75 -193 0 -336 56 -488 190 -161
142 -249 431 -201 658 33 157 134 312 275 420 100 78 178 109 319 128 53 7
218 -3 279 -17z"/>
<path d="M7935 11515 c-107 -37 -120 -182 -21 -241 42 -25 186 -26 232 -1 39
20 64 71 64 130 0 38 -6 52 -34 81 -18 20 -42 36 -52 37 -110 6 -157 4 -189
-6z"/>
<path d="M12485 10558 c-32 -17 -75 -70 -76 -92 -1 -12 -3 -30 -3 -41 -3 -44
45 -105 94 -120 37 -12 169 -7 198 7 87 42 95 178 15 233 -30 20 -47 23 -122
23 -48 0 -95 -5 -106 -10z"/>
<path d="M10555 11987 c-82 -22 -127 -48 -193 -113 -133 -132 -171 -317 -97
-469 28 -58 130 -165 190 -200 98 -58 226 -74 338 -41 83 24 184 106 242 196
80 126 75 323 -11 452 -47 69 -86 102 -172 144 -62 31 -85 36 -160 40 -52 2
-107 -2 -137 -9z m181 -273 c75 -36 106 -137 65 -211 -28 -47 -58 -70 -109
-81 -51 -12 -85 2 -146 60 -40 38 -46 50 -46 84 0 81 85 164 168 164 19 0 49
-7 68 -16z"/>
<path d="M8162 10022 c-24 -4 -92 -65 -92 -82 0 -6 19 -10 43 -11 23 0 51 -2
62 -3 80 -12 119 -20 178 -40 75 -25 82 -22 74 32 -13 79 -49 103 -159 106
-46 1 -93 1 -106 -2z"/>
<path d="M3935 9766 c-65 -30 -92 -69 -99 -140 -12 -119 79 -207 196 -192 46
6 65 16 101 53 68 72 55 203 -26 264 -37 27 -129 35 -172 15z"/>
<path d="M6425 9766 c-69 -30 -106 -96 -99 -175 7 -78 50 -132 120 -150 80
-21 158 6 197 69 32 51 31 152 -2 199 -44 61 -145 88 -216 57z"/>
<path d="M7968 9705 c-2 -1 -31 -6 -66 -9 -180 -19 -373 -115 -513 -257 -143
-143 -252 -358 -285 -559 -2 -14 -6 -34 -9 -45 -18 -81 -25 -320 -13 -425 4
-36 10 -85 12 -110 13 -110 79 -308 130 -389 14 -22 26 -44 26 -47 0 -17 88
-124 152 -186 173 -169 397 -252 658 -244 191 6 332 55 480 167 76 58 150 130
150 146 0 4 -32 42 -69 83 l-69 75 -54 -53 c-132 -129 -257 -182 -443 -187
-368 -10 -614 227 -691 668 -21 124 -21 396 1 477 2 8 6 32 10 54 3 21 16 72
30 113 112 332 357 510 685 496 125 -5 260 -64 365 -159 l45 -41 58 66 c93
107 89 94 40 142 -106 102 -273 190 -412 215 -35 6 -213 14 -218 9z"/>
<path d="M1849 9641 c0 -32 0 -2011 0 -2104 l1 -67 333 0 c364 1 481 13 628
65 73 25 183 81 229 117 106 82 214 218 270 342 32 70 75 209 85 273 3 21 8
50 11 63 4 14 8 113 9 220 3 160 0 215 -16 305 -49 270 -155 465 -332 608
-116 94 -277 160 -462 188 -38 6 -224 12 -412 13 l-343 2 -1 -25z m719 -205
c64 -11 188 -58 242 -91 223 -137 337 -396 338 -770 2 -422 -153 -715 -438
-831 -102 -41 -202 -56 -407 -58 l-193 -3 -1 36 c0 40 0 1698 1 1719 0 11 40
13 213 9 116 -3 227 -8 245 -11z"/>
<path d="M10043 9518 c-69 -18 -117 -101 -96 -164 10 -30 9 -29 108 -74 76
-34 126 -37 181 -12 83 38 83 201 1 240 -34 16 -149 22 -194 10z"/>
<path d="M5065 9111 c-189 -47 -338 -178 -403 -351 -26 -72 -33 -118 -33 -213
1 -93 14 -153 52 -230 32 -65 107 -165 139 -185 21 -13 20 -14 -30 -65 -107
-107 -136 -176 -128 -295 6 -82 31 -135 95 -196 l47 -46 -24 -17 c-62 -41
-152 -146 -182 -211 -27 -58 -31 -78 -31 -147 2 -207 132 -339 398 -405 162
-41 443 -34 604 14 276 82 462 271 475 484 13 204 -77 326 -284 385 -83 23
-161 29 -445 32 -143 2 -269 6 -280 8 -104 26 -155 84 -155 177 0 60 23 111
72 158 l34 32 39 -16 c143 -60 341 -48 500 31 177 87 283 256 291 467 5 131
-21 220 -92 321 -19 26 -34 48 -34 50 0 1 73 2 163 2 l162 0 3 98 3 97 -278 0
c-244 0 -287 3 -353 20 -94 25 -229 25 -325 1z m322 -205 c66 -33 131 -100
161 -164 30 -67 36 -98 35 -198 -1 -166 -73 -288 -213 -356 -37 -18 -62 -22
-140 -22 -108 0 -157 17 -233 84 -164 145 -162 472 4 610 52 43 87 59 158 75
70 15 166 3 228 -29z m-262 -1451 c55 -3 186 -7 290 -9 244 -5 305 -24 355
-109 19 -32 22 -48 18 -105 -3 -37 -13 -82 -22 -100 -45 -87 -171 -173 -306
-209 -86 -23 -320 -23 -401 0 -139 38 -234 112 -259 202 -27 96 17 223 104
302 44 39 53 44 85 38 20 -3 81 -8 136 -10z"/>
<path d="M9525 9120 c-22 -5 -56 -11 -75 -15 -91 -16 -390 -161 -390 -188 0
-5 21 -44 46 -87 l46 -77 112 58 c163 84 220 101 351 105 121 3 175 -9 232
-52 64 -48 117 -152 129 -249 3 -22 7 -54 9 -71 3 -18 -1 -36 -8 -41 -10 -8
-104 -24 -217 -38 -74 -9 -243 -50 -343 -84 -244 -83 -394 -222 -426 -395 -13
-71 -5 -192 17 -263 59 -188 242 -298 476 -288 101 4 171 22 261 67 66 34 190
111 212 134 8 8 23 19 34 24 15 9 19 7 20 -7 0 -27 7 -93 14 -140 l6 -43 105
0 c92 0 104 2 105 18 4 86 0 1052 -5 1102 -18 176 -83 327 -180 421 -49 47
-130 87 -214 105 -72 15 -251 17 -317 4z m461 -1026 c1 -207 -1 -227 -18 -250
-23 -29 -198 -146 -253 -169 -66 -27 -164 -42 -232 -34 -166 20 -249 112 -246
274 2 160 123 268 382 341 94 27 352 74 361 66 3 -2 5 -105 6 -228z"/>
<path d="M11355 9117 c-119 -40 -216 -119 -306 -250 -27 -39 -49 -66 -50 -61
-1 5 -2 20 -4 34 -1 14 -6 67 -10 118 -4 51 -8 100 -9 110 -3 15 -18 17 -109
20 l-107 3 0 -811 0 -810 128 0 129 0 0 528 0 527 23 50 c67 144 149 236 256
290 51 26 70 30 144 30 47 0 97 -3 111 -7 26 -8 27 -7 56 100 l30 107 -31 14
c-43 20 -201 24 -251 8z"/>
<path d="M12340 9106 c-211 -62 -358 -189 -464 -402 -34 -70 -61 -150 -72
-219 -3 -20 -8 -47 -10 -59 -12 -56 -3 -286 15 -371 51 -248 196 -442 405
-544 123 -60 197 -75 356 -75 184 1 297 31 453 121 l66 39 -41 74 c-22 41 -42
77 -44 79 -2 2 -36 -12 -76 -31 -103 -50 -124 -57 -210 -72 -263 -45 -476 49
-596 264 -36 65 -68 172 -77 253 l-6 57 555 0 555 0 -3 168 c-2 92 -6 178 -9
192 -4 14 -12 48 -18 75 -32 145 -152 319 -267 389 -136 83 -353 109 -512 62z
m279 -190 c124 -24 225 -121 270 -259 31 -97 48 -246 27 -248 -6 0 -204 -1
-440 -2 -349 -2 -429 0 -434 11 -10 27 34 187 73 261 38 75 147 175 229 212
78 34 179 43 275 25z"/>
<path d="M3871 8280 l2 -810 128 0 129 0 0 810 0 810 -130 0 -130 0 1 -810z"/>
<path d="M6364 8280 l0 -810 128 0 128 0 0 810 0 810 -128 0 -128 0 0 -810z"/>
<path d="M3624 8875 c3 -11 7 -35 8 -52 3 -47 16 -41 14 7 -1 22 -8 46 -15 52
-11 11 -12 9 -7 -7z"/>
<path d="M6088 8681 l-47 -16 3 -90 c2 -49 -2 -124 -10 -165 -7 -41 -12 -75
-11 -76 1 -2 27 14 57 34 l55 37 2 148 c1 81 1 146 0 146 -1 -1 -23 -9 -49
-18z"/>
<path d="M9442 8646 c-91 -42 -100 -50 -31 -30 30 9 72 22 93 28 32 9 36 13
25 23 -12 9 -30 5 -87 -21z"/>
<path d="M10498 8533 l-28 -14 0 -143 0 -143 25 5 c14 2 28 9 32 15 6 11 9
285 2 290 -2 2 -16 -3 -31 -10z"/>
<path d="M4355 8265 c0 -76 4 -138 10 -143 6 -5 33 -15 60 -21 28 -7 57 -14
65 -16 8 -3 21 4 28 15 10 17 6 30 -27 93 -22 41 -47 100 -57 132 -17 53 -38
75 -72 75 -4 0 -7 -61 -7 -135z"/>
<path d="M11503 8304 c-123 -83 -209 -241 -217 -399 -6 -146 37 -263 139 -373
107 -114 229 -170 377 -171 75 -1 168 16 168 30 0 5 -4 9 -10 9 -15 0 -164
150 -194 197 -17 26 -45 50 -72 63 -110 54 -165 195 -122 315 10 27 12 50 6
70 -4 17 -11 89 -14 160 -4 72 -7 131 -8 132 0 0 -24 -14 -53 -33z"/>
<path d="M4356 7750 c-2 -5 0 -233 3 -257 0 -6 9 -10 19 -8 9 2 28 4 42 4 30
1 73 60 60 82 -8 13 -31 97 -45 162 -5 25 -9 27 -41 25 -19 -1 -36 -5 -38 -8z"/>
<path d="M3615 7577 c-81 -48 -219 -144 -265 -184 -438 -386 -899 -1077 -1176
-1766 -47 -118 -50 -127 -32 -109 16 16 69 15 92 -3 16 -12 23 -12 45 -1 26
14 79 14 117 2 18 -7 25 4 64 96 236 560 599 1117 960 1477 80 80 214 190 265
219 12 6 9 17 -12 60 -21 43 -26 67 -27 137 0 47 -3 85 -6 84 -3 0 -14 -5 -25
-12z"/>
<path d="M8907 7363 c-17 -38 -21 -65 -20 -133 1 -83 31 -310 73 -555 23 -135
26 -152 35 -215 4 -24 8 -47 10 -50 1 -3 6 -25 9 -50 3 -25 10 -70 16 -100 5
-30 18 -111 30 -179 11 -68 23 -128 27 -134 6 -10 -207 -223 -274 -274 -29
-22 -33 -30 -28 -57 7 -32 -8 -86 -27 -97 -6 -4 -8 -12 -4 -18 5 -7 19 -4 44
9 20 11 44 20 54 20 22 0 68 -21 68 -31 0 -4 18 1 40 12 21 10 52 19 67 19 22
0 58 29 175 141 153 146 175 179 163 239 -3 14 -7 39 -10 55 -3 17 -10 53 -15
80 -5 28 -11 64 -14 80 -2 17 -18 109 -34 205 -17 96 -33 191 -36 210 -3 19
-8 46 -10 60 -9 49 -35 206 -41 245 -3 23 -8 52 -10 65 -3 14 -8 50 -11 80 -3
30 -7 57 -9 60 -3 4 -13 100 -20 184 -2 23 -12 33 -56 57 -30 17 -80 50 -112
75 l-58 45 -22 -48z"/>
<path d="M10425 7342 c-37 -57 -102 -93 -174 -96 -28 -1 -53 -5 -56 -7 -2 -3
12 -13 33 -22 106 -46 172 -147 180 -273 6 -99 -7 -142 -89 -285 -139 -243
-530 -801 -649 -928 -68 -73 -69 -73 -63 -120 4 -36 1 -51 -14 -70 -18 -22
-18 -27 -6 -66 l14 -41 37 37 c42 41 92 59 168 59 40 0 55 5 73 23 18 21 20
28 11 52 -21 55 32 117 95 112 33 -2 58 29 283 363 160 236 264 404 321 519
76 150 83 174 87 311 4 146 -10 222 -59 314 -32 60 -129 166 -150 165 -7 0
-25 -21 -42 -47z"/>
<path d="M6270 7243 c0 -16 10 -27 105 -108 98 -84 289 -279 415 -424 30 -35
60 -69 65 -75 38 -41 167 -202 262 -325 137 -177 108 -139 233 -306 57 -77
107 -142 110 -145 3 -3 41 -52 84 -110 44 -58 106 -137 139 -177 l58 -71 34
14 c46 19 68 18 96 -5 22 -18 23 -18 56 2 47 27 114 19 154 -19 16 -15 29 -36
29 -45 0 -25 14 -31 27 -11 9 15 -1 30 -59 92 -112 121 -222 255 -336 409
-502 677 -698 916 -987 1206 l-100 101 -155 0 c-85 0 -172 3 -192 6 -31 5 -38
4 -38 -9z"/>
<path d="M3173 5700 c-44 -26 -63 -60 -72 -123 l-7 -53 51 4 c37 3 65 -1 96
-15 44 -18 44 -18 85 3 41 20 41 21 39 73 -4 75 -43 116 -122 125 -27 4 -48 0
-70 -14z"/>
<path d="M6108 5675 c-42 -28 -64 -86 -54 -139 12 -59 18 -62 76 -33 68 34
169 33 218 -2 l32 -22 0 29 c0 32 -81 143 -126 173 -40 26 -103 23 -146 -6z"/>
<path d="M5405 5656 c-18 -13 -18 -15 -1 -69 16 -52 23 -197 12 -252 -2 -11
-7 -48 -11 -82 -6 -58 -5 -63 13 -63 25 0 52 31 52 61 0 13 11 47 24 76 25 53
64 83 99 76 21 -5 24 -24 11 -79 -17 -79 5 -138 50 -131 50 6 61 40 25 73 -18
16 -20 26 -14 64 17 117 -4 157 -78 147 -45 -6 -78 -34 -108 -91 l-21 -41 7
35 c4 19 9 82 11 140 3 84 0 111 -12 128 -18 25 -33 28 -59 8z"/>
<path d="M6415 5656 c-18 -13 -18 -17 -4 -57 15 -47 19 -221 7 -318 -8 -63 3
-91 35 -91 50 1 75 46 41 73 -19 15 -22 25 -19 65 13 143 16 289 6 315 -12 30
-36 35 -66 13z"/>
<path d="M6796 5652 c-15 -18 -15 -22 0 -58 18 -44 24 -188 10 -289 -12 -98
-12 -109 4 -112 27 -6 52 22 57 61 10 91 84 174 128 142 15 -10 15 -19 4 -79
-9 -50 -10 -73 -1 -92 15 -33 57 -43 82 -20 25 23 25 41 1 55 -28 14 -33 41
-20 94 19 76 -6 126 -62 126 -48 0 -85 -26 -119 -82 -17 -29 -29 -44 -26 -33
14 58 17 90 18 172 0 50 -5 99 -11 111 -14 27 -42 28 -65 4z"/>
<path d="M9945 5656 c-18 -13 -18 -15 -1 -68 11 -37 17 -86 16 -144 -1 -90 -2
-106 -15 -201 -7 -49 -6 -53 12 -53 27 0 53 31 53 61 0 44 50 130 83 144 52
22 71 0 55 -60 -16 -58 -13 -105 9 -127 25 -25 67 -19 83 13 10 17 7 23 -16
41 -25 20 -26 25 -19 72 17 112 1 146 -66 146 -43 0 -91 -39 -123 -101 -13
-25 -16 -28 -11 -9 3 14 8 73 12 132 8 148 -14 196 -72 154z"/>
<path d="M1893 5639 c-34 -3 -69 -12 -78 -19 -19 -15 -20 -70 -2 -70 15 0 15
-62 2 -208 -11 -121 14 -152 119 -152 101 1 164 36 152 84 -6 26 -7 26 -42 11
-20 -8 -60 -15 -89 -15 -65 0 -88 21 -83 77 l3 38 74 1 c78 1 101 14 101 57 0
17 -7 18 -84 15 l-83 -3 4 45 c7 74 4 71 94 68 74 -2 83 0 100 20 18 23 16 51
-5 53 -44 4 -131 3 -183 -2z"/>
<path d="M8671 5623 c-30 -20 -27 -61 4 -73 31 -12 52 -4 60 21 15 47 -25 80
-64 52z"/>
<path d="M9491 5624 c-30 -22 -28 -62 5 -75 21 -7 31 -6 46 8 43 38 -4 100
-51 67z"/>
<path d="M4372 5601 c-12 -33 -1 -48 37 -56 27 -5 55 35 46 65 -5 15 -15 20
-40 20 -28 0 -35 -5 -43 -29z"/>
<path d="M12271 5612 c-12 -22 7 -67 29 -68 41 -2 73 44 50 71 -18 21 -67 19
-79 -3z"/>
<path d="M6610 5504 c-53 -45 -77 -114 -33 -97 14 6 15 -2 9 -63 -7 -77 5
-128 34 -144 28 -15 73 -12 98 6 26 18 30 54 5 55 -62 2 -76 15 -78 71 -2 71
6 83 54 79 35 -2 42 1 50 21 13 35 3 48 -40 48 -35 0 -39 3 -39 25 0 32 -20
32 -60 -1z"/>
<path d="M10340 5504 c-27 -23 -60 -72 -60 -89 0 -3 9 -5 20 -5 18 0 25 -11
21 -34 -16 -83 -3 -159 29 -176 28 -15 72 -12 98 6 28 19 30 54 2 54 -52 0
-84 36 -75 85 2 11 4 30 4 42 1 24 25 33 58 22 24 -9 41 6 48 40 5 26 -9 34
-52 33 -21 -1 -33 3 -32 11 6 45 -16 49 -61 11z"/>
<path d="M11110 5504 c-33 -29 -65 -82 -55 -92 4 -4 14 -7 23 -7 9 0 16 -5 15
-11 -17 -94 -5 -177 27 -194 45 -24 120 0 120 39 0 14 -10 20 -40 25 -31 5
-43 12 -50 31 -8 22 -4 103 6 114 2 2 22 4 43 3 41 -2 49 4 56 38 5 25 -9 33
-52 32 -29 -1 -33 2 -33 23 0 32 -20 32 -60 -1z"/>
<path d="M12065 5503 c-40 -40 -58 -71 -51 -88 3 -8 12 -12 19 -9 12 4 15 -11
13 -86 -1 -86 0 -93 24 -112 43 -35 130 -9 130 38 0 6 -18 14 -40 18 -49 8
-64 32 -56 93 3 25 8 48 11 51 3 3 24 6 48 6 40 1 42 3 45 34 3 34 -2 37 -55
32 -18 -1 -23 4 -23 24 0 35 -29 34 -65 -1z"/>
<path d="M8571 5475 c-24 -19 -63 -47 -87 -62 -50 -32 -73 -78 -54 -112 15
-29 4 -64 -33 -99 -63 -61 -158 -76 -230 -37 -30 16 -38 17 -51 6 -9 -8 -16
-17 -16 -22 0 -4 34 -24 75 -44 57 -28 88 -36 128 -36 65 0 163 30 242 75 57
32 60 36 57 67 -2 19 2 62 8 96 11 57 10 63 -9 82 -28 28 -27 62 4 95 34 36
18 32 -34 -9z"/>
<path d="M3139 5480 c-78 -14 -136 -72 -104 -104 11 -11 12 -20 3 -44 -17 -44
4 -107 42 -127 97 -50 210 33 210 154 0 80 -69 135 -151 121z m64 -81 c29 -16
37 -28 37 -62 0 -63 -86 -101 -130 -57 -23 23 -27 78 -7 102 22 28 65 35 100
17z"/>
<path d="M3137 5339 c-3 -12 0 -22 9 -26 22 -8 44 5 44 27 0 28 -46 28 -53 -1z"/>
<path d="M5024 5480 c-100 -21 -146 -101 -105 -180 17 -33 18 -40 5 -50 -8 -7
-14 -23 -14 -37 0 -28 36 -46 110 -58 70 -10 80 -15 80 -36 0 -23 -36 -39 -86
-39 -48 0 -74 16 -74 45 0 46 -56 19 -66 -31 -4 -21 0 -35 16 -51 63 -68 235
-28 258 60 19 72 -16 110 -114 122 -30 3 -54 10 -54 15 0 4 23 13 50 20 58 14
87 44 96 102 4 21 12 38 19 38 8 0 15 6 18 13 8 25 -6 46 -37 56 -53 16 -70
18 -102 11z m52 -103 c-9 -43 -24 -57 -60 -57 -35 0 -50 8 -58 31 -15 39 38
71 100 60 21 -3 23 -8 18 -34z"/>
<path d="M2149 5467 c-18 -14 -32 -47 -19 -47 5 0 16 -7 24 -16 18 -17 22
-108 8 -159 -11 -38 -5 -55 17 -55 26 0 45 28 60 85 21 86 69 145 101 125 15
-9 18 -75 6 -157 -7 -49 -6 -53 13 -53 25 0 51 26 52 53 1 12 2 33 3 48 4 55
67 126 101 112 19 -7 25 -39 14 -76 -14 -50 -11 -93 10 -118 16 -20 23 -22 47
-14 37 13 44 51 14 72 -19 13 -21 22 -16 57 19 119 4 155 -65 156 -36 0 -71
-27 -97 -75 -11 -20 -11 -20 -12 1 0 37 -38 74 -74 74 -35 0 -59 -20 -93 -78
l-20 -32 2 37 c2 21 -1 46 -6 56 -11 20 -47 22 -70 4z"/>
<path d="M2672 5457 l-22 -23 25 -22 c26 -22 28 -31 27 -92 -1 -29 -12 -112
-17 -130 -1 -3 -5 -35 -9 -71 -11 -89 -4 -109 38 -109 51 0 73 35 41 66 -13
13 -20 40 -17 65 1 4 2 23 4 43 2 35 3 35 25 21 86 -57 204 44 205 176 0 46
-4 57 -28 77 -42 36 -107 27 -151 -22 -28 -31 -33 -33 -33 -15 0 58 -49 78
-88 36z m236 -74 c26 -36 4 -95 -43 -113 -25 -10 -90 4 -100 21 -10 15 37 92
64 105 30 15 62 10 79 -13z"/>
<path d="M3338 5468 c-28 -23 -29 -47 -3 -64 26 -17 39 -54 50 -139 3 -27 11
-55 17 -62 18 -22 65 -15 100 16 l34 29 16 -29 c14 -23 24 -29 51 -29 72 0
130 69 153 180 19 96 -11 135 -69 90 l-26 -21 20 -33 c34 -58 -3 -136 -63
-136 l-29 0 4 65 c6 90 0 115 -27 115 -12 0 -30 -6 -40 -13 -17 -13 -17 -15
-1 -46 9 -19 14 -43 11 -57 -9 -34 -45 -64 -77 -64 -27 0 -28 1 -28 60 1 71
-16 126 -41 140 -24 13 -33 13 -52 -2z"/>
<path d="M3909 5472 c-63 -28 -103 -94 -102 -171 1 -73 30 -103 105 -108 45
-3 59 0 93 25 41 28 60 72 31 72 -8 0 -17 -4 -21 -10 -19 -31 -117 -29 -137 3
-12 18 -9 39 3 31 19 -12 87 -6 119 11 58 30 69 105 22 141 -18 14 -86 17
-113 6z m72 -74 c12 -19 -15 -41 -53 -44 -42 -3 -63 13 -46 33 26 31 83 37 99
11z"/>
<path d="M4117 5462 c-22 -24 -21 -37 4 -53 17 -12 21 -25 22 -69 0 -30 -3
-76 -7 -102 -8 -44 -7 -48 12 -48 22 0 52 24 53 43 0 7 1 40 3 74 3 73 25 108
62 99 35 -9 54 3 54 35 0 22 -6 30 -26 35 -30 8 -72 -9 -81 -31 -4 -13 -8 -12
-17 7 -15 30 -57 35 -79 10z"/>
<path d="M4368 5466 c-23 -17 -23 -39 1 -60 20 -18 21 -38 6 -104 -13 -63 -13
-72 5 -94 15 -19 22 -21 45 -13 16 6 33 18 39 28 9 15 7 22 -12 37 -17 14 -21
26 -18 47 15 78 17 133 6 152 -12 24 -46 27 -72 7z"/>
<path d="M4532 5464 c-28 -19 -28 -38 0 -56 17 -12 22 -24 22 -69 0 -30 -3
-75 -7 -101 -7 -43 -6 -48 10 -48 32 0 52 23 59 65 3 22 9 45 12 50 4 6 7 13
7 17 0 3 10 20 23 38 27 36 60 51 84 39 18 -10 18 -17 3 -104 -13 -78 38 -132
85 -90 26 24 25 33 -5 61 -20 18 -24 30 -19 51 18 84 17 120 -5 142 -44 44
-124 17 -167 -56 -14 -24 -26 -43 -28 -43 -2 0 0 18 4 40 12 67 -27 100 -78
64z"/>
<path d="M5834 5461 c-46 -28 -77 -77 -82 -132 -6 -67 4 -97 41 -119 58 -35
144 -18 188 38 26 34 11 49 -30 28 -47 -25 -88 -26 -116 -4 -32 25 -34 52 -2
43 12 -4 24 -7 27 -7 59 -1 75 5 107 37 30 30 35 40 29 68 -3 17 -16 40 -27
50 -28 23 -96 22 -135 -2z m84 -54 c18 -12 15 -25 -13 -43 -31 -20 -88 -11
-83 14 6 31 64 48 96 29z"/>
<path d="M6153 5461 c-97 -45 -140 -199 -71 -254 32 -27 100 -18 137 17 32 31
41 32 41 6 0 -42 82 -51 95 -10 4 14 -1 27 -21 43 -21 19 -26 31 -26 67 1 23
5 46 10 49 5 3 14 16 20 28 32 59 -94 96 -185 54z m95 -60 c15 -9 9 -47 -14
-93 -26 -51 -121 -59 -125 -10 -5 59 7 87 46 102 26 11 77 12 93 1z"/>
<path d="M6185 5350 c3 -5 8 -10 11 -10 2 0 4 5 4 10 0 6 -5 10 -11 10 -5 0
-7 -4 -4 -10z"/>
<path d="M7512 5463 c-19 -9 -40 -26 -48 -38 -15 -23 -9 -59 8 -49 7 4 7 -2 2
-17 -5 -13 -9 -46 -9 -73 0 -40 5 -51 28 -70 63 -50 166 -21 206 58 37 75 14
174 -45 196 -38 15 -105 11 -142 -7z m143 -80 c52 -68 -48 -161 -113 -105 -33
27 -33 81 -1 113 17 17 29 20 61 16 22 -3 46 -14 53 -24z"/>
<path d="M7782 5464 c-28 -19 -28 -38 -1 -56 25 -16 32 -77 17 -158 -5 -29 -7
-54 -4 -57 3 -3 16 -3 30 1 24 6 32 19 41 65 17 91 89 167 129 138 15 -11 15
-20 4 -85 -14 -82 -8 -101 35 -116 21 -8 31 -6 47 9 26 23 25 33 -4 60 -17 16
-23 30 -20 51 2 16 6 49 10 74 5 37 2 49 -16 68 -42 45 -117 23 -161 -48 l-29
-45 0 42 c0 23 -3 48 -6 57 -8 20 -43 20 -72 0z"/>
<path d="M8236 5465 c-36 -19 -74 -62 -83 -95 -4 -14 -7 -47 -7 -74 0 -42 4
-52 33 -78 31 -28 39 -30 87 -25 54 6 92 26 114 61 17 28 -3 43 -32 24 -37
-24 -69 -28 -103 -14 -38 16 -58 61 -22 50 55 -17 136 6 157 45 12 23 13 71 2
87 -23 35 -97 44 -146 19z m75 -55 c21 0 8 -41 -17 -50 -24 -10 -70 -7 -82 4
-15 16 51 59 76 50 8 -2 18 -4 23 -4z"/>
<path d="M8652 5464 c-28 -19 -28 -35 -1 -58 18 -15 20 -24 15 -59 -18 -109
-18 -133 -2 -146 21 -18 71 -5 83 22 9 18 6 25 -13 40 -16 12 -21 24 -18 40
14 64 16 148 4 162 -16 19 -40 19 -68 -1z"/>
<path d="M8822 5473 c-7 -2 -17 -13 -22 -23 -8 -15 -5 -24 16 -45 25 -26 26
-30 21 -98 -4 -40 -8 -81 -9 -92 -4 -27 26 -31 51 -6 12 12 21 32 21 45 0 13
9 43 20 68 29 67 73 98 105 74 14 -10 16 -21 10 -57 -16 -104 -16 -104 10
-129 21 -20 30 -22 53 -14 35 12 40 40 12 66 -20 19 -22 27 -15 77 11 81 8
104 -16 124 -49 40 -128 7 -168 -70 l-18 -35 0 52 c0 62 -23 83 -71 63z"/>
<path d="M9245 5468 c-36 -21 -48 -39 -52 -83 -5 -40 -3 -44 23 -58 16 -8 51
-18 77 -22 30 -5 47 -12 47 -21 0 -19 -43 -28 -88 -19 -67 12 -77 11 -80 -11
-2 -11 7 -29 19 -40 30 -27 128 -27 159 1 34 30 50 73 38 106 -10 28 -22 35
-75 46 -16 3 -35 6 -43 8 -8 2 -18 4 -22 4 -16 2 -7 31 10 33 9 0 24 2 32 3 8
1 28 -5 43 -13 26 -12 31 -11 48 4 26 24 24 49 -6 62 -33 15 -104 15 -130 0z"/>
<path d="M9472 5464 c-28 -19 -28 -35 -1 -58 19 -16 20 -24 14 -64 -22 -128
-7 -168 54 -142 36 14 39 32 12 66 -14 18 -17 32 -12 52 13 47 13 132 1 148
-16 18 -40 18 -68 -2z"/>
<path d="M9702 5460 c-65 -40 -88 -124 -46 -171 16 -18 16 -20 -1 -39 -26 -28
-13 -66 27 -79 18 -6 50 -13 72 -16 60 -7 76 -15 76 -36 0 -23 -36 -39 -89
-39 -45 0 -77 20 -68 43 15 39 -42 26 -64 -14 -15 -29 5 -74 41 -89 89 -37
204 6 230 85 21 64 -18 106 -109 119 -64 9 -74 24 -21 32 59 10 100 48 107
101 4 28 11 43 23 46 12 3 17 12 15 23 -2 11 -4 22 -4 25 -2 14 -56 29 -104
29 -34 0 -63 -7 -85 -20z m96 -49 c23 -2 14 -58 -13 -79 -21 -17 -32 -19 -58
-11 -17 5 -33 9 -34 9 -2 0 -3 13 -3 30 0 33 35 58 73 54 12 -1 28 -3 35 -3z"/>
<path d="M10810 5458 c-86 -44 -131 -165 -87 -232 32 -48 118 -47 159 2 l23
28 15 -31 c21 -43 71 -48 89 -8 11 23 10 29 -5 40 -9 7 -21 14 -25 15 -5 2
-11 22 -13 44 -4 32 -1 47 15 65 26 30 21 70 -11 86 -39 20 -110 16 -160 -9z
m87 -54 c17 -5 20 -12 17 -32 -10 -54 -35 -91 -69 -102 -44 -14 -71 -1 -80 40
-14 66 54 115 132 94z"/>
<path d="M11578 5460 c-87 -47 -130 -165 -83 -236 30 -46 117 -44 157 4 l23
28 15 -31 c23 -47 79 -46 94 2 5 16 2 23 -13 28 -19 6 -38 46 -36 75 1 8 3 25
3 38 1 13 6 20 12 17 12 -7 24 39 16 60 -14 38 -127 47 -188 15z m101 -64 c15
-18 -3 -72 -36 -107 -17 -19 -33 -26 -54 -25 -36 3 -47 13 -55 53 -5 27 -1 37
24 63 24 23 39 30 70 30 22 0 45 -6 51 -14z"/>
<path d="M12261 5459 l-20 -22 24 -29 c29 -35 28 -27 10 -104 -8 -33 -11 -70
-8 -82 7 -30 47 -38 78 -18 30 20 31 30 4 57 -15 15 -19 28 -15 52 16 96 17
126 7 146 -15 27 -54 27 -80 0z"/>
<path d="M12427 5462 c-22 -24 -21 -37 4 -53 16 -11 21 -25 22 -69 1 -30 -2
-76 -6 -102 -7 -43 -6 -48 10 -48 31 0 42 14 59 71 23 77 54 129 82 136 42 10
47 -18 29 -182 -3 -28 37 -32 55 -6 8 11 15 41 17 66 4 80 66 150 107 121 14
-10 16 -21 10 -52 -14 -70 -13 -99 1 -126 16 -33 52 -37 76 -10 22 24 21 31
-7 57 -18 17 -23 30 -20 51 16 112 16 119 -6 142 -41 44 -104 25 -153 -48
l-17 -24 0 27 c0 15 -9 36 -20 47 -40 40 -101 18 -137 -49 l-23 -44 0 44 c0
25 -5 50 -12 57 -18 18 -53 15 -71 -6z"/>
<path d="M13042 5463 c-60 -29 -102 -123 -87 -193 10 -45 38 -69 88 -76 52 -7
123 20 145 57 19 30 2 43 -34 25 -53 -26 -91 -27 -119 -1 -35 34 -31 43 14 35
77 -14 150 33 151 97 0 63 -83 93 -158 56z m82 -66 c15 -24 -7 -42 -54 -42
-53 0 -60 12 -27 41 31 26 65 27 81 1z"/>
<path d="M2081 5371 c-15 -27 -14 -28 12 -35 31 -8 31 -8 33 8 1 8 -6 22 -16
31 -17 16 -19 15 -29 -4z"/>
<path d="M9420 5373 c0 -4 5 -15 10 -23 8 -13 10 -13 10 2 0 9 -4 20 -10 23
-5 3 -10 3 -10 -2z"/>
<path d="M6522 5333 c-1 -20 2 -33 5 -29 11 11 14 54 5 60 -5 3 -9 -11 -10
-31z"/>
<path d="M8768 5335 c-3 -24 0 -35 9 -35 8 0 13 13 13 35 0 19 -4 35 -9 35 -5
0 -11 -16 -13 -35z"/>
<path d="M6353 5334 c-3 -8 -1 -20 6 -27 8 -8 11 -8 11 0 0 6 3 18 6 27 3 9 1
16 -5 16 -7 0 -14 -7 -18 -16z"/>
<path d="M7937 5323 c-10 -9 -9 -33 1 -33 4 0 8 9 9 20 2 21 0 24 -10 13z"/>
<path d="M2290 5291 c-5 -11 -10 -31 -10 -44 0 -37 -41 -90 -77 -99 -36 -9
-81 4 -89 27 -5 13 -9 13 -33 0 -14 -8 -38 -19 -52 -24 -19 -7 -29 -21 -37
-48 -6 -21 -20 -69 -31 -108 -39 -138 -137 -505 -157 -585 -2 -8 -41 -168 -88
-355 -46 -187 -96 -389 -110 -450 -15 -60 -31 -128 -36 -150 -93 -381 -110
-468 -100 -505 11 -40 29 -60 75 -82 25 -12 99 -14 445 -13 228 1 423 3 432 4
40 3 76 52 128 173 29 68 63 146 75 173 38 83 220 503 265 610 40 94 70 147
57 100 -4 -11 -9 -72 -12 -135 -3 -63 -8 -135 -10 -160 -2 -25 -7 -94 -11
-155 -3 -60 -8 -128 -10 -150 -6 -72 -18 -299 -18 -343 0 -38 5 -49 35 -76 23
-21 49 -35 75 -38 21 -3 928 -5 2014 -4 2176 1 2014 -4 2053 63 10 17 19 47
19 65 2 32 -10 176 -17 228 -2 14 -6 54 -10 90 -6 73 -14 147 -20 200 -2 19
-7 64 -10 100 -4 36 -8 81 -10 100 -2 19 -6 64 -9 100 -4 36 -8 79 -10 95 -3
17 -7 66 -11 110 -4 44 -8 87 -10 95 -2 9 -6 58 -10 110 -4 52 -8 97 -10 100
-2 3 -6 43 -9 90 -4 47 -9 96 -11 110 -2 14 -7 61 -10 105 -4 44 -9 83 -12 87
-2 5 0 8 6 8 5 0 11 -3 13 -7 2 -5 21 -22 43 -39 139 -106 180 -137 270 -200
343 -240 596 -367 759 -380 115 -9 285 65 541 235 245 162 424 314 747 630
185 181 197 195 177 205 -12 6 -27 20 -33 31 -6 11 -12 22 -14 24 -1 3 -12 -5
-25 -17 -28 -27 -88 -52 -124 -52 -15 0 -49 7 -74 16 -57 21 -46 27 -214 -131
-226 -214 -261 -244 -383 -336 -123 -94 -275 -195 -357 -239 -33 -18 -64 -36
-70 -40 -5 -4 -42 -19 -82 -33 -69 -25 -74 -26 -128 -11 -62 15 -214 89 -283
135 -24 16 -45 29 -48 29 -12 0 -299 206 -549 394 -322 243 -333 250 -348 237
-39 -32 -147 -19 -168 21 -11 20 -11 19 -40 -8 -22 -21 -38 -27 -73 -27 -25 0
-52 6 -61 13 -8 7 -18 11 -20 8 -5 -5 49 -58 165 -159 41 -36 76 -70 77 -75 1
-5 4 -38 7 -74 4 -36 9 -81 11 -100 2 -19 9 -82 15 -140 6 -58 13 -121 15
-140 4 -33 7 -70 20 -200 3 -30 7 -71 10 -90 2 -19 7 -57 9 -85 21 -213 30
-293 46 -440 5 -49 12 -119 16 -155 3 -36 7 -76 9 -90 3 -13 10 -81 16 -150 6
-69 12 -129 12 -134 1 -6 -705 -10 -1819 -10 l-1821 -1 3 34 c1 19 5 69 9 110
3 42 8 99 10 126 3 28 7 77 10 110 2 33 7 92 10 130 3 39 7 93 10 120 13 160
17 194 21 235 2 25 7 86 10 135 3 50 7 100 9 112 2 12 6 64 10 115 4 51 8 109
10 128 2 19 7 71 10 115 3 44 8 103 10 130 10 90 14 139 20 225 4 47 8 103 10
125 13 150 15 195 8 195 -4 0 -19 -18 -32 -39 -41 -67 -147 -107 -214 -82 -20
8 -27 7 -28 -2 -1 -6 -3 -21 -4 -32 -2 -11 -6 -56 -9 -100 -4 -44 -9 -98 -12
-120 -3 -21 -66 -188 -141 -370 -74 -181 -164 -402 -200 -490 -36 -88 -71
-173 -78 -190 -8 -16 -47 -113 -88 -215 -42 -102 -91 -219 -110 -260 -63 -139
-111 -235 -118 -240 -4 -3 -123 -5 -266 -4 -248 1 -258 2 -255 20 2 10 14 64
27 119 13 55 47 197 74 315 28 118 83 341 121 495 39 154 72 287 75 296 16 68
107 401 157 569 39 133 61 228 63 270 1 36 6 73 10 83 10 23 -2 22 -15 -2z"/>
<path d="M7172 5268 c-17 -17 -15 -55 3 -62 21 -8 19 -28 -10 -70 -22 -33 -23
-37 -8 -43 44 -17 116 132 83 172 -15 18 -51 20 -68 3z"/>
</g>
</svg>
