<svg xmlns="http://www.w3.org/2000/svg" version="1.1" xmlns:xlink="http://www.w3.org/1999/xlink" xmlns:svgjs="http://svgjs.dev/svgjs" width="1500" height="1500" viewBox="0 0 1500 1500"><rect width="1500" height="1500" fill="#ffffff"></rect><g transform="matrix(0.6666666666666666,0,0,0.6666666666666666,249.39393939393938,438.5856950067477)"><svg viewBox="0 0 396 247" data-background-color="#ffffff" preserveAspectRatio="xMidYMid meet" height="935" width="1500" xmlns="http://www.w3.org/2000/svg" xmlns:xlink="http://www.w3.org/1999/xlink"><g id="tight-bounds" transform="matrix(1,0,0,1,0.2400000000000091,-0.09999999999999432)"><svg viewBox="0 0 395.52 247.2" height="247.2" width="395.52"><g><svg></svg></g><g><svg viewBox="0 0 395.52 247.2" height="247.2" width="395.52"><mask id="94aa796d-021c-47d9-aa63-1ad858e88c2e"><rect width="640" height="400" fill="white"></rect><g transform="matrix(1,0,0,1,39.55199999999999,56.39490445001634)"><svg viewBox="0 0 316.416 134.4101910999673" height="134.4101910999673" width="316.416"><g><svg viewBox="0 0 316.416 134.4101910999673" height="134.4101910999673" width="316.416"><g><svg viewBox="0 0 316.416 134.4101910999673" height="134.4101910999673" width="316.416"><g><svg viewBox="0 0 316.416 134.4101910999673" height="134.4101910999673" width="316.416"><g id="SvgjsG4872"><svg viewBox="0 0 316.416 134.4101910999673" height="134.4101910999673" width="316.416" id="SvgjsSvg4871"><g><svg viewBox="0 0 316.416 94.51601669422111" height="94.51601669422111" width="316.416"><g transform="matrix(1,0,0,1,0,0)"><svg width="316.416" viewBox="0.6900000000000004 -39.6 182.32 55.17" height="94.51601669422111" data-palette-color="#00ebff"><path d="M13.23 0L4.69 0 4.69-33.84 13.04-33.84Q20.85-33.84 24.9-29.44 28.96-25.05 28.96-17.04L28.96-17.04Q28.96-9.01 24.93-4.5 20.9 0 13.23 0L13.23 0ZM8.69-30.54L8.69-3.3 12.72-3.3Q18.77-3.3 21.78-6.95 24.78-10.6 24.78-17.04L24.78-17.04Q24.78-23.46 21.78-27 18.77-30.54 12.72-30.54L12.72-30.54 8.69-30.54ZM39.87 0L35.91 0 35.91-24.98 39.87-24.98 39.87 0ZM37.96-30.25L37.96-30.25Q36.77-30.25 36.03-30.99 35.3-31.74 35.3-32.98L35.3-32.98Q35.3-34.13 36.03-34.86 36.77-35.6 37.96-35.6L37.96-35.6Q39.16-35.6 39.89-34.86 40.62-34.13 40.62-32.98L40.62-32.98Q40.62-31.74 39.89-30.99 39.16-30.25 37.96-30.25ZM56.93 11.57L56.93 11.57Q52.29 11.57 49.43 9.83 46.58 8.08 46.58 4.83L46.58 4.83Q46.58 3.2 47.55 1.73 48.53 0.27 50.21-0.85L50.21-0.85 50.21-1.07Q49.31-1.64 48.66-2.65 48.02-3.66 48.02-5.15L48.02-5.15Q48.02-6.74 48.92-7.93 49.82-9.13 50.75-9.79L50.75-9.79 50.75-9.99Q49.51-10.96 48.53-12.71 47.55-14.45 47.55-16.67L47.55-16.67Q47.55-19.41 48.82-21.41 50.09-23.41 52.2-24.51 54.32-25.61 56.83-25.61L56.83-25.61Q57.88-25.61 58.77-25.43 59.66-25.24 60.32-24.98L60.32-24.98 69.04-24.98 69.04-21.95 63.79-21.95Q64.72-21.04 65.33-19.65 65.94-18.26 65.94-16.63L65.94-16.63Q65.94-13.96 64.73-12.01 63.52-10.06 61.46-9 59.39-7.93 56.83-7.93L56.83-7.93Q55.9-7.93 54.91-8.15 53.93-8.37 53.07-8.79L53.07-8.79Q52.39-8.23 51.9-7.52 51.41-6.81 51.41-5.76L51.41-5.76Q51.41-4.52 52.35-3.75 53.29-2.98 55.85-2.98L55.85-2.98 60.79-2.98Q65.13-2.98 67.29-1.54 69.45-0.1 69.45 2.98L69.45 2.98Q69.45 5.27 67.91 7.23 66.38 9.18 63.56 10.38 60.74 11.57 56.93 11.57ZM56.83-10.6L56.83-10.6Q59.08-10.6 60.71-12.24 62.35-13.89 62.35-16.67L62.35-16.67Q62.35-19.51 60.72-21.11 59.1-22.71 56.83-22.71L56.83-22.71Q54.54-22.71 52.95-21.11 51.36-19.51 51.36-16.67L51.36-16.67Q51.36-13.89 52.99-12.24 54.61-10.6 56.83-10.6ZM57.44 8.79L57.44 8.79Q59.91 8.79 61.71 8.03 63.52 7.28 64.52 6.08 65.52 4.88 65.52 3.54L65.52 3.54Q65.52 1.73 64.24 1.04 62.96 0.34 60.42 0.34L60.42 0.34 55.95 0.34Q55.27 0.34 54.41 0.26 53.56 0.17 52.7-0.05L52.7-0.05Q51.31 0.9 50.69 2.05 50.07 3.2 50.07 4.32L50.07 4.32Q50.07 6.37 52.02 7.58 53.97 8.79 57.44 8.79ZM78.29 0L74.33 0 74.33-24.98 78.29-24.98 78.29 0ZM76.38-30.25L76.38-30.25Q75.19-30.25 74.46-30.99 73.72-31.74 73.72-32.98L73.72-32.98Q73.72-34.13 74.46-34.86 75.19-35.6 76.38-35.6L76.38-35.6Q77.58-35.6 78.31-34.86 79.05-34.13 79.05-32.98L79.05-32.98Q79.05-31.74 78.31-30.99 77.58-30.25 76.38-30.25ZM99.99 0.61L99.99 0.61Q95.77 0.61 92.45-1.48 89.13-3.56 87.21-7.48 85.29-11.4 85.29-16.89L85.29-16.89Q85.29-22.34 87.23-26.27 89.17-30.2 92.56-32.34 95.94-34.47 100.23-34.47L100.23-34.47Q103.29-34.47 105.64-33.22 108-31.96 109.46-30.3L109.46-30.3 107.27-27.76Q105.95-29.2 104.21-30.05 102.48-30.91 100.31-30.91L100.31-30.91Q97.04-30.91 94.59-29.21 92.15-27.51 90.81-24.4 89.47-21.29 89.47-16.99L89.47-16.99Q89.47-12.67 90.77-9.51 92.08-6.35 94.47-4.64 96.87-2.93 100.14-2.93L100.14-2.93Q102.58-2.93 104.51-3.88 106.44-4.83 108.07-6.69L108.07-6.69 110.29-4.27Q108.29-1.9 105.76-0.65 103.24 0.61 99.99 0.61ZM122.03 0.61L122.03 0.61Q118.91 0.61 116.81-1.21 114.71-3.03 114.71-6.42L114.71-6.42Q114.71-10.52 118.43-12.72 122.16-14.92 130.19-15.82L130.19-15.82Q130.19-17.48 129.74-18.97 129.28-20.46 128.15-21.41 127.01-22.36 124.91-22.36L124.91-22.36Q122.69-22.36 120.75-21.51 118.81-20.65 117.35-19.73L117.35-19.73 115.81-22.36Q117.47-23.51 119.99-24.56 122.52-25.61 125.55-25.61L125.55-25.61Q130.11-25.61 132.13-22.8 134.14-20 134.14-15.41L134.14-15.41 134.14 0 130.85 0 130.53-3.03 130.38-3.03Q128.58-1.54 126.46-0.46 124.35 0.61 122.03 0.61ZM123.11-2.56L123.11-2.56Q124.99-2.56 126.64-3.44 128.28-4.32 130.19-5.96L130.19-5.96 130.19-13.18Q125.87-12.65 123.33-11.77 120.79-10.89 119.69-9.64 118.59-8.4 118.59-6.74L118.59-6.74Q118.59-4.52 119.91-3.54 121.23-2.56 123.11-2.56ZM146.08 0L142.12 0 142.12-24.98 145.42-24.98 145.79-20.46 145.88-20.46Q147.2-22.8 149.03-24.21 150.86-25.61 152.99-25.61L152.99-25.61Q154.6-25.61 155.62-25.1L155.62-25.1 154.75-21.73Q154.21-21.9 153.73-21.97 153.26-22.05 152.48-22.05L152.48-22.05Q150.89-22.05 149.13-20.74 147.37-19.43 146.08-16.16L146.08-16.16 146.08 0ZM169.83 0.61L169.83 0.61Q166.54 0.61 163.84-0.95 161.14-2.51 159.54-5.44 157.94-8.37 157.94-12.45L157.94-12.45Q157.94-16.53 159.54-19.48 161.14-22.44 163.7-24.02 166.27-25.61 169.12-25.61L169.12-25.61Q173.84-25.61 176.42-22.46 179.01-19.31 179.01-13.89L179.01-13.89Q179.01-12.52 178.86-11.57L178.86-11.57 161.85-11.57Q162.04-7.5 164.34-5 166.63-2.51 170.3-2.51L170.3-2.51Q172.17-2.51 173.74-3.02 175.3-3.52 176.64-4.42L176.64-4.42 178.03-1.95Q176.4-0.83 174.42-0.11 172.44 0.61 169.83 0.61ZM161.8-14.43L161.8-14.43 175.52-14.43Q175.52-18.36 173.86-20.41 172.2-22.46 169.17-22.46L169.17-22.46Q166.46-22.46 164.33-20.36 162.19-18.26 161.8-14.43Z" opacity="1" transform="matrix(1,0,0,1,0,0)" fill="black" class="wordmark-text-0" id="SvgjsPath4870" stroke-width="7" stroke="black" stroke-linejoin="round"></path></svg></g></svg></g><g transform="matrix(1,0,0,1,3.5,113.94552777246747)"><svg viewBox="0 0 309.416 20.46466332749985" height="20.46466332749985" width="309.416"><g transform="matrix(1,0,0,1,0,0)"><svg width="309.416" viewBox="-1.85 -38 829.45 55.800000000000004" height="20.46466332749985" data-palette-color="#00ebff"><path d="M12.2 0.65L12.2 0.65Q7.45 0.65 5.18-0.88 2.9-2.4 2.9-6.6L2.9-6.6Q2.9-7.45 3.03-8.65 3.15-9.85 3.4-11.55L3.4-11.55Q3.8-14 4-15.93 4.2-17.85 4.2-20.15L4.2-20.15Q4.2-21.65 4.13-23.05 4.05-24.45 3.85-25.7L3.85-25.7Q3.1-25.55 2.85-25.55L2.85-25.55Q2.45-25.55 2.3-25.73 2.15-25.9 2.15-26.4L2.15-26.4Q2.15-27.45 2.4-28.48 2.65-29.5 3.1-30.15L3.1-30.15Q3.95-31.35 5.7-31.55L5.7-31.55Q7.05-31.7 9.03-31.85 11-32 13.08-32.08 15.15-32.15 16.8-32.15L16.8-32.15Q21.4-32.15 22.25-31.95L22.25-31.95Q23.55-31.75 23.55-30.55L23.55-30.55Q23.55-29.05 22.5-27.8L22.5-27.8Q21.95-27.05 21.4-26.73 20.85-26.4 19.85-26.45L19.85-26.45Q17.65-26.6 16-26.65 14.35-26.7 13.7-26.7L13.7-26.7Q12.55-26.7 11.33-26.65 10.1-26.6 8.85-26.5L8.85-26.5Q8.85-24.75 8.7-22.75 8.55-20.75 8.3-18.55L8.3-18.55Q10.6-18.7 13.5-18.78 16.4-18.85 18.65-18.85L18.65-18.85Q19.65-18.85 20.03-18.65 20.4-18.45 20.4-17.6L20.4-17.6Q20.4-16.8 19.98-15.83 19.55-14.85 18.85-14.15L18.85-14.15Q18.55-13.85 18.2-13.68 17.85-13.5 17.25-13.55L17.25-13.55Q15.1-13.65 12.38-13.7 9.65-13.75 7.6-13.7L7.6-13.7Q7.4-12.55 7.3-11.6 7.2-10.65 7.2-9.9L7.2-9.9Q7.2-7.15 8.6-6.05 10-4.95 13.2-4.95L13.2-4.95Q15.15-4.95 16.98-5.3 18.8-5.65 20.7-6.6L20.7-6.6Q21.4-7 21.75-7L21.75-7Q22.3-7 22.83-6.23 23.35-5.45 23.35-4.55L23.35-4.55Q23.35-3.45 22.53-2.48 21.7-1.5 20.35-0.8L20.35-0.8Q18.8-0.1 16.65 0.28 14.5 0.65 12.2 0.65ZM29.45 0.55L29.45 0.55Q27.65 0.55 27.85-0.65L27.85-0.65Q28.4-2.8 28.77-5.03 29.15-7.25 29.15-9.3L29.15-9.3Q29.15-11.95 28.82-13.18 28.5-14.4 27.95-14.88 27.4-15.35 26.6-15.6L26.6-15.6Q26.25-15.75 25.97-16 25.7-16.25 25.7-16.7L25.7-16.7Q25.7-17.4 26.25-18.25 26.8-19.1 27.82-19.73 28.85-20.35 30.15-20.35L30.15-20.35Q31.85-20.35 32.5-19.18 33.15-18 33.15-16.1L33.15-16.1Q33.15-14.85 32.9-13.3 32.65-11.75 32.4-10.5L32.4-10.5 32.5-10.45Q33.3-13.1 34.47-15.35 35.65-17.6 37.32-19 39-20.4 41.2-20.4L41.2-20.4Q43.45-20.4 44.75-18.88 46.05-17.35 46.05-14.4L46.05-14.4 46.05-13.3Q47.5-16.35 49.57-18.4 51.65-20.45 54.6-20.45L54.6-20.45Q57-20.45 58.35-18.85 59.7-17.25 59.7-14.85L59.7-14.85Q59.7-13.9 59.5-13.03 59.3-12.15 59.05-11.3L59.05-11.3Q58.85-10.5 58.65-9.65 58.45-8.8 58.45-7.95L58.45-7.95Q58.45-4.95 61-4.05L61-4.05Q61.35-3.9 61.55-3.73 61.75-3.55 61.75-3.1L61.75-3.1Q61.75-2.65 61.47-1.8 61.2-0.95 60.4-0.23 59.6 0.5 58.1 0.5L58.1 0.5Q56.15 0.5 55.1-0.93 54.05-2.35 54.05-4.55L54.05-4.55Q54.05-5.65 54.25-6.85 54.45-8.05 54.75-9.15L54.75-9.15Q55-10.15 55.17-11.05 55.35-11.95 55.35-12.6L55.35-12.6Q55.35-13.8 54.77-14.35 54.2-14.9 53.25-14.9L53.25-14.9Q51.65-14.9 50.37-13.9 49.1-12.9 48.12-11.3 47.15-9.7 46.45-7.8L46.45-7.8Q46.5-7.35 46.52-6.63 46.55-5.9 46.55-5.35L46.55-5.35Q46.55-4.4 46.42-3.35 46.3-2.3 45.95-1.6L45.95-1.6Q45.55-0.65 44.77-0.05 44 0.55 42.7 0.55L42.7 0.55Q42.15 0.55 41.65 0.33 41.15 0.1 41.15-0.4L41.15-0.4Q41.15-0.6 41.45-2.18 41.75-3.75 42.05-6.05 42.35-8.35 42.35-10.55L42.35-10.55Q42.35-12.95 41.85-13.88 41.35-14.8 40.35-14.8L40.35-14.8Q39.1-14.8 37.97-13.75 36.85-12.7 35.92-11.05 35-9.4 34.32-7.6 33.65-5.8 33.25-4.25L33.25-4.25 33.25-3.7Q33.25-1.85 32.22-0.65 31.2 0.55 29.45 0.55ZM68.09 13.8L68.09 13.8Q66.59 13.8 65.75 12.98 64.89 12.15 64.89 10L64.89 10Q64.89 8.55 65.22 6.35 65.55 4.15 66 1.7L66 1.7Q66.34-0.25 66.67-2.4 67-4.55 67.22-6.63 67.45-8.7 67.45-10.35L67.45-10.35Q67.45-12.25 67.02-13.65 66.59-15.05 65.3-15.45L65.3-15.45Q64.8-15.65 64.39-15.9 64-16.15 64-16.7L64-16.7Q64-17.4 64.55-18.25 65.09-19.1 66.12-19.73 67.14-20.35 68.45-20.35L68.45-20.35Q70.14-20.35 70.8-19.18 71.45-18 71.45-16.1L71.45-16.1Q71.45-15.55 71.39-14.98 71.34-14.4 71.25-13.8L71.25-13.8Q72.7-16.6 75.07-18.53 77.45-20.45 80.45-20.45L80.45-20.45Q83.45-20.45 85.17-18.43 86.9-16.4 86.9-12.95L86.9-12.95Q86.9-10.4 86.09-7.98 85.3-5.55 83.84-3.6 82.4-1.65 80.37-0.5 78.34 0.65 75.84 0.65L75.84 0.65Q74.05 0.65 72.7 0.03 71.34-0.6 70.34-1.6L70.34-1.6Q70.14-0.3 69.97 1.55 69.8 3.4 69.8 5L69.8 5Q69.8 6.85 70.22 7.9 70.64 8.95 71.89 9.5L71.89 9.5Q72.45 9.75 72.45 10.3L72.45 10.3Q72.45 10.7 72.05 11.55 71.64 12.4 70.72 13.1 69.8 13.8 68.09 13.8ZM77-4.75L77-4.75Q79.84-4.75 81.4-6.55 82.95-8.35 82.95-10.7L82.95-10.7Q82.95-12.75 81.84-13.88 80.75-15 78.9-15L78.9-15Q77-15 75.55-13.88 74.09-12.75 73.07-10.95 72.05-9.15 71.39-7.1L71.39-7.1Q73.9-4.75 77-4.75ZM98.64 0.65L98.64 0.65Q95.19 0.65 93.12-1.23 91.04-3.1 91.04-6.75L91.04-6.75Q91.04-8.45 91.52-10.05 91.99-11.65 92.79-13.05L92.79-13.05Q91.99-12.55 91.59-12.55L91.59-12.55Q90.99-12.55 90.77-13.23 90.54-13.9 90.54-14.55L90.54-14.55Q90.54-15.7 91.02-16.38 91.49-17.05 91.94-17.4L91.94-17.4Q92.99-18.3 95.24-19.38 97.49-20.45 100.64-20.45L100.64-20.45Q104.94-20.45 107.32-18.05 109.69-15.65 109.69-11.35L109.69-11.35Q109.69-8 108.29-5.28 106.89-2.55 104.42-0.95 101.94 0.65 98.64 0.65ZM100.19-4.45L100.19-4.45Q102.69-4.45 104.42-6.03 106.14-7.6 106.14-10.2L106.14-10.2Q106.14-12.9 104.39-14.05 102.64-15.2 100.34-15.2L100.34-15.2Q99.29-15.2 98.44-15 97.59-14.8 96.84-14.5L96.84-14.5Q96.14-13.5 95.59-12.25 95.04-11 95.04-9.5L95.04-9.5Q95.04-7 96.54-5.73 98.04-4.45 100.19-4.45ZM120.14 0.7L120.14 0.7Q118.74 0.7 117.77-0.13 116.79-0.95 116.64-3.2L116.64-3.2Q116.54-4.9 116.22-7 115.89-9.1 115.44-10.95 114.99-12.8 114.39-13.75L114.39-13.75Q114.04-14.3 113.61-14.58 113.19-14.85 112.34-14.95L112.34-14.95Q111.44-15 111.44-16.25L111.44-16.25Q111.44-18.3 112.54-19.28 113.64-20.25 115.04-20.25L115.04-20.25Q116.54-20.25 117.49-19.28 118.44-18.3 118.97-16.68 119.49-15.05 119.72-13.05 119.94-11.05 119.94-9L119.94-9Q119.94-8.25 119.92-7.53 119.89-6.8 119.89-6.1L119.89-6.1Q119.89-5.6 120.09-5.28 120.29-4.95 121.09-4.95L121.09-4.95Q122.19-4.95 123.69-5.53 125.19-6.1 126.31-7.45 127.44-8.8 127.44-11.05L127.44-11.05Q127.44-12.2 127.09-12.98 126.74-13.75 126.14-14.45L126.14-14.45Q125.94-14.7 125.79-14.95 125.64-15.2 125.64-15.55L125.64-15.55Q125.64-16.5 126.42-17.07 127.19-17.65 128.16-17.93 129.14-18.2 129.79-18.2L129.79-18.2Q130.44-18.2 130.81-17.88 131.19-17.55 131.39-16.6L131.39-16.6Q131.59-15.95 131.69-15.18 131.79-14.4 131.79-13.4L131.79-13.4Q131.79-11.85 131.66-10.9 131.54-9.95 131.39-9.2L131.39-9.2Q131.24-8.55 131.16-7.93 131.09-7.3 131.09-6.45L131.09-6.45Q131.09-5.55 131.44-5.25 131.79-4.95 132.54-4.95L132.54-4.95Q135.39-4.95 137.19-6.93 138.99-8.9 138.99-11.75L138.99-11.75Q138.99-12.75 138.69-13.63 138.39-14.5 137.64-15.3L137.64-15.3Q137.24-15.8 136.99-16.13 136.74-16.45 136.74-16.95L136.74-16.95Q136.74-17.85 137.56-18.6 138.39-19.35 139.51-19.83 140.64-20.3 141.54-20.3L141.54-20.3Q142.89-20.3 143.29-19.05 143.69-17.8 143.69-16.2L143.69-16.2Q143.69-13.5 142.91-10.58 142.14-7.65 140.69-5.08 139.24-2.5 137.14-0.9 135.04 0.7 132.39 0.7L132.39 0.7Q129.69 0.7 128.69-0.85 127.69-2.4 127.84-4.6L127.84-4.6Q126.34-2.3 124.31-0.8 122.29 0.7 120.14 0.7ZM154.69 0.65L154.69 0.65Q150.89 0.65 148.76-1.53 146.64-3.7 146.64-7.6L146.64-7.6Q146.64-11.15 148.19-14.05 149.74-16.95 152.36-18.68 154.99-20.4 158.14-20.4L158.14-20.4Q161.14-20.4 162.94-18.93 164.74-17.45 164.74-15L164.74-15Q164.74-13.05 163.54-11.4 162.34-9.75 160.34-8.78 158.34-7.8 155.89-7.8L155.89-7.8Q152.89-7.8 150.99-9.15L150.99-9.15Q151.04-6.85 152.56-5.45 154.09-4.05 156.49-4.05L156.49-4.05Q157.94-4.05 159.46-4.58 160.99-5.1 162.09-6L162.09-6Q162.79-6.6 163.39-6.6L163.39-6.6Q163.89-6.6 164.21-6.28 164.54-5.95 164.54-5.45L164.54-5.45Q164.54-4.35 162.64-2.55L162.64-2.55Q159.29 0.65 154.69 0.65ZM155.44-11.1L155.44-11.1Q157.24-11.1 158.44-11.85 159.64-12.6 159.64-13.75L159.64-13.75Q159.64-14.7 158.84-15.23 158.04-15.75 156.64-15.75L156.64-15.75Q154.79-15.75 153.41-14.78 152.04-13.8 151.44-12.05L151.44-12.05Q152.14-11.6 153.24-11.35 154.34-11.1 155.44-11.1ZM171.59 0.55L171.59 0.55Q170.78 0.55 170.31 0.28 169.84 0 169.99-0.65L169.99-0.65Q170.53-2.8 170.91-5.03 171.28-7.25 171.28-9.3L171.28-9.3Q171.28-11.95 170.96-13.18 170.63-14.4 170.09-14.88 169.53-15.35 168.74-15.6L168.74-15.6Q168.38-15.75 168.11-16 167.84-16.25 167.84-16.7L167.84-16.7Q167.84-17.4 168.38-18.25 168.94-19.1 169.94-19.73 170.94-20.35 172.24-20.35L172.24-20.35Q173.94-20.35 174.61-19.18 175.28-18 175.28-16.1L175.28-16.1Q176.19-18.1 177.51-19.28 178.84-20.45 180.84-20.45L180.84-20.45Q182.19-20.45 183.09-19.85 183.99-19.25 183.99-17.9L183.99-17.9Q183.99-16.55 183.11-15.38 182.24-14.2 181.34-14.2L181.34-14.2Q181.19-14.2 180.99-14.25 180.78-14.3 180.63-14.5L180.63-14.5Q179.99-15.3 179.03-15.3L179.03-15.3Q177.59-15.3 176.49-13.4 175.38-11.5 175.28-8.15L175.28-8.15Q175.34-6.9 175.36-5.6 175.38-4.3 175.38-3.7L175.38-3.7Q175.38-1.85 174.36-0.65 173.34 0.55 171.59 0.55ZM190.23-24.85L190.23-24.85Q188.83-24.9 187.98-25.7 187.13-26.5 187.13-27.95L187.13-27.95Q187.18-29.5 188.18-30.48 189.18-31.45 190.73-31.4L190.73-31.4Q192.18-31.35 193.01-30.55 193.83-29.75 193.78-28.3L193.78-28.3Q193.73-26.8 192.78-25.83 191.83-24.85 190.23-24.85ZM190.28 0.5L190.28 0.5Q188.78 0.5 187.93-0.33 187.08-1.15 187.08-3.15L187.08-3.15Q187.08-4.3 187.31-5.4 187.53-6.5 187.83-7.55L187.83-7.55Q188.18-8.65 188.41-9.8 188.63-10.95 188.63-12.25L188.63-12.25Q188.63-13.15 188.38-13.98 188.13-14.8 187.28-15.2L187.28-15.2Q186.63-15.55 186.16-15.93 185.68-16.3 185.68-16.9L185.68-16.9Q185.68-17.6 186.33-18.4 186.98-19.2 188.06-19.78 189.13-20.35 190.28-20.35L190.28-20.35Q191.53-20.35 192.11-19.7 192.68-19.05 192.88-18.05 193.08-17.05 193.08-16L193.08-16Q193.08-14.4 192.83-12.88 192.58-11.35 192.33-10.05L192.33-10.05Q192.13-9.1 192.03-8.3 191.93-7.5 191.93-6.8L191.93-6.8Q191.93-5.55 192.53-4.93 193.13-4.3 194.23-3.75L194.23-3.75Q194.68-3.5 194.68-3L194.68-3Q194.68-2.6 194.28-1.75 193.88-0.9 192.91-0.2 191.93 0.5 190.28 0.5ZM201.23 0.55L201.23 0.55Q199.43 0.55 199.63-0.65L199.63-0.65Q200.18-2.8 200.56-5.03 200.93-7.25 200.93-9.3L200.93-9.3Q200.93-11.95 200.6-13.18 200.28-14.4 199.73-14.88 199.18-15.35 198.38-15.6L198.38-15.6Q198.03-15.75 197.75-16 197.48-16.25 197.48-16.7L197.48-16.7Q197.48-17.4 198.03-18.25 198.58-19.1 199.6-19.73 200.63-20.35 201.93-20.35L201.93-20.35Q203.63-20.35 204.28-19.18 204.93-18 204.93-16.1L204.93-16.1Q204.93-14.85 204.68-13.3 204.43-11.75 204.18-10.5L204.18-10.5 204.33-10.45Q205.33-13.1 206.75-15.38 208.18-17.65 210.08-19.05 211.98-20.45 214.48-20.45L214.48-20.45Q217.13-20.45 218.53-18.85 219.93-17.25 219.93-14.85L219.93-14.85Q219.93-13.85 219.71-12.95 219.48-12.05 219.23-11.2L219.23-11.2Q218.98-10.4 218.81-9.55 218.63-8.7 218.63-7.85L218.63-7.85Q218.63-5 221.33-4L221.33-4Q222.03-3.7 222.03-3.1L222.03-3.1Q222.03-2.65 221.73-1.8 221.43-0.95 220.63-0.23 219.83 0.5 218.28 0.5L218.28 0.5Q216.28 0.5 215.18-0.93 214.08-2.35 214.08-4.55L214.08-4.55Q214.08-5.8 214.35-7.08 214.63-8.35 214.93-9.45L214.93-9.45Q215.13-10.3 215.31-11.13 215.48-11.95 215.48-12.6L215.48-12.6Q215.48-14.9 213.08-14.9L213.08-14.9Q211.03-14.9 209.48-13.38 207.93-11.85 206.83-9.55 205.73-7.25 205.03-4.9L205.03-4.9 205.03-3.7Q205.03-1.85 204-0.65 202.98 0.55 201.23 0.55ZM231.73 13.8L231.73 13.8Q227.98 13.8 225.78 12.25 223.58 10.7 223.58 8.25L223.58 8.25Q223.58 6.45 224.7 5.05 225.83 3.65 227.68 3.65L227.68 3.65Q228.73 3.65 228.73 4.25L228.73 4.25Q228.73 4.6 228.6 5.05 228.48 5.5 228.48 5.95L228.48 5.95Q228.48 7.35 230.08 8.03 231.68 8.7 233.93 8.7L233.93 8.7Q235.33 8.7 236.78 8.4 238.23 8.1 239.2 7.48 240.18 6.85 240.18 5.8L240.18 5.8Q240.18 4.65 239.03 4.1 237.88 3.55 236.13 3.28 234.38 3 232.55 2.78 230.73 2.55 229.43 2.05L229.43 2.05Q227.78 1.5 226.98 0.7 226.18-0.1 226.18-1.35L226.18-1.35Q226.18-3.7 229.03-5.1L229.03-5.1Q227.38-5.95 226.55-7.5 225.73-9.05 225.73-10.95L225.73-10.95Q225.73-13.4 227-15.55 228.28-17.7 230.8-19.07 233.33-20.45 237.13-20.45L237.13-20.45Q238.83-20.45 240.58-20.13 242.33-19.8 243.5-18.93 244.68-18.05 244.68-16.4L244.68-16.4Q244.68-15.8 244.43-15.08 244.18-14.35 243.48-14.35L243.48-14.35Q243.18-14.35 242.68-14.48 242.18-14.6 241.78-14.7L241.78-14.7Q241.88-14.2 241.95-13.6 242.03-13 242.03-12.35L242.03-12.35Q242.03-9.4 240.03-7.03 238.03-4.65 234.18-4.2L234.18-4.2Q232.78-4.1 232.1-3.88 231.43-3.65 231.43-3.1L231.43-3.1Q231.43-2.6 232.03-2.38 232.63-2.15 233.58-2.05L233.58-2.05Q236.63-1.8 238.98-1.2 241.33-0.6 242.65 0.73 243.98 2.05 243.98 4.5L243.98 4.5Q243.98 7.35 242.3 9.43 240.63 11.5 237.83 12.65 235.03 13.8 231.73 13.8ZM233.63-8.55L233.63-8.55Q235.93-8.55 237.23-9.8 238.53-11.05 238.53-13.05L238.53-13.05Q238.53-13.6 238.43-14.18 238.33-14.75 238.23-15.15L238.23-15.15Q237.43-15.4 236.68-15.48 235.93-15.55 235.23-15.55L235.23-15.55Q232.58-15.55 231.08-14.55 229.58-13.55 229.58-11.8L229.58-11.8Q229.58-10.25 230.68-9.4 231.78-8.55 233.63-8.55ZM263.02 0.55L263.02 0.55Q262.32 0.55 261.82 0.23 261.32-0.1 261.42-0.65L261.42-0.65Q262.17-4.65 262.7-8.78 263.22-12.9 263.22-17.1L263.22-17.1Q263.22-20.8 262.97-23.8 262.72-26.8 261.37-29.55L261.37-29.55Q261.12-30.1 260.97-30.5 260.82-30.9 260.82-31.25L260.82-31.25Q260.82-32.2 261.95-33.1 263.07-34 264.32-34L264.32-34Q266.07-34 266.72-31.8 267.37-29.6 267.37-25.3L267.37-25.3Q267.37-20.15 266.77-16.32 266.17-12.5 265.72-10.5L265.72-10.5 265.92-10.4Q266.92-13.05 268.35-15.35 269.77-17.65 271.67-19.05 273.57-20.45 276.07-20.45L276.07-20.45Q278.72-20.45 280.1-18.85 281.47-17.25 281.47-14.9L281.47-14.9Q281.47-13.9 281.27-12.98 281.07-12.05 280.82-11.2L280.82-11.2Q280.57-10.4 280.37-9.58 280.17-8.75 280.17-7.9L280.17-7.9Q280.17-6.35 280.92-5.38 281.67-4.4 282.92-4L282.92-4Q283.27-3.9 283.45-3.73 283.62-3.55 283.62-3.1L283.62-3.1Q283.62-2.65 283.32-1.8 283.02-0.95 282.22-0.23 281.42 0.5 279.87 0.5L279.87 0.5Q277.87 0.5 276.77-0.93 275.67-2.35 275.67-4.6L275.67-4.6Q275.67-5.7 275.9-6.85 276.12-8 276.42-9.05L276.42-9.05Q276.67-10.1 276.87-11.03 277.07-11.95 277.07-12.6L277.07-12.6Q277.07-14.9 274.67-14.9L274.67-14.9Q272.67-14.9 271.15-13.48 269.62-12.05 268.55-9.88 267.47-7.7 266.77-5.4L266.77-5.4 266.77-3.7Q266.77-1.85 265.7-0.65 264.62 0.55 263.02 0.55ZM294.67 0.65L294.67 0.65Q290.87 0.65 288.75-1.53 286.62-3.7 286.62-7.6L286.62-7.6Q286.62-11.15 288.17-14.05 289.72-16.95 292.35-18.68 294.97-20.4 298.12-20.4L298.12-20.4Q301.12-20.4 302.92-18.93 304.72-17.45 304.72-15L304.72-15Q304.72-13.05 303.52-11.4 302.32-9.75 300.32-8.78 298.32-7.8 295.87-7.8L295.87-7.8Q292.87-7.8 290.97-9.15L290.97-9.15Q291.02-6.85 292.55-5.45 294.07-4.05 296.47-4.05L296.47-4.05Q297.92-4.05 299.45-4.58 300.97-5.1 302.07-6L302.07-6Q302.77-6.6 303.37-6.6L303.37-6.6Q303.87-6.6 304.2-6.28 304.52-5.95 304.52-5.45L304.52-5.45Q304.52-4.35 302.62-2.55L302.62-2.55Q299.27 0.65 294.67 0.65ZM295.42-11.1L295.42-11.1Q297.22-11.1 298.42-11.85 299.62-12.6 299.62-13.75L299.62-13.75Q299.62-14.7 298.82-15.23 298.02-15.75 296.62-15.75L296.62-15.75Q294.77-15.75 293.4-14.78 292.02-13.8 291.42-12.05L291.42-12.05Q292.12-11.6 293.22-11.35 294.32-11.1 295.42-11.1ZM314.77 0.65L314.77 0.65Q311.77 0.65 309.94-1.23 308.12-3.1 308.12-6.6L308.12-6.6Q308.12-9.1 309.09-11.58 310.07-14.05 311.92-16.05 313.77-18.05 316.37-19.25 318.97-20.45 322.22-20.45L322.22-20.45Q325.22-20.45 327.34-19.43 329.47-18.4 329.47-16.65L329.47-16.65Q329.47-16.2 329.37-15.48 329.27-14.75 329.12-14.3L329.12-14.3Q328.97-13.9 328.69-13.58 328.42-13.25 327.97-13.25L327.97-13.25Q327.77-13.25 327.22-13.4L327.22-13.4Q327.02-12.35 326.92-11.35 326.82-10.35 326.82-9.35L326.82-9.35Q326.82-7.45 327.39-5.98 327.97-4.5 329.67-4.15L329.67-4.15Q330.12-4.05 330.39-3.85 330.67-3.65 330.67-3L330.67-3Q330.67-2.45 330.39-1.6 330.12-0.75 329.34-0.08 328.57 0.6 327.12 0.6L327.12 0.6Q325.17 0.6 324.12-0.83 323.07-2.25 323.07-4.9L323.07-4.9Q321.72-2.45 319.64-0.9 317.57 0.65 314.77 0.65ZM316.37-4.55L316.37-4.55Q318.37-4.55 319.89-5.8 321.42-7.05 322.27-8.95L322.27-8.95Q322.82-10.15 323.12-11.58 323.42-13 323.52-14.4L323.52-14.4Q322.67-14.8 321.57-15.05 320.47-15.3 319.27-15.3L319.27-15.3Q316.22-15.3 314.24-13.5 312.27-11.7 312.27-9L312.27-9Q312.27-7 313.37-5.78 314.47-4.55 316.37-4.55ZM337.47 0.5L337.47 0.5Q336.02 0.5 335.32-0.3 334.62-1.1 334.62-3.1L334.62-3.1Q334.62-4.05 334.77-5.55 334.92-7.05 335.12-8.8L335.12-8.8Q335.42-10.95 335.64-13.3 335.87-15.65 335.87-17.8L335.87-17.8Q335.87-20.85 335.59-24.13 335.32-27.4 334.07-29.85L334.07-29.85Q333.62-30.85 333.62-31.3L333.62-31.3Q333.62-31.95 334.19-32.55 334.77-33.15 335.62-33.58 336.47-34 337.27-34L337.27-34Q338.57-34 339.22-32.83 339.87-31.65 340.07-29.63 340.27-27.6 340.27-25L340.27-25Q340.27-21.05 339.94-18.15 339.62-15.25 339.32-13.05L339.32-13.05Q339.12-11.6 338.94-10.3 338.77-9 338.77-7.95L338.77-7.95Q338.77-6.2 339.34-5.43 339.92-4.65 341.22-3.9L341.22-3.9Q341.57-3.7 341.74-3.53 341.92-3.35 341.92-3L341.92-3Q341.92-2.6 341.52-1.75 341.12-0.9 340.14-0.2 339.17 0.5 337.47 0.5ZM352.46 0.65L352.46 0.65Q349.41 0.65 348.09-1.38 346.76-3.4 346.76-6.6L346.76-6.6Q346.76-7.75 346.89-8.85 347.01-9.95 347.16-11.05L347.16-11.05Q347.31-12.15 347.46-13.2 347.61-14.25 347.71-15.2L347.71-15.2Q346.66-14.9 345.61-14.9L345.61-14.9Q344.51-14.9 344.51-15.8L344.51-15.8Q344.51-16.75 345.36-18.13 346.21-19.5 347.49-20.85 348.76-22.2 350.04-23.13 351.31-24.05 352.21-24.05L352.21-24.05Q353.31-24.05 353.31-22.15L353.31-22.15Q353.31-21.65 353.24-21.13 353.16-20.6 353.06-20.05L353.06-20.05Q354.01-20.25 354.99-20.4 355.96-20.55 356.86-20.55L356.86-20.55Q358.01-20.55 358.64-20.15 359.26-19.75 359.26-18.6L359.26-18.6Q359.26-17.4 358.69-16.2 358.11-15 357.41-15L357.41-15Q357.26-15 356.91-15.05 356.56-15.1 356.06-15.2L356.06-15.2Q355.41-15.35 354.41-15.5 353.41-15.65 352.01-15.65L352.01-15.65Q351.66-14.1 351.39-12.48 351.11-10.85 351.11-9.55L351.11-9.55Q351.11-6.65 352.56-5.6 354.01-4.55 356.76-4.55L356.76-4.55Q357.61-4.55 357.96-4.28 358.31-4 358.31-3.3L358.31-3.3Q358.31-1.65 356.61-0.5 354.91 0.65 352.46 0.65ZM363.46 0.55L363.46 0.55Q362.76 0.55 362.26 0.23 361.76-0.1 361.86-0.65L361.86-0.65Q362.61-4.65 363.14-8.78 363.66-12.9 363.66-17.1L363.66-17.1Q363.66-20.8 363.41-23.8 363.16-26.8 361.81-29.55L361.81-29.55Q361.56-30.1 361.41-30.5 361.26-30.9 361.26-31.25L361.26-31.25Q361.26-32.2 362.39-33.1 363.51-34 364.76-34L364.76-34Q366.51-34 367.16-31.8 367.81-29.6 367.81-25.3L367.81-25.3Q367.81-20.15 367.21-16.32 366.61-12.5 366.16-10.5L366.16-10.5 366.36-10.4Q367.36-13.05 368.79-15.35 370.21-17.65 372.11-19.05 374.01-20.45 376.51-20.45L376.51-20.45Q379.16-20.45 380.54-18.85 381.91-17.25 381.91-14.9L381.91-14.9Q381.91-13.9 381.71-12.98 381.51-12.05 381.26-11.2L381.26-11.2Q381.01-10.4 380.81-9.58 380.61-8.75 380.61-7.9L380.61-7.9Q380.61-6.35 381.36-5.38 382.11-4.4 383.36-4L383.36-4Q383.71-3.9 383.89-3.73 384.06-3.55 384.06-3.1L384.06-3.1Q384.06-2.65 383.76-1.8 383.46-0.95 382.66-0.23 381.86 0.5 380.31 0.5L380.31 0.5Q378.31 0.5 377.21-0.93 376.11-2.35 376.11-4.6L376.11-4.6Q376.11-5.7 376.34-6.85 376.56-8 376.86-9.05L376.86-9.05Q377.11-10.1 377.31-11.03 377.51-11.95 377.51-12.6L377.51-12.6Q377.51-14.9 375.11-14.9L375.11-14.9Q373.11-14.9 371.59-13.48 370.06-12.05 368.99-9.88 367.91-7.7 367.21-5.4L367.21-5.4 367.21-3.7Q367.21-1.85 366.14-0.65 365.06 0.55 363.46 0.55ZM388.31 7.75L388.31 7.75Q387.86 7.75 387.53 7.53 387.21 7.3 387.21 6.8L387.21 6.8Q387.21 6.1 388.31 5.25L388.31 5.25Q389.46 4.25 390.03 2.88 390.61 1.5 390.61 0.65L390.61 0.65Q390.61 0.3 390.43 0.08 390.26-0.15 389.56-0.5L389.56-0.5Q388.91-0.85 388.58-1.55 388.26-2.25 388.26-2.95L388.26-2.95Q388.26-4.15 389.16-5.13 390.06-6.1 391.61-6.1L391.61-6.1Q393.01-6.1 393.91-5.18 394.81-4.25 394.81-2.2L394.81-2.2Q394.81-0.5 394.18 1.2 393.56 2.9 392.66 4.3 391.76 5.7 390.81 6.55L390.81 6.55Q389.46 7.75 388.31 7.75ZM417.6 0.65L417.6 0.65Q414.15 0.65 412.08-1.23 410-3.1 410-6.75L410-6.75Q410-8.45 410.48-10.05 410.95-11.65 411.75-13.05L411.75-13.05Q410.95-12.55 410.55-12.55L410.55-12.55Q409.95-12.55 409.73-13.23 409.5-13.9 409.5-14.55L409.5-14.55Q409.5-15.7 409.98-16.38 410.45-17.05 410.9-17.4L410.9-17.4Q411.95-18.3 414.2-19.38 416.45-20.45 419.6-20.45L419.6-20.45Q423.9-20.45 426.28-18.05 428.65-15.65 428.65-11.35L428.65-11.35Q428.65-8 427.25-5.28 425.85-2.55 423.38-0.95 420.9 0.65 417.6 0.65ZM419.15-4.45L419.15-4.45Q421.65-4.45 423.38-6.03 425.1-7.6 425.1-10.2L425.1-10.2Q425.1-12.9 423.35-14.05 421.6-15.2 419.3-15.2L419.3-15.2Q418.25-15.2 417.4-15 416.55-14.8 415.8-14.5L415.8-14.5Q415.1-13.5 414.55-12.25 414-11 414-9.5L414-9.5Q414-7 415.5-5.73 417-4.45 419.15-4.45ZM435.3 0.55L435.3 0.55Q433.5 0.55 433.7-0.65L433.7-0.65Q434.25-2.8 434.63-5.03 435-7.25 435-9.3L435-9.3Q435-11.95 434.68-13.18 434.35-14.4 433.8-14.88 433.25-15.35 432.45-15.6L432.45-15.6Q432.1-15.75 431.83-16 431.55-16.25 431.55-16.7L431.55-16.7Q431.55-17.4 432.1-18.25 432.65-19.1 433.68-19.73 434.7-20.35 436-20.35L436-20.35Q437.7-20.35 438.35-19.18 439-18 439-16.1L439-16.1Q439-14.85 438.75-13.3 438.5-11.75 438.25-10.5L438.25-10.5 438.4-10.45Q439.4-13.1 440.83-15.38 442.25-17.65 444.15-19.05 446.05-20.45 448.55-20.45L448.55-20.45Q451.2-20.45 452.6-18.85 454-17.25 454-14.85L454-14.85Q454-13.85 453.78-12.95 453.55-12.05 453.3-11.2L453.3-11.2Q453.05-10.4 452.88-9.55 452.7-8.7 452.7-7.85L452.7-7.85Q452.7-5 455.4-4L455.4-4Q456.1-3.7 456.1-3.1L456.1-3.1Q456.1-2.65 455.8-1.8 455.5-0.95 454.7-0.23 453.9 0.5 452.35 0.5L452.35 0.5Q450.35 0.5 449.25-0.93 448.15-2.35 448.15-4.55L448.15-4.55Q448.15-5.8 448.43-7.08 448.7-8.35 449-9.45L449-9.45Q449.2-10.3 449.38-11.13 449.55-11.95 449.55-12.6L449.55-12.6Q449.55-14.9 447.15-14.9L447.15-14.9Q445.1-14.9 443.55-13.38 442-11.85 440.9-9.55 439.8-7.25 439.1-4.9L439.1-4.9 439.1-3.7Q439.1-1.85 438.08-0.65 437.05 0.55 435.3 0.55ZM467.15 0.65L467.15 0.65Q463.35 0.65 461.22-1.53 459.1-3.7 459.1-7.6L459.1-7.6Q459.1-11.15 460.65-14.05 462.2-16.95 464.82-18.68 467.45-20.4 470.6-20.4L470.6-20.4Q473.6-20.4 475.4-18.93 477.2-17.45 477.2-15L477.2-15Q477.2-13.05 476-11.4 474.8-9.75 472.8-8.78 470.8-7.8 468.35-7.8L468.35-7.8Q465.35-7.8 463.45-9.15L463.45-9.15Q463.5-6.85 465.02-5.45 466.55-4.05 468.95-4.05L468.95-4.05Q470.4-4.05 471.92-4.58 473.45-5.1 474.55-6L474.55-6Q475.25-6.6 475.85-6.6L475.85-6.6Q476.35-6.6 476.67-6.28 477-5.95 477-5.45L477-5.45Q477-4.35 475.1-2.55L475.1-2.55Q471.75 0.65 467.15 0.65ZM467.9-11.1L467.9-11.1Q469.7-11.1 470.9-11.85 472.1-12.6 472.1-13.75L472.1-13.75Q472.1-14.7 471.3-15.23 470.5-15.75 469.1-15.75L469.1-15.75Q467.25-15.75 465.87-14.78 464.5-13.8 463.9-12.05L463.9-12.05Q464.6-11.6 465.7-11.35 466.8-11.1 467.9-11.1ZM498.74-24.85L498.74-24.85Q497.34-24.9 496.49-25.7 495.64-26.5 495.64-27.95L495.64-27.95Q495.69-29.5 496.69-30.48 497.69-31.45 499.24-31.4L499.24-31.4Q500.69-31.35 501.52-30.55 502.34-29.75 502.29-28.3L502.29-28.3Q502.24-26.8 501.29-25.83 500.34-24.85 498.74-24.85ZM498.79 0.5L498.79 0.5Q497.29 0.5 496.44-0.33 495.59-1.15 495.59-3.15L495.59-3.15Q495.59-4.3 495.82-5.4 496.04-6.5 496.34-7.55L496.34-7.55Q496.69-8.65 496.92-9.8 497.14-10.95 497.14-12.25L497.14-12.25Q497.14-13.15 496.89-13.98 496.64-14.8 495.79-15.2L495.79-15.2Q495.14-15.55 494.67-15.93 494.19-16.3 494.19-16.9L494.19-16.9Q494.19-17.6 494.84-18.4 495.49-19.2 496.57-19.78 497.64-20.35 498.79-20.35L498.79-20.35Q500.04-20.35 500.62-19.7 501.19-19.05 501.39-18.05 501.59-17.05 501.59-16L501.59-16Q501.59-14.4 501.34-12.88 501.09-11.35 500.84-10.05L500.84-10.05Q500.64-9.1 500.54-8.3 500.44-7.5 500.44-6.8L500.44-6.8Q500.44-5.55 501.04-4.93 501.64-4.3 502.74-3.75L502.74-3.75Q503.19-3.5 503.19-3L503.19-3Q503.19-2.6 502.79-1.75 502.39-0.9 501.42-0.2 500.44 0.5 498.79 0.5ZM509.74 0.55L509.74 0.55Q507.94 0.55 508.14-0.65L508.14-0.65Q508.69-2.8 509.07-5.03 509.44-7.25 509.44-9.3L509.44-9.3Q509.44-11.95 509.12-13.18 508.79-14.4 508.24-14.88 507.69-15.35 506.89-15.6L506.89-15.6Q506.54-15.75 506.27-16 505.99-16.25 505.99-16.7L505.99-16.7Q505.99-17.4 506.54-18.25 507.09-19.1 508.12-19.73 509.14-20.35 510.44-20.35L510.44-20.35Q512.14-20.35 512.79-19.18 513.44-18 513.44-16.1L513.44-16.1Q513.44-14.85 513.19-13.3 512.94-11.75 512.69-10.5L512.69-10.5 512.84-10.45Q513.84-13.1 515.27-15.38 516.69-17.65 518.59-19.05 520.49-20.45 522.99-20.45L522.99-20.45Q525.64-20.45 527.04-18.85 528.44-17.25 528.44-14.85L528.44-14.85Q528.44-13.85 528.22-12.95 527.99-12.05 527.74-11.2L527.74-11.2Q527.49-10.4 527.32-9.55 527.14-8.7 527.14-7.85L527.14-7.85Q527.14-5 529.84-4L529.84-4Q530.54-3.7 530.54-3.1L530.54-3.1Q530.54-2.65 530.24-1.8 529.94-0.95 529.14-0.23 528.34 0.5 526.79 0.5L526.79 0.5Q524.79 0.5 523.69-0.93 522.59-2.35 522.59-4.55L522.59-4.55Q522.59-5.8 522.87-7.08 523.14-8.35 523.44-9.45L523.44-9.45Q523.64-10.3 523.82-11.13 523.99-11.95 523.99-12.6L523.99-12.6Q523.99-14.9 521.59-14.9L521.59-14.9Q519.54-14.9 517.99-13.38 516.44-11.85 515.34-9.55 514.24-7.25 513.54-4.9L513.54-4.9 513.54-3.7Q513.54-1.85 512.52-0.65 511.49 0.55 509.74 0.55ZM540.34 0.65L540.34 0.65Q538.49 0.65 536.89 0.1 535.29-0.45 534.29-1.45 533.29-2.45 533.29-3.85L533.29-3.85Q533.29-4.6 533.66-5.28 534.04-5.95 534.89-5.95L534.89-5.95Q535.34-5.95 535.84-5.7L535.84-5.7Q536.74-5.2 538.14-4.78 539.54-4.35 541.09-4.35L541.09-4.35Q542.84-4.35 544.19-4.85 545.54-5.35 545.54-6.25L545.54-6.25Q545.54-6.95 544.51-7.25 543.49-7.55 541.09-7.9L541.09-7.9Q539.44-8.2 537.89-8.6 536.34-9 535.34-9.98 534.34-10.95 534.34-12.85L534.34-12.85Q534.34-14.7 535.36-16.43 536.39-18.15 538.44-19.3 540.49-20.45 543.44-20.45L543.44-20.45Q544.99-20.45 546.44-20.1 547.89-19.75 548.84-19.05 549.79-18.35 549.79-17.3L549.79-17.3Q549.79-16.4 549.16-15.65 548.54-14.9 547.71-14.43 546.89-13.95 546.34-13.95L546.34-13.95Q545.94-13.95 545.39-14.5L545.39-14.5Q544.54-15.2 543.51-15.48 542.49-15.75 541.49-15.75L541.49-15.75Q539.99-15.75 539.06-15.3 538.14-14.85 538.14-14.15L538.14-14.15Q538.14-13.5 538.91-13.1 539.69-12.7 540.84-12.53 541.99-12.35 543.04-12.2L543.04-12.2Q545.94-11.8 547.64-10.83 549.34-9.85 549.34-7.4L549.34-7.4Q549.34-5.5 548.26-3.63 547.19-1.75 545.16-0.55 543.14 0.65 540.34 0.65ZM557.83-24.85L557.83-24.85Q556.43-24.9 555.58-25.7 554.73-26.5 554.73-27.95L554.73-27.95Q554.78-29.5 555.78-30.48 556.78-31.45 558.33-31.4L558.33-31.4Q559.78-31.35 560.61-30.55 561.43-29.75 561.38-28.3L561.38-28.3Q561.33-26.8 560.38-25.83 559.43-24.85 557.83-24.85ZM557.88 0.5L557.88 0.5Q556.38 0.5 555.53-0.33 554.68-1.15 554.68-3.15L554.68-3.15Q554.68-4.3 554.91-5.4 555.13-6.5 555.43-7.55L555.43-7.55Q555.78-8.65 556.01-9.8 556.23-10.95 556.23-12.25L556.23-12.25Q556.23-13.15 555.98-13.98 555.73-14.8 554.88-15.2L554.88-15.2Q554.23-15.55 553.76-15.93 553.28-16.3 553.28-16.9L553.28-16.9Q553.28-17.6 553.93-18.4 554.58-19.2 555.66-19.78 556.73-20.35 557.88-20.35L557.88-20.35Q559.13-20.35 559.71-19.7 560.28-19.05 560.48-18.05 560.68-17.05 560.68-16L560.68-16Q560.68-14.4 560.43-12.88 560.18-11.35 559.93-10.05L559.93-10.05Q559.73-9.1 559.63-8.3 559.53-7.5 559.53-6.8L559.53-6.8Q559.53-5.55 560.13-4.93 560.73-4.3 561.83-3.75L561.83-3.75Q562.28-3.5 562.28-3L562.28-3Q562.28-2.6 561.88-1.75 561.48-0.9 560.51-0.2 559.53 0.5 557.88 0.5ZM572.53 13.8L572.53 13.8Q568.78 13.8 566.58 12.25 564.38 10.7 564.38 8.25L564.38 8.25Q564.38 6.45 565.51 5.05 566.63 3.65 568.48 3.65L568.48 3.65Q569.53 3.65 569.53 4.25L569.53 4.25Q569.53 4.6 569.41 5.05 569.28 5.5 569.28 5.95L569.28 5.95Q569.28 7.35 570.88 8.03 572.48 8.7 574.73 8.7L574.73 8.7Q576.13 8.7 577.58 8.4 579.03 8.1 580.01 7.48 580.98 6.85 580.98 5.8L580.98 5.8Q580.98 4.65 579.83 4.1 578.68 3.55 576.93 3.28 575.18 3 573.36 2.78 571.53 2.55 570.23 2.05L570.23 2.05Q568.58 1.5 567.78 0.7 566.98-0.1 566.98-1.35L566.98-1.35Q566.98-3.7 569.83-5.1L569.83-5.1Q568.18-5.95 567.36-7.5 566.53-9.05 566.53-10.95L566.53-10.95Q566.53-13.4 567.81-15.55 569.08-17.7 571.61-19.07 574.13-20.45 577.93-20.45L577.93-20.45Q579.63-20.45 581.38-20.13 583.13-19.8 584.31-18.93 585.48-18.05 585.48-16.4L585.48-16.4Q585.48-15.8 585.23-15.08 584.98-14.35 584.28-14.35L584.28-14.35Q583.98-14.35 583.48-14.48 582.98-14.6 582.58-14.7L582.58-14.7Q582.68-14.2 582.76-13.6 582.83-13 582.83-12.35L582.83-12.35Q582.83-9.4 580.83-7.03 578.83-4.65 574.98-4.2L574.98-4.2Q573.58-4.1 572.91-3.88 572.23-3.65 572.23-3.1L572.23-3.1Q572.23-2.6 572.83-2.38 573.43-2.15 574.38-2.05L574.38-2.05Q577.43-1.8 579.78-1.2 582.13-0.6 583.46 0.73 584.78 2.05 584.78 4.5L584.78 4.5Q584.78 7.35 583.11 9.43 581.43 11.5 578.63 12.65 575.83 13.8 572.53 13.8ZM574.43-8.55L574.43-8.55Q576.73-8.55 578.03-9.8 579.33-11.05 579.33-13.05L579.33-13.05Q579.33-13.6 579.23-14.18 579.13-14.75 579.03-15.15L579.03-15.15Q578.23-15.4 577.48-15.48 576.73-15.55 576.03-15.55L576.03-15.55Q573.38-15.55 571.88-14.55 570.38-13.55 570.38-11.8L570.38-11.8Q570.38-10.25 571.48-9.4 572.58-8.55 574.43-8.55ZM590.08 0.55L590.08 0.55Q589.38 0.55 588.88 0.23 588.38-0.1 588.48-0.65L588.48-0.65Q589.23-4.65 589.75-8.78 590.28-12.9 590.28-17.1L590.28-17.1Q590.28-20.8 590.03-23.8 589.78-26.8 588.43-29.55L588.43-29.55Q588.18-30.1 588.03-30.5 587.88-30.9 587.88-31.25L587.88-31.25Q587.88-32.2 589-33.1 590.13-34 591.38-34L591.38-34Q593.13-34 593.78-31.8 594.43-29.6 594.43-25.3L594.43-25.3Q594.43-20.15 593.83-16.32 593.23-12.5 592.78-10.5L592.78-10.5 592.98-10.4Q593.98-13.05 595.4-15.35 596.83-17.65 598.73-19.05 600.63-20.45 603.13-20.45L603.13-20.45Q605.78-20.45 607.15-18.85 608.53-17.25 608.53-14.9L608.53-14.9Q608.53-13.9 608.33-12.98 608.13-12.05 607.88-11.2L607.88-11.2Q607.63-10.4 607.43-9.58 607.23-8.75 607.23-7.9L607.23-7.9Q607.23-6.35 607.98-5.38 608.73-4.4 609.98-4L609.98-4Q610.33-3.9 610.5-3.73 610.68-3.55 610.68-3.1L610.68-3.1Q610.68-2.65 610.38-1.8 610.08-0.95 609.28-0.23 608.48 0.5 606.93 0.5L606.93 0.5Q604.93 0.5 603.83-0.93 602.73-2.35 602.73-4.6L602.73-4.6Q602.73-5.7 602.95-6.85 603.18-8 603.48-9.05L603.48-9.05Q603.73-10.1 603.93-11.03 604.13-11.95 604.13-12.6L604.13-12.6Q604.13-14.9 601.73-14.9L601.73-14.9Q599.73-14.9 598.2-13.48 596.68-12.05 595.6-9.88 594.53-7.7 593.83-5.4L593.83-5.4 593.83-3.7Q593.83-1.85 592.75-0.65 591.68 0.55 590.08 0.55ZM621.18 0.65L621.18 0.65Q618.13 0.65 616.8-1.38 615.48-3.4 615.48-6.6L615.48-6.6Q615.48-7.75 615.6-8.85 615.73-9.95 615.88-11.05L615.88-11.05Q616.03-12.15 616.18-13.2 616.33-14.25 616.43-15.2L616.43-15.2Q615.38-14.9 614.33-14.9L614.33-14.9Q613.23-14.9 613.23-15.8L613.23-15.8Q613.23-16.75 614.08-18.13 614.93-19.5 616.2-20.85 617.48-22.2 618.75-23.13 620.03-24.05 620.93-24.05L620.93-24.05Q622.03-24.05 622.03-22.15L622.03-22.15Q622.03-21.65 621.95-21.13 621.88-20.6 621.78-20.05L621.78-20.05Q622.73-20.25 623.7-20.4 624.68-20.55 625.58-20.55L625.58-20.55Q626.73-20.55 627.35-20.15 627.98-19.75 627.98-18.6L627.98-18.6Q627.98-17.4 627.4-16.2 626.83-15 626.13-15L626.13-15Q625.98-15 625.63-15.05 625.28-15.1 624.78-15.2L624.78-15.2Q624.13-15.35 623.13-15.5 622.13-15.65 620.73-15.65L620.73-15.65Q620.38-14.1 620.1-12.48 619.83-10.85 619.83-9.55L619.83-9.55Q619.83-6.65 621.28-5.6 622.73-4.55 625.48-4.55L625.48-4.55Q626.33-4.55 626.68-4.28 627.03-4 627.03-3.3L627.03-3.3Q627.03-1.65 625.33-0.5 623.63 0.65 621.18 0.65ZM650.32 0.65L650.32 0.65Q647.32 0.65 645.5-1.23 643.67-3.1 643.67-6.6L643.67-6.6Q643.67-9.1 644.65-11.58 645.62-14.05 647.47-16.05 649.32-18.05 651.92-19.25 654.52-20.45 657.77-20.45L657.77-20.45Q660.77-20.45 662.9-19.43 665.02-18.4 665.02-16.65L665.02-16.65Q665.02-16.2 664.92-15.48 664.82-14.75 664.67-14.3L664.67-14.3Q664.52-13.9 664.25-13.58 663.97-13.25 663.52-13.25L663.52-13.25Q663.32-13.25 662.77-13.4L662.77-13.4Q662.57-12.35 662.47-11.35 662.37-10.35 662.37-9.35L662.37-9.35Q662.37-7.45 662.95-5.98 663.52-4.5 665.22-4.15L665.22-4.15Q665.67-4.05 665.95-3.85 666.22-3.65 666.22-3L666.22-3Q666.22-2.45 665.95-1.6 665.67-0.75 664.9-0.08 664.12 0.6 662.67 0.6L662.67 0.6Q660.72 0.6 659.67-0.83 658.62-2.25 658.62-4.9L658.62-4.9Q657.27-2.45 655.2-0.9 653.12 0.65 650.32 0.65ZM651.92-4.55L651.92-4.55Q653.92-4.55 655.45-5.8 656.97-7.05 657.82-8.95L657.82-8.95Q658.37-10.15 658.67-11.58 658.97-13 659.07-14.4L659.07-14.4Q658.22-14.8 657.12-15.05 656.02-15.3 654.82-15.3L654.82-15.3Q651.77-15.3 649.8-13.5 647.82-11.7 647.82-9L647.82-9Q647.82-7 648.92-5.78 650.02-4.55 651.92-4.55ZM676.62 0.65L676.62 0.65Q673.57 0.65 672.24-1.38 670.92-3.4 670.92-6.6L670.92-6.6Q670.92-7.75 671.04-8.85 671.17-9.95 671.32-11.05L671.32-11.05Q671.47-12.15 671.62-13.2 671.77-14.25 671.87-15.2L671.87-15.2Q670.82-14.9 669.77-14.9L669.77-14.9Q668.67-14.9 668.67-15.8L668.67-15.8Q668.67-16.75 669.52-18.13 670.37-19.5 671.64-20.85 672.92-22.2 674.19-23.13 675.47-24.05 676.37-24.05L676.37-24.05Q677.47-24.05 677.47-22.15L677.47-22.15Q677.47-21.65 677.39-21.13 677.32-20.6 677.22-20.05L677.22-20.05Q678.17-20.25 679.14-20.4 680.12-20.55 681.02-20.55L681.02-20.55Q682.17-20.55 682.79-20.15 683.42-19.75 683.42-18.6L683.42-18.6Q683.42-17.4 682.84-16.2 682.27-15 681.57-15L681.57-15Q681.42-15 681.07-15.05 680.72-15.1 680.22-15.2L680.22-15.2Q679.57-15.35 678.57-15.5 677.57-15.65 676.17-15.65L676.17-15.65Q675.82-14.1 675.54-12.48 675.27-10.85 675.27-9.55L675.27-9.55Q675.27-6.65 676.72-5.6 678.17-4.55 680.92-4.55L680.92-4.55Q681.77-4.55 682.12-4.28 682.47-4 682.47-3.3L682.47-3.3Q682.47-1.65 680.77-0.5 679.07 0.65 676.62 0.65ZM705.76 0.65L705.76 0.65Q702.76 0.65 700.94-1.23 699.11-3.1 699.11-6.6L699.11-6.6Q699.11-9.1 700.09-11.58 701.06-14.05 702.91-16.05 704.76-18.05 707.36-19.25 709.96-20.45 713.21-20.45L713.21-20.45Q716.21-20.45 718.34-19.43 720.46-18.4 720.46-16.65L720.46-16.65Q720.46-16.2 720.36-15.48 720.26-14.75 720.11-14.3L720.11-14.3Q719.96-13.9 719.69-13.58 719.41-13.25 718.96-13.25L718.96-13.25Q718.76-13.25 718.21-13.4L718.21-13.4Q718.01-12.35 717.91-11.35 717.81-10.35 717.81-9.35L717.81-9.35Q717.81-7.45 718.39-5.98 718.96-4.5 720.66-4.15L720.66-4.15Q721.11-4.05 721.39-3.85 721.66-3.65 721.66-3L721.66-3Q721.66-2.45 721.39-1.6 721.11-0.75 720.34-0.08 719.56 0.6 718.11 0.6L718.11 0.6Q716.16 0.6 715.11-0.83 714.06-2.25 714.06-4.9L714.06-4.9Q712.71-2.45 710.64-0.9 708.56 0.65 705.76 0.65ZM707.36-4.55L707.36-4.55Q709.36-4.55 710.89-5.8 712.41-7.05 713.26-8.95L713.26-8.95Q713.81-10.15 714.11-11.58 714.41-13 714.51-14.4L714.51-14.4Q713.66-14.8 712.56-15.05 711.46-15.3 710.26-15.3L710.26-15.3Q707.21-15.3 705.24-13.5 703.26-11.7 703.26-9L703.26-9Q703.26-7 704.36-5.78 705.46-4.55 707.36-4.55ZM745.56 0.65L745.56 0.65Q742.51 0.65 741.18-1.38 739.86-3.4 739.86-6.6L739.86-6.6Q739.86-7.75 739.98-8.85 740.11-9.95 740.26-11.05L740.26-11.05Q740.41-12.15 740.56-13.2 740.71-14.25 740.81-15.2L740.81-15.2Q739.76-14.9 738.71-14.9L738.71-14.9Q737.61-14.9 737.61-15.8L737.61-15.8Q737.61-16.75 738.46-18.13 739.31-19.5 740.58-20.85 741.86-22.2 743.13-23.13 744.41-24.05 745.31-24.05L745.31-24.05Q746.41-24.05 746.41-22.15L746.41-22.15Q746.41-21.65 746.33-21.13 746.26-20.6 746.16-20.05L746.16-20.05Q747.11-20.25 748.08-20.4 749.06-20.55 749.96-20.55L749.96-20.55Q751.11-20.55 751.73-20.15 752.36-19.75 752.36-18.6L752.36-18.6Q752.36-17.4 751.78-16.2 751.21-15 750.51-15L750.51-15Q750.36-15 750.01-15.05 749.66-15.1 749.16-15.2L749.16-15.2Q748.51-15.35 747.51-15.5 746.51-15.65 745.11-15.65L745.11-15.65Q744.76-14.1 744.48-12.48 744.21-10.85 744.21-9.55L744.21-9.55Q744.21-6.65 745.66-5.6 747.11-4.55 749.86-4.55L749.86-4.55Q750.71-4.55 751.06-4.28 751.41-4 751.41-3.3L751.41-3.3Q751.41-1.65 749.71-0.5 748.01 0.65 745.56 0.65ZM759.21-24.85L759.21-24.85Q757.81-24.9 756.96-25.7 756.11-26.5 756.11-27.95L756.11-27.95Q756.16-29.5 757.16-30.48 758.16-31.45 759.71-31.4L759.71-31.4Q761.16-31.35 761.98-30.55 762.81-29.75 762.76-28.3L762.76-28.3Q762.71-26.8 761.76-25.83 760.81-24.85 759.21-24.85ZM759.26 0.5L759.26 0.5Q757.76 0.5 756.91-0.33 756.06-1.15 756.06-3.15L756.06-3.15Q756.06-4.3 756.28-5.4 756.51-6.5 756.81-7.55L756.81-7.55Q757.16-8.65 757.38-9.8 757.61-10.95 757.61-12.25L757.61-12.25Q757.61-13.15 757.36-13.98 757.11-14.8 756.26-15.2L756.26-15.2Q755.61-15.55 755.13-15.93 754.66-16.3 754.66-16.9L754.66-16.9Q754.66-17.6 755.31-18.4 755.96-19.2 757.03-19.78 758.11-20.35 759.26-20.35L759.26-20.35Q760.51-20.35 761.08-19.7 761.66-19.05 761.86-18.05 762.06-17.05 762.06-16L762.06-16Q762.06-14.4 761.81-12.88 761.56-11.35 761.31-10.05L761.31-10.05Q761.11-9.1 761.01-8.3 760.91-7.5 760.91-6.8L760.91-6.8Q760.91-5.55 761.51-4.93 762.11-4.3 763.21-3.75L763.21-3.75Q763.66-3.5 763.66-3L763.66-3Q763.66-2.6 763.26-1.75 762.86-0.9 761.88-0.2 760.91 0.5 759.26 0.5ZM770.2 0.55L770.2 0.55Q768.4 0.55 768.6-0.65L768.6-0.65Q769.15-2.8 769.53-5.03 769.9-7.25 769.9-9.3L769.9-9.3Q769.9-11.95 769.58-13.18 769.25-14.4 768.7-14.88 768.15-15.35 767.35-15.6L767.35-15.6Q767-15.75 766.73-16 766.45-16.25 766.45-16.7L766.45-16.7Q766.45-17.4 767-18.25 767.55-19.1 768.58-19.73 769.6-20.35 770.9-20.35L770.9-20.35Q772.6-20.35 773.25-19.18 773.9-18 773.9-16.1L773.9-16.1Q773.9-14.85 773.65-13.3 773.4-11.75 773.15-10.5L773.15-10.5 773.25-10.45Q774.05-13.1 775.23-15.35 776.4-17.6 778.08-19 779.75-20.4 781.95-20.4L781.95-20.4Q784.2-20.4 785.5-18.88 786.8-17.35 786.8-14.4L786.8-14.4 786.8-13.3Q788.25-16.35 790.33-18.4 792.4-20.45 795.35-20.45L795.35-20.45Q797.75-20.45 799.1-18.85 800.45-17.25 800.45-14.85L800.45-14.85Q800.45-13.9 800.25-13.03 800.05-12.15 799.8-11.3L799.8-11.3Q799.6-10.5 799.4-9.65 799.2-8.8 799.2-7.95L799.2-7.95Q799.2-4.95 801.75-4.05L801.75-4.05Q802.1-3.9 802.3-3.73 802.5-3.55 802.5-3.1L802.5-3.1Q802.5-2.65 802.23-1.8 801.95-0.95 801.15-0.23 800.35 0.5 798.85 0.5L798.85 0.5Q796.9 0.5 795.85-0.93 794.8-2.35 794.8-4.55L794.8-4.55Q794.8-5.65 795-6.85 795.2-8.05 795.5-9.15L795.5-9.15Q795.75-10.15 795.93-11.05 796.1-11.95 796.1-12.6L796.1-12.6Q796.1-13.8 795.53-14.35 794.95-14.9 794-14.9L794-14.9Q792.4-14.9 791.13-13.9 789.85-12.9 788.88-11.3 787.9-9.7 787.2-7.8L787.2-7.8Q787.25-7.35 787.28-6.63 787.3-5.9 787.3-5.35L787.3-5.35Q787.3-4.4 787.18-3.35 787.05-2.3 786.7-1.6L786.7-1.6Q786.3-0.65 785.53-0.05 784.75 0.55 783.45 0.55L783.45 0.55Q782.9 0.55 782.4 0.33 781.9 0.1 781.9-0.4L781.9-0.4Q781.9-0.6 782.2-2.18 782.5-3.75 782.8-6.05 783.1-8.35 783.1-10.55L783.1-10.55Q783.1-12.95 782.6-13.88 782.1-14.8 781.1-14.8L781.1-14.8Q779.85-14.8 778.73-13.75 777.6-12.7 776.68-11.05 775.75-9.4 775.08-7.6 774.4-5.8 774-4.25L774-4.25 774-3.7Q774-1.85 772.98-0.65 771.95 0.55 770.2 0.55ZM813.55 0.65L813.55 0.65Q809.75 0.65 807.63-1.53 805.5-3.7 805.5-7.6L805.5-7.6Q805.5-11.15 807.05-14.05 808.6-16.95 811.23-18.68 813.85-20.4 817-20.4L817-20.4Q820-20.4 821.8-18.93 823.6-17.45 823.6-15L823.6-15Q823.6-13.05 822.4-11.4 821.2-9.75 819.2-8.78 817.2-7.8 814.75-7.8L814.75-7.8Q811.75-7.8 809.85-9.15L809.85-9.15Q809.9-6.85 811.43-5.45 812.95-4.05 815.35-4.05L815.35-4.05Q816.8-4.05 818.33-4.58 819.85-5.1 820.95-6L820.95-6Q821.65-6.6 822.25-6.6L822.25-6.6Q822.75-6.6 823.08-6.28 823.4-5.95 823.4-5.45L823.4-5.45Q823.4-4.35 821.5-2.55L821.5-2.55Q818.15 0.65 813.55 0.65ZM814.3-11.1L814.3-11.1Q816.1-11.1 817.3-11.85 818.5-12.6 818.5-13.75L818.5-13.75Q818.5-14.7 817.7-15.23 816.9-15.75 815.5-15.75L815.5-15.75Q813.65-15.75 812.28-14.78 810.9-13.8 810.3-12.05L810.3-12.05Q811-11.6 812.1-11.35 813.2-11.1 814.3-11.1Z" opacity="1" transform="matrix(1,0,0,1,0,0)" fill="black" class="slogan-text-1" id="SvgjsPath4869" stroke-width="7" stroke="black" stroke-linejoin="round"></path></svg></g></svg></g></svg></g></svg></g></svg></g></svg></g></svg></g></mask><g transform="matrix(1,0,0,1,39.55199999999999,56.39490445001634)"><svg viewBox="0 0 316.416 134.4101910999673" height="134.4101910999673" width="316.416"><g><svg viewBox="0 0 316.416 134.4101910999673" height="134.4101910999673" width="316.416"><g><svg viewBox="0 0 316.416 134.4101910999673" height="134.4101910999673" width="316.416"><g><svg viewBox="0 0 316.416 134.4101910999673" height="134.4101910999673" width="316.416"><g id="textblocktransform"><svg viewBox="0 0 316.416 134.4101910999673" height="134.4101910999673" width="316.416" id="textblock"><g><svg viewBox="0 0 316.416 94.51601669422111" height="94.51601669422111" width="316.416"><g transform="matrix(1,0,0,1,0,0)"><svg width="316.416" viewBox="0.6900000000000004 -39.6 182.32 55.17" height="94.51601669422111" data-palette-color="#00ebff"><path d="M13.23 0L4.69 0 4.69-33.84 13.04-33.84Q20.85-33.84 24.9-29.44 28.96-25.05 28.96-17.04L28.96-17.04Q28.96-9.01 24.93-4.5 20.9 0 13.23 0L13.23 0ZM8.69-30.54L8.69-3.3 12.72-3.3Q18.77-3.3 21.78-6.95 24.78-10.6 24.78-17.04L24.78-17.04Q24.78-23.46 21.78-27 18.77-30.54 12.72-30.54L12.72-30.54 8.69-30.54ZM39.87 0L35.91 0 35.91-24.98 39.87-24.98 39.87 0ZM37.96-30.25L37.96-30.25Q36.77-30.25 36.03-30.99 35.3-31.74 35.3-32.98L35.3-32.98Q35.3-34.13 36.03-34.86 36.77-35.6 37.96-35.6L37.96-35.6Q39.16-35.6 39.89-34.86 40.62-34.13 40.62-32.98L40.62-32.98Q40.62-31.74 39.89-30.99 39.16-30.25 37.96-30.25ZM56.93 11.57L56.93 11.57Q52.29 11.57 49.43 9.83 46.58 8.08 46.58 4.83L46.58 4.83Q46.58 3.2 47.55 1.73 48.53 0.27 50.21-0.85L50.21-0.85 50.21-1.07Q49.31-1.64 48.66-2.65 48.02-3.66 48.02-5.15L48.02-5.15Q48.02-6.74 48.92-7.93 49.82-9.13 50.75-9.79L50.75-9.79 50.75-9.99Q49.51-10.96 48.53-12.71 47.55-14.45 47.55-16.67L47.55-16.67Q47.55-19.41 48.82-21.41 50.09-23.41 52.2-24.51 54.32-25.61 56.83-25.61L56.83-25.61Q57.88-25.61 58.77-25.43 59.66-25.24 60.32-24.98L60.32-24.98 69.04-24.98 69.04-21.95 63.79-21.95Q64.72-21.04 65.33-19.65 65.94-18.26 65.94-16.63L65.94-16.63Q65.94-13.96 64.73-12.01 63.52-10.06 61.46-9 59.39-7.93 56.83-7.93L56.83-7.93Q55.9-7.93 54.91-8.15 53.93-8.37 53.07-8.79L53.07-8.79Q52.39-8.23 51.9-7.52 51.41-6.81 51.41-5.76L51.41-5.76Q51.41-4.52 52.35-3.75 53.29-2.98 55.85-2.98L55.85-2.98 60.79-2.98Q65.13-2.98 67.29-1.54 69.45-0.1 69.45 2.98L69.45 2.98Q69.45 5.27 67.91 7.23 66.38 9.18 63.56 10.38 60.74 11.57 56.93 11.57ZM56.83-10.6L56.83-10.6Q59.08-10.6 60.71-12.24 62.35-13.89 62.35-16.67L62.35-16.67Q62.35-19.51 60.72-21.11 59.1-22.71 56.83-22.71L56.83-22.71Q54.54-22.71 52.95-21.11 51.36-19.51 51.36-16.67L51.36-16.67Q51.36-13.89 52.99-12.24 54.61-10.6 56.83-10.6ZM57.44 8.79L57.44 8.79Q59.91 8.79 61.71 8.03 63.52 7.28 64.52 6.08 65.52 4.88 65.52 3.54L65.52 3.54Q65.52 1.73 64.24 1.04 62.96 0.34 60.42 0.34L60.42 0.34 55.95 0.34Q55.27 0.34 54.41 0.26 53.56 0.17 52.7-0.05L52.7-0.05Q51.31 0.9 50.69 2.05 50.07 3.2 50.07 4.32L50.07 4.32Q50.07 6.37 52.02 7.58 53.97 8.79 57.44 8.79ZM78.29 0L74.33 0 74.33-24.98 78.29-24.98 78.29 0ZM76.38-30.25L76.38-30.25Q75.19-30.25 74.46-30.99 73.72-31.74 73.72-32.98L73.72-32.98Q73.72-34.13 74.46-34.86 75.19-35.6 76.38-35.6L76.38-35.6Q77.58-35.6 78.31-34.86 79.05-34.13 79.05-32.98L79.05-32.98Q79.05-31.74 78.31-30.99 77.58-30.25 76.38-30.25ZM99.99 0.61L99.99 0.61Q95.77 0.61 92.45-1.48 89.13-3.56 87.21-7.48 85.29-11.4 85.29-16.89L85.29-16.89Q85.29-22.34 87.23-26.27 89.17-30.2 92.56-32.34 95.94-34.47 100.23-34.47L100.23-34.47Q103.29-34.47 105.64-33.22 108-31.96 109.46-30.3L109.46-30.3 107.27-27.76Q105.95-29.2 104.21-30.05 102.48-30.91 100.31-30.91L100.31-30.91Q97.04-30.91 94.59-29.21 92.15-27.51 90.81-24.4 89.47-21.29 89.47-16.99L89.47-16.99Q89.47-12.67 90.77-9.51 92.08-6.35 94.47-4.64 96.87-2.93 100.14-2.93L100.14-2.93Q102.58-2.93 104.51-3.88 106.44-4.83 108.07-6.69L108.07-6.69 110.29-4.27Q108.29-1.9 105.76-0.65 103.24 0.61 99.99 0.61ZM122.03 0.61L122.03 0.61Q118.91 0.61 116.81-1.21 114.71-3.03 114.71-6.42L114.71-6.42Q114.71-10.52 118.43-12.72 122.16-14.92 130.19-15.82L130.19-15.82Q130.19-17.48 129.74-18.97 129.28-20.46 128.15-21.41 127.01-22.36 124.91-22.36L124.91-22.36Q122.69-22.36 120.75-21.51 118.81-20.65 117.35-19.73L117.35-19.73 115.81-22.36Q117.47-23.51 119.99-24.56 122.52-25.61 125.55-25.61L125.55-25.61Q130.11-25.61 132.13-22.8 134.14-20 134.14-15.41L134.14-15.41 134.14 0 130.85 0 130.53-3.03 130.38-3.03Q128.58-1.54 126.46-0.46 124.35 0.61 122.03 0.61ZM123.11-2.56L123.11-2.56Q124.99-2.56 126.64-3.44 128.28-4.32 130.19-5.96L130.19-5.96 130.19-13.18Q125.87-12.65 123.33-11.77 120.79-10.89 119.69-9.64 118.59-8.4 118.59-6.74L118.59-6.74Q118.59-4.52 119.91-3.54 121.23-2.56 123.11-2.56ZM146.08 0L142.12 0 142.12-24.98 145.42-24.98 145.79-20.46 145.88-20.46Q147.2-22.8 149.03-24.21 150.86-25.61 152.99-25.61L152.99-25.61Q154.6-25.61 155.62-25.1L155.62-25.1 154.75-21.73Q154.21-21.9 153.73-21.97 153.26-22.05 152.48-22.05L152.48-22.05Q150.89-22.05 149.13-20.74 147.37-19.43 146.08-16.16L146.08-16.16 146.08 0ZM169.83 0.61L169.83 0.61Q166.54 0.61 163.84-0.95 161.14-2.51 159.54-5.44 157.94-8.37 157.94-12.45L157.94-12.45Q157.94-16.53 159.54-19.48 161.14-22.44 163.7-24.02 166.27-25.61 169.12-25.61L169.12-25.61Q173.84-25.61 176.42-22.46 179.01-19.31 179.01-13.89L179.01-13.89Q179.01-12.52 178.86-11.57L178.86-11.57 161.85-11.57Q162.04-7.5 164.34-5 166.63-2.51 170.3-2.51L170.3-2.51Q172.17-2.51 173.74-3.02 175.3-3.52 176.64-4.42L176.64-4.42 178.03-1.95Q176.4-0.83 174.42-0.11 172.44 0.61 169.83 0.61ZM161.8-14.43L161.8-14.43 175.52-14.43Q175.52-18.36 173.86-20.41 172.2-22.46 169.17-22.46L169.17-22.46Q166.46-22.46 164.33-20.36 162.19-18.26 161.8-14.43Z" opacity="1" transform="matrix(1,0,0,1,0,0)" fill="#000000" class="wordmark-text-0" data-fill-palette-color="primary" id="text-0"></path></svg></g></svg></g><g transform="matrix(1,0,0,1,3.5,113.94552777246747)"><svg viewBox="0 0 309.416 20.46466332749985" height="20.46466332749985" width="309.416"><g transform="matrix(1,0,0,1,0,0)"><svg width="309.416" viewBox="-1.85 -38 829.45 55.800000000000004" height="20.46466332749985" data-palette-color="#00ebff"><path d="M12.2 0.65L12.2 0.65Q7.45 0.65 5.18-0.88 2.9-2.4 2.9-6.6L2.9-6.6Q2.9-7.45 3.03-8.65 3.15-9.85 3.4-11.55L3.4-11.55Q3.8-14 4-15.93 4.2-17.85 4.2-20.15L4.2-20.15Q4.2-21.65 4.13-23.05 4.05-24.45 3.85-25.7L3.85-25.7Q3.1-25.55 2.85-25.55L2.85-25.55Q2.45-25.55 2.3-25.73 2.15-25.9 2.15-26.4L2.15-26.4Q2.15-27.45 2.4-28.48 2.65-29.5 3.1-30.15L3.1-30.15Q3.95-31.35 5.7-31.55L5.7-31.55Q7.05-31.7 9.03-31.85 11-32 13.08-32.08 15.15-32.15 16.8-32.15L16.8-32.15Q21.4-32.15 22.25-31.95L22.25-31.95Q23.55-31.75 23.55-30.55L23.55-30.55Q23.55-29.05 22.5-27.8L22.5-27.8Q21.95-27.05 21.4-26.73 20.85-26.4 19.85-26.45L19.85-26.45Q17.65-26.6 16-26.65 14.35-26.7 13.7-26.7L13.7-26.7Q12.55-26.7 11.33-26.65 10.1-26.6 8.85-26.5L8.85-26.5Q8.85-24.75 8.7-22.75 8.55-20.75 8.3-18.55L8.3-18.55Q10.6-18.7 13.5-18.78 16.4-18.85 18.65-18.85L18.65-18.85Q19.65-18.85 20.03-18.65 20.4-18.45 20.4-17.6L20.4-17.6Q20.4-16.8 19.98-15.83 19.55-14.85 18.85-14.15L18.85-14.15Q18.55-13.85 18.2-13.68 17.85-13.5 17.25-13.55L17.25-13.55Q15.1-13.65 12.38-13.7 9.65-13.75 7.6-13.7L7.6-13.7Q7.4-12.55 7.3-11.6 7.2-10.65 7.2-9.9L7.2-9.9Q7.2-7.15 8.6-6.05 10-4.95 13.2-4.95L13.2-4.95Q15.15-4.95 16.98-5.3 18.8-5.65 20.7-6.6L20.7-6.6Q21.4-7 21.75-7L21.75-7Q22.3-7 22.83-6.23 23.35-5.45 23.35-4.55L23.35-4.55Q23.35-3.45 22.53-2.48 21.7-1.5 20.35-0.8L20.35-0.8Q18.8-0.1 16.65 0.28 14.5 0.65 12.2 0.65ZM29.45 0.55L29.45 0.55Q27.65 0.55 27.85-0.65L27.85-0.65Q28.4-2.8 28.77-5.03 29.15-7.25 29.15-9.3L29.15-9.3Q29.15-11.95 28.82-13.18 28.5-14.4 27.95-14.88 27.4-15.35 26.6-15.6L26.6-15.6Q26.25-15.75 25.97-16 25.7-16.25 25.7-16.7L25.7-16.7Q25.7-17.4 26.25-18.25 26.8-19.1 27.82-19.73 28.85-20.35 30.15-20.35L30.15-20.35Q31.85-20.35 32.5-19.18 33.15-18 33.15-16.1L33.15-16.1Q33.15-14.85 32.9-13.3 32.65-11.75 32.4-10.5L32.4-10.5 32.5-10.45Q33.3-13.1 34.47-15.35 35.65-17.6 37.32-19 39-20.4 41.2-20.4L41.2-20.4Q43.45-20.4 44.75-18.88 46.05-17.35 46.05-14.4L46.05-14.4 46.05-13.3Q47.5-16.35 49.57-18.4 51.65-20.45 54.6-20.45L54.6-20.45Q57-20.45 58.35-18.85 59.7-17.25 59.7-14.85L59.7-14.85Q59.7-13.9 59.5-13.03 59.3-12.15 59.05-11.3L59.05-11.3Q58.85-10.5 58.65-9.65 58.45-8.8 58.45-7.95L58.45-7.95Q58.45-4.95 61-4.05L61-4.05Q61.35-3.9 61.55-3.73 61.75-3.55 61.75-3.1L61.75-3.1Q61.75-2.65 61.47-1.8 61.2-0.95 60.4-0.23 59.6 0.5 58.1 0.5L58.1 0.5Q56.15 0.5 55.1-0.93 54.05-2.35 54.05-4.55L54.05-4.55Q54.05-5.65 54.25-6.85 54.45-8.05 54.75-9.15L54.75-9.15Q55-10.15 55.17-11.05 55.35-11.95 55.35-12.6L55.35-12.6Q55.35-13.8 54.77-14.35 54.2-14.9 53.25-14.9L53.25-14.9Q51.65-14.9 50.37-13.9 49.1-12.9 48.12-11.3 47.15-9.7 46.45-7.8L46.45-7.8Q46.5-7.35 46.52-6.63 46.55-5.9 46.55-5.35L46.55-5.35Q46.55-4.4 46.42-3.35 46.3-2.3 45.95-1.6L45.95-1.6Q45.55-0.65 44.77-0.05 44 0.55 42.7 0.55L42.7 0.55Q42.15 0.55 41.65 0.33 41.15 0.1 41.15-0.4L41.15-0.4Q41.15-0.6 41.45-2.18 41.75-3.75 42.05-6.05 42.35-8.35 42.35-10.55L42.35-10.55Q42.35-12.95 41.85-13.88 41.35-14.8 40.35-14.8L40.35-14.8Q39.1-14.8 37.97-13.75 36.85-12.7 35.92-11.05 35-9.4 34.32-7.6 33.65-5.8 33.25-4.25L33.25-4.25 33.25-3.7Q33.25-1.85 32.22-0.65 31.2 0.55 29.45 0.55ZM68.09 13.8L68.09 13.8Q66.59 13.8 65.75 12.98 64.89 12.15 64.89 10L64.89 10Q64.89 8.55 65.22 6.35 65.55 4.15 66 1.7L66 1.7Q66.34-0.25 66.67-2.4 67-4.55 67.22-6.63 67.45-8.7 67.45-10.35L67.45-10.35Q67.45-12.25 67.02-13.65 66.59-15.05 65.3-15.45L65.3-15.45Q64.8-15.65 64.39-15.9 64-16.15 64-16.7L64-16.7Q64-17.4 64.55-18.25 65.09-19.1 66.12-19.73 67.14-20.35 68.45-20.35L68.45-20.35Q70.14-20.35 70.8-19.18 71.45-18 71.45-16.1L71.45-16.1Q71.45-15.55 71.39-14.98 71.34-14.4 71.25-13.8L71.25-13.8Q72.7-16.6 75.07-18.53 77.45-20.45 80.45-20.45L80.45-20.45Q83.45-20.45 85.17-18.43 86.9-16.4 86.9-12.95L86.9-12.95Q86.9-10.4 86.09-7.98 85.3-5.55 83.84-3.6 82.4-1.65 80.37-0.5 78.34 0.65 75.84 0.65L75.84 0.65Q74.05 0.65 72.7 0.03 71.34-0.6 70.34-1.6L70.34-1.6Q70.14-0.3 69.97 1.55 69.8 3.4 69.8 5L69.8 5Q69.8 6.85 70.22 7.9 70.64 8.95 71.89 9.5L71.89 9.5Q72.45 9.75 72.45 10.3L72.45 10.3Q72.45 10.7 72.05 11.55 71.64 12.4 70.72 13.1 69.8 13.8 68.09 13.8ZM77-4.75L77-4.75Q79.84-4.75 81.4-6.55 82.95-8.35 82.95-10.7L82.95-10.7Q82.95-12.75 81.84-13.88 80.75-15 78.9-15L78.9-15Q77-15 75.55-13.88 74.09-12.75 73.07-10.95 72.05-9.15 71.39-7.1L71.39-7.1Q73.9-4.75 77-4.75ZM98.64 0.65L98.64 0.65Q95.19 0.65 93.12-1.23 91.04-3.1 91.04-6.75L91.04-6.75Q91.04-8.45 91.52-10.05 91.99-11.65 92.79-13.05L92.79-13.05Q91.99-12.55 91.59-12.55L91.59-12.55Q90.99-12.55 90.77-13.23 90.54-13.9 90.54-14.55L90.54-14.55Q90.54-15.7 91.02-16.38 91.49-17.05 91.94-17.4L91.94-17.4Q92.99-18.3 95.24-19.38 97.49-20.45 100.64-20.45L100.64-20.45Q104.94-20.45 107.32-18.05 109.69-15.65 109.69-11.35L109.69-11.35Q109.69-8 108.29-5.28 106.89-2.55 104.42-0.95 101.94 0.65 98.64 0.65ZM100.19-4.45L100.19-4.45Q102.69-4.45 104.42-6.03 106.14-7.6 106.14-10.2L106.14-10.2Q106.14-12.9 104.39-14.05 102.64-15.2 100.34-15.2L100.34-15.2Q99.29-15.2 98.44-15 97.59-14.8 96.84-14.5L96.84-14.5Q96.14-13.5 95.59-12.25 95.04-11 95.04-9.5L95.04-9.5Q95.04-7 96.54-5.73 98.04-4.45 100.19-4.45ZM120.14 0.7L120.14 0.7Q118.74 0.7 117.77-0.13 116.79-0.95 116.64-3.2L116.64-3.2Q116.54-4.9 116.22-7 115.89-9.1 115.44-10.95 114.99-12.8 114.39-13.75L114.39-13.75Q114.04-14.3 113.61-14.58 113.19-14.85 112.34-14.95L112.34-14.95Q111.44-15 111.44-16.25L111.44-16.25Q111.44-18.3 112.54-19.28 113.64-20.25 115.04-20.25L115.04-20.25Q116.54-20.25 117.49-19.28 118.44-18.3 118.97-16.68 119.49-15.05 119.72-13.05 119.94-11.05 119.94-9L119.94-9Q119.94-8.25 119.92-7.53 119.89-6.8 119.89-6.1L119.89-6.1Q119.89-5.6 120.09-5.28 120.29-4.95 121.09-4.95L121.09-4.95Q122.19-4.95 123.69-5.53 125.19-6.1 126.31-7.45 127.44-8.8 127.44-11.05L127.44-11.05Q127.44-12.2 127.09-12.98 126.74-13.75 126.14-14.45L126.14-14.45Q125.94-14.7 125.79-14.95 125.64-15.2 125.64-15.55L125.64-15.55Q125.64-16.5 126.42-17.07 127.19-17.65 128.16-17.93 129.14-18.2 129.79-18.2L129.79-18.2Q130.44-18.2 130.81-17.88 131.19-17.55 131.39-16.6L131.39-16.6Q131.59-15.95 131.69-15.18 131.79-14.4 131.79-13.4L131.79-13.4Q131.79-11.85 131.66-10.9 131.54-9.95 131.39-9.2L131.39-9.2Q131.24-8.55 131.16-7.93 131.09-7.3 131.09-6.45L131.09-6.45Q131.09-5.55 131.44-5.25 131.79-4.95 132.54-4.95L132.54-4.95Q135.39-4.95 137.19-6.93 138.99-8.9 138.99-11.75L138.99-11.75Q138.99-12.75 138.69-13.63 138.39-14.5 137.64-15.3L137.64-15.3Q137.24-15.8 136.99-16.13 136.74-16.45 136.74-16.95L136.74-16.95Q136.74-17.85 137.56-18.6 138.39-19.35 139.51-19.83 140.64-20.3 141.54-20.3L141.54-20.3Q142.89-20.3 143.29-19.05 143.69-17.8 143.69-16.2L143.69-16.2Q143.69-13.5 142.91-10.58 142.14-7.65 140.69-5.08 139.24-2.5 137.14-0.9 135.04 0.7 132.39 0.7L132.39 0.7Q129.69 0.7 128.69-0.85 127.69-2.4 127.84-4.6L127.84-4.6Q126.34-2.3 124.31-0.8 122.29 0.7 120.14 0.7ZM154.69 0.65L154.69 0.65Q150.89 0.65 148.76-1.53 146.64-3.7 146.64-7.6L146.64-7.6Q146.64-11.15 148.19-14.05 149.74-16.95 152.36-18.68 154.99-20.4 158.14-20.4L158.14-20.4Q161.14-20.4 162.94-18.93 164.74-17.45 164.74-15L164.74-15Q164.74-13.05 163.54-11.4 162.34-9.75 160.34-8.78 158.34-7.8 155.89-7.8L155.89-7.8Q152.89-7.8 150.99-9.15L150.99-9.15Q151.04-6.85 152.56-5.45 154.09-4.05 156.49-4.05L156.49-4.05Q157.94-4.05 159.46-4.58 160.99-5.1 162.09-6L162.09-6Q162.79-6.6 163.39-6.6L163.39-6.6Q163.89-6.6 164.21-6.28 164.54-5.95 164.54-5.45L164.54-5.45Q164.54-4.35 162.64-2.55L162.64-2.55Q159.29 0.65 154.69 0.65ZM155.44-11.1L155.44-11.1Q157.24-11.1 158.44-11.85 159.64-12.6 159.64-13.75L159.64-13.75Q159.64-14.7 158.84-15.23 158.04-15.75 156.64-15.75L156.64-15.75Q154.79-15.75 153.41-14.78 152.04-13.8 151.44-12.05L151.44-12.05Q152.14-11.6 153.24-11.35 154.34-11.1 155.44-11.1ZM171.59 0.55L171.59 0.55Q170.78 0.55 170.31 0.28 169.84 0 169.99-0.65L169.99-0.65Q170.53-2.8 170.91-5.03 171.28-7.25 171.28-9.3L171.28-9.3Q171.28-11.95 170.96-13.18 170.63-14.4 170.09-14.88 169.53-15.35 168.74-15.6L168.74-15.6Q168.38-15.75 168.11-16 167.84-16.25 167.84-16.7L167.84-16.7Q167.84-17.4 168.38-18.25 168.94-19.1 169.94-19.73 170.94-20.35 172.24-20.35L172.24-20.35Q173.94-20.35 174.61-19.18 175.28-18 175.28-16.1L175.28-16.1Q176.19-18.1 177.51-19.28 178.84-20.45 180.84-20.45L180.84-20.45Q182.19-20.45 183.09-19.85 183.99-19.25 183.99-17.9L183.99-17.9Q183.99-16.55 183.11-15.38 182.24-14.2 181.34-14.2L181.34-14.2Q181.19-14.2 180.99-14.25 180.78-14.3 180.63-14.5L180.63-14.5Q179.99-15.3 179.03-15.3L179.03-15.3Q177.59-15.3 176.49-13.4 175.38-11.5 175.28-8.15L175.28-8.15Q175.34-6.9 175.36-5.6 175.38-4.3 175.38-3.7L175.38-3.7Q175.38-1.85 174.36-0.65 173.34 0.55 171.59 0.55ZM190.23-24.85L190.23-24.85Q188.83-24.9 187.98-25.7 187.13-26.5 187.13-27.95L187.13-27.95Q187.18-29.5 188.18-30.48 189.18-31.45 190.73-31.4L190.73-31.4Q192.18-31.35 193.01-30.55 193.83-29.75 193.78-28.3L193.78-28.3Q193.73-26.8 192.78-25.83 191.83-24.85 190.23-24.85ZM190.28 0.5L190.28 0.5Q188.78 0.5 187.93-0.33 187.08-1.15 187.08-3.15L187.08-3.15Q187.08-4.3 187.31-5.4 187.53-6.5 187.83-7.55L187.83-7.55Q188.18-8.65 188.41-9.8 188.63-10.95 188.63-12.25L188.63-12.25Q188.63-13.15 188.38-13.98 188.13-14.8 187.28-15.2L187.28-15.2Q186.63-15.55 186.16-15.93 185.68-16.3 185.68-16.9L185.68-16.9Q185.68-17.6 186.33-18.4 186.98-19.2 188.06-19.78 189.13-20.35 190.28-20.35L190.28-20.35Q191.53-20.35 192.11-19.7 192.68-19.05 192.88-18.05 193.08-17.05 193.08-16L193.08-16Q193.08-14.4 192.83-12.88 192.58-11.35 192.33-10.05L192.33-10.05Q192.13-9.1 192.03-8.3 191.93-7.5 191.93-6.8L191.93-6.8Q191.93-5.55 192.53-4.93 193.13-4.3 194.23-3.75L194.23-3.75Q194.68-3.5 194.68-3L194.68-3Q194.68-2.6 194.28-1.75 193.88-0.9 192.91-0.2 191.93 0.5 190.28 0.5ZM201.23 0.55L201.23 0.55Q199.43 0.55 199.63-0.65L199.63-0.65Q200.18-2.8 200.56-5.03 200.93-7.25 200.93-9.3L200.93-9.3Q200.93-11.95 200.6-13.18 200.28-14.4 199.73-14.88 199.18-15.35 198.38-15.6L198.38-15.6Q198.03-15.75 197.75-16 197.48-16.25 197.48-16.7L197.48-16.7Q197.48-17.4 198.03-18.25 198.58-19.1 199.6-19.73 200.63-20.35 201.93-20.35L201.93-20.35Q203.63-20.35 204.28-19.18 204.93-18 204.93-16.1L204.93-16.1Q204.93-14.85 204.68-13.3 204.43-11.75 204.18-10.5L204.18-10.5 204.33-10.45Q205.33-13.1 206.75-15.38 208.18-17.65 210.08-19.05 211.98-20.45 214.48-20.45L214.48-20.45Q217.13-20.45 218.53-18.85 219.93-17.25 219.93-14.85L219.93-14.85Q219.93-13.85 219.71-12.95 219.48-12.05 219.23-11.2L219.23-11.2Q218.98-10.4 218.81-9.55 218.63-8.7 218.63-7.85L218.63-7.85Q218.63-5 221.33-4L221.33-4Q222.03-3.7 222.03-3.1L222.03-3.1Q222.03-2.65 221.73-1.8 221.43-0.95 220.63-0.23 219.83 0.5 218.28 0.5L218.28 0.5Q216.28 0.5 215.18-0.93 214.08-2.35 214.08-4.55L214.08-4.55Q214.08-5.8 214.35-7.08 214.63-8.35 214.93-9.45L214.93-9.45Q215.13-10.3 215.31-11.13 215.48-11.95 215.48-12.6L215.48-12.6Q215.48-14.9 213.08-14.9L213.08-14.9Q211.03-14.9 209.48-13.38 207.93-11.85 206.83-9.55 205.73-7.25 205.03-4.9L205.03-4.9 205.03-3.7Q205.03-1.85 204-0.65 202.98 0.55 201.23 0.55ZM231.73 13.8L231.73 13.8Q227.98 13.8 225.78 12.25 223.58 10.7 223.58 8.25L223.58 8.25Q223.58 6.45 224.7 5.05 225.83 3.65 227.68 3.65L227.68 3.65Q228.73 3.65 228.73 4.25L228.73 4.25Q228.73 4.6 228.6 5.05 228.48 5.5 228.48 5.95L228.48 5.95Q228.48 7.35 230.08 8.03 231.68 8.7 233.93 8.7L233.93 8.7Q235.33 8.7 236.78 8.4 238.23 8.1 239.2 7.48 240.18 6.85 240.18 5.8L240.18 5.8Q240.18 4.65 239.03 4.1 237.88 3.55 236.13 3.28 234.38 3 232.55 2.78 230.73 2.55 229.43 2.05L229.43 2.05Q227.78 1.5 226.98 0.7 226.18-0.1 226.18-1.35L226.18-1.35Q226.18-3.7 229.03-5.1L229.03-5.1Q227.38-5.95 226.55-7.5 225.73-9.05 225.73-10.95L225.73-10.95Q225.73-13.4 227-15.55 228.28-17.7 230.8-19.07 233.33-20.45 237.13-20.45L237.13-20.45Q238.83-20.45 240.58-20.13 242.33-19.8 243.5-18.93 244.68-18.05 244.68-16.4L244.68-16.4Q244.68-15.8 244.43-15.08 244.18-14.35 243.48-14.35L243.48-14.35Q243.18-14.35 242.68-14.48 242.18-14.6 241.78-14.7L241.78-14.7Q241.88-14.2 241.95-13.6 242.03-13 242.03-12.35L242.03-12.35Q242.03-9.4 240.03-7.03 238.03-4.65 234.18-4.2L234.18-4.2Q232.78-4.1 232.1-3.88 231.43-3.65 231.43-3.1L231.43-3.1Q231.43-2.6 232.03-2.38 232.63-2.15 233.58-2.05L233.58-2.05Q236.63-1.8 238.98-1.2 241.33-0.6 242.65 0.73 243.98 2.05 243.98 4.5L243.98 4.5Q243.98 7.35 242.3 9.43 240.63 11.5 237.83 12.65 235.03 13.8 231.73 13.8ZM233.63-8.55L233.63-8.55Q235.93-8.55 237.23-9.8 238.53-11.05 238.53-13.05L238.53-13.05Q238.53-13.6 238.43-14.18 238.33-14.75 238.23-15.15L238.23-15.15Q237.43-15.4 236.68-15.48 235.93-15.55 235.23-15.55L235.23-15.55Q232.58-15.55 231.08-14.55 229.58-13.55 229.58-11.8L229.58-11.8Q229.58-10.25 230.68-9.4 231.78-8.55 233.63-8.55ZM263.02 0.55L263.02 0.55Q262.32 0.55 261.82 0.23 261.32-0.1 261.42-0.65L261.42-0.65Q262.17-4.65 262.7-8.78 263.22-12.9 263.22-17.1L263.22-17.1Q263.22-20.8 262.97-23.8 262.72-26.8 261.37-29.55L261.37-29.55Q261.12-30.1 260.97-30.5 260.82-30.9 260.82-31.25L260.82-31.25Q260.82-32.2 261.95-33.1 263.07-34 264.32-34L264.32-34Q266.07-34 266.72-31.8 267.37-29.6 267.37-25.3L267.37-25.3Q267.37-20.15 266.77-16.32 266.17-12.5 265.72-10.5L265.72-10.5 265.92-10.4Q266.92-13.05 268.35-15.35 269.77-17.65 271.67-19.05 273.57-20.45 276.07-20.45L276.07-20.45Q278.72-20.45 280.1-18.85 281.47-17.25 281.47-14.9L281.47-14.9Q281.47-13.9 281.27-12.98 281.07-12.05 280.82-11.2L280.82-11.2Q280.57-10.4 280.37-9.58 280.17-8.75 280.17-7.9L280.17-7.9Q280.17-6.35 280.92-5.38 281.67-4.4 282.92-4L282.92-4Q283.27-3.9 283.45-3.73 283.62-3.55 283.62-3.1L283.62-3.1Q283.62-2.65 283.32-1.8 283.02-0.95 282.22-0.23 281.42 0.5 279.87 0.5L279.87 0.5Q277.87 0.5 276.77-0.93 275.67-2.35 275.67-4.6L275.67-4.6Q275.67-5.7 275.9-6.85 276.12-8 276.42-9.05L276.42-9.05Q276.67-10.1 276.87-11.03 277.07-11.95 277.07-12.6L277.07-12.6Q277.07-14.9 274.67-14.9L274.67-14.9Q272.67-14.9 271.15-13.48 269.62-12.05 268.55-9.88 267.47-7.7 266.77-5.4L266.77-5.4 266.77-3.7Q266.77-1.85 265.7-0.65 264.62 0.55 263.02 0.55ZM294.67 0.65L294.67 0.65Q290.87 0.65 288.75-1.53 286.62-3.7 286.62-7.6L286.62-7.6Q286.62-11.15 288.17-14.05 289.72-16.95 292.35-18.68 294.97-20.4 298.12-20.4L298.12-20.4Q301.12-20.4 302.92-18.93 304.72-17.45 304.72-15L304.72-15Q304.72-13.05 303.52-11.4 302.32-9.75 300.32-8.78 298.32-7.8 295.87-7.8L295.87-7.8Q292.87-7.8 290.97-9.15L290.97-9.15Q291.02-6.85 292.55-5.45 294.07-4.05 296.47-4.05L296.47-4.05Q297.92-4.05 299.45-4.58 300.97-5.1 302.07-6L302.07-6Q302.77-6.6 303.37-6.6L303.37-6.6Q303.87-6.6 304.2-6.28 304.52-5.95 304.52-5.45L304.52-5.45Q304.52-4.35 302.62-2.55L302.62-2.55Q299.27 0.65 294.67 0.65ZM295.42-11.1L295.42-11.1Q297.22-11.1 298.42-11.85 299.62-12.6 299.62-13.75L299.62-13.75Q299.62-14.7 298.82-15.23 298.02-15.75 296.62-15.75L296.62-15.75Q294.77-15.75 293.4-14.78 292.02-13.8 291.42-12.05L291.42-12.05Q292.12-11.6 293.22-11.35 294.32-11.1 295.42-11.1ZM314.77 0.65L314.77 0.65Q311.77 0.65 309.94-1.23 308.12-3.1 308.12-6.6L308.12-6.6Q308.12-9.1 309.09-11.58 310.07-14.05 311.92-16.05 313.77-18.05 316.37-19.25 318.97-20.45 322.22-20.45L322.22-20.45Q325.22-20.45 327.34-19.43 329.47-18.4 329.47-16.65L329.47-16.65Q329.47-16.2 329.37-15.48 329.27-14.75 329.12-14.3L329.12-14.3Q328.97-13.9 328.69-13.58 328.42-13.25 327.97-13.25L327.97-13.25Q327.77-13.25 327.22-13.4L327.22-13.4Q327.02-12.35 326.92-11.35 326.82-10.35 326.82-9.35L326.82-9.35Q326.82-7.45 327.39-5.98 327.97-4.5 329.67-4.15L329.67-4.15Q330.12-4.05 330.39-3.85 330.67-3.65 330.67-3L330.67-3Q330.67-2.45 330.39-1.6 330.12-0.75 329.34-0.08 328.57 0.6 327.12 0.6L327.12 0.6Q325.17 0.6 324.12-0.83 323.07-2.25 323.07-4.9L323.07-4.9Q321.72-2.45 319.64-0.9 317.57 0.65 314.77 0.65ZM316.37-4.55L316.37-4.55Q318.37-4.55 319.89-5.8 321.42-7.05 322.27-8.95L322.27-8.95Q322.82-10.15 323.12-11.58 323.42-13 323.52-14.4L323.52-14.4Q322.67-14.8 321.57-15.05 320.47-15.3 319.27-15.3L319.27-15.3Q316.22-15.3 314.24-13.5 312.27-11.7 312.27-9L312.27-9Q312.27-7 313.37-5.78 314.47-4.55 316.37-4.55ZM337.47 0.5L337.47 0.5Q336.02 0.5 335.32-0.3 334.62-1.1 334.62-3.1L334.62-3.1Q334.62-4.05 334.77-5.55 334.92-7.05 335.12-8.8L335.12-8.8Q335.42-10.95 335.64-13.3 335.87-15.65 335.87-17.8L335.87-17.8Q335.87-20.85 335.59-24.13 335.32-27.4 334.07-29.85L334.07-29.85Q333.62-30.85 333.62-31.3L333.62-31.3Q333.62-31.95 334.19-32.55 334.77-33.15 335.62-33.58 336.47-34 337.27-34L337.27-34Q338.57-34 339.22-32.83 339.87-31.65 340.07-29.63 340.27-27.6 340.27-25L340.27-25Q340.27-21.05 339.94-18.15 339.62-15.25 339.32-13.05L339.32-13.05Q339.12-11.6 338.94-10.3 338.77-9 338.77-7.95L338.77-7.95Q338.77-6.2 339.34-5.43 339.92-4.65 341.22-3.9L341.22-3.9Q341.57-3.7 341.74-3.53 341.92-3.35 341.92-3L341.92-3Q341.92-2.6 341.52-1.75 341.12-0.9 340.14-0.2 339.17 0.5 337.47 0.5ZM352.46 0.65L352.46 0.65Q349.41 0.65 348.09-1.38 346.76-3.4 346.76-6.6L346.76-6.6Q346.76-7.75 346.89-8.85 347.01-9.95 347.16-11.05L347.16-11.05Q347.31-12.15 347.46-13.2 347.61-14.25 347.71-15.2L347.71-15.2Q346.66-14.9 345.61-14.9L345.61-14.9Q344.51-14.9 344.51-15.8L344.51-15.8Q344.51-16.75 345.36-18.13 346.21-19.5 347.49-20.85 348.76-22.2 350.04-23.13 351.31-24.05 352.21-24.05L352.21-24.05Q353.31-24.05 353.31-22.15L353.31-22.15Q353.31-21.65 353.24-21.13 353.16-20.6 353.06-20.05L353.06-20.05Q354.01-20.25 354.99-20.4 355.96-20.55 356.86-20.55L356.86-20.55Q358.01-20.55 358.64-20.15 359.26-19.75 359.26-18.6L359.26-18.6Q359.26-17.4 358.69-16.2 358.11-15 357.41-15L357.41-15Q357.26-15 356.91-15.05 356.56-15.1 356.06-15.2L356.06-15.2Q355.41-15.35 354.41-15.5 353.41-15.65 352.01-15.65L352.01-15.65Q351.66-14.1 351.39-12.48 351.11-10.85 351.11-9.55L351.11-9.55Q351.11-6.65 352.56-5.6 354.01-4.55 356.76-4.55L356.76-4.55Q357.61-4.55 357.96-4.28 358.31-4 358.31-3.3L358.31-3.3Q358.31-1.65 356.61-0.5 354.91 0.65 352.46 0.65ZM363.46 0.55L363.46 0.55Q362.76 0.55 362.26 0.23 361.76-0.1 361.86-0.65L361.86-0.65Q362.61-4.65 363.14-8.78 363.66-12.9 363.66-17.1L363.66-17.1Q363.66-20.8 363.41-23.8 363.16-26.8 361.81-29.55L361.81-29.55Q361.56-30.1 361.41-30.5 361.26-30.9 361.26-31.25L361.26-31.25Q361.26-32.2 362.39-33.1 363.51-34 364.76-34L364.76-34Q366.51-34 367.16-31.8 367.81-29.6 367.81-25.3L367.81-25.3Q367.81-20.15 367.21-16.32 366.61-12.5 366.16-10.5L366.16-10.5 366.36-10.4Q367.36-13.05 368.79-15.35 370.21-17.65 372.11-19.05 374.01-20.45 376.51-20.45L376.51-20.45Q379.16-20.45 380.54-18.85 381.91-17.25 381.91-14.9L381.91-14.9Q381.91-13.9 381.71-12.98 381.51-12.05 381.26-11.2L381.26-11.2Q381.01-10.4 380.81-9.58 380.61-8.75 380.61-7.9L380.61-7.9Q380.61-6.35 381.36-5.38 382.11-4.4 383.36-4L383.36-4Q383.71-3.9 383.89-3.73 384.06-3.55 384.06-3.1L384.06-3.1Q384.06-2.65 383.76-1.8 383.46-0.95 382.66-0.23 381.86 0.5 380.31 0.5L380.31 0.5Q378.31 0.5 377.21-0.93 376.11-2.35 376.11-4.6L376.11-4.6Q376.11-5.7 376.34-6.85 376.56-8 376.86-9.05L376.86-9.05Q377.11-10.1 377.31-11.03 377.51-11.95 377.51-12.6L377.51-12.6Q377.51-14.9 375.11-14.9L375.11-14.9Q373.11-14.9 371.59-13.48 370.06-12.05 368.99-9.88 367.91-7.7 367.21-5.4L367.21-5.4 367.21-3.7Q367.21-1.85 366.14-0.65 365.06 0.55 363.46 0.55ZM388.31 7.75L388.31 7.75Q387.86 7.75 387.53 7.53 387.21 7.3 387.21 6.8L387.21 6.8Q387.21 6.1 388.31 5.25L388.31 5.25Q389.46 4.25 390.03 2.88 390.61 1.5 390.61 0.65L390.61 0.65Q390.61 0.3 390.43 0.08 390.26-0.15 389.56-0.5L389.56-0.5Q388.91-0.85 388.58-1.55 388.26-2.25 388.26-2.95L388.26-2.95Q388.26-4.15 389.16-5.13 390.06-6.1 391.61-6.1L391.61-6.1Q393.01-6.1 393.91-5.18 394.81-4.25 394.81-2.2L394.81-2.2Q394.81-0.5 394.18 1.2 393.56 2.9 392.66 4.3 391.76 5.7 390.81 6.55L390.81 6.55Q389.46 7.75 388.31 7.75ZM417.6 0.65L417.6 0.65Q414.15 0.65 412.08-1.23 410-3.1 410-6.75L410-6.75Q410-8.45 410.48-10.05 410.95-11.65 411.75-13.05L411.75-13.05Q410.95-12.55 410.55-12.55L410.55-12.55Q409.95-12.55 409.73-13.23 409.5-13.9 409.5-14.55L409.5-14.55Q409.5-15.7 409.98-16.38 410.45-17.05 410.9-17.4L410.9-17.4Q411.95-18.3 414.2-19.38 416.45-20.45 419.6-20.45L419.6-20.45Q423.9-20.45 426.28-18.05 428.65-15.65 428.65-11.35L428.65-11.35Q428.65-8 427.25-5.28 425.85-2.55 423.38-0.95 420.9 0.65 417.6 0.65ZM419.15-4.45L419.15-4.45Q421.65-4.45 423.38-6.03 425.1-7.6 425.1-10.2L425.1-10.2Q425.1-12.9 423.35-14.05 421.6-15.2 419.3-15.2L419.3-15.2Q418.25-15.2 417.4-15 416.55-14.8 415.8-14.5L415.8-14.5Q415.1-13.5 414.55-12.25 414-11 414-9.5L414-9.5Q414-7 415.5-5.73 417-4.45 419.15-4.45ZM435.3 0.55L435.3 0.55Q433.5 0.55 433.7-0.65L433.7-0.65Q434.25-2.8 434.63-5.03 435-7.25 435-9.3L435-9.3Q435-11.95 434.68-13.18 434.35-14.4 433.8-14.88 433.25-15.35 432.45-15.6L432.45-15.6Q432.1-15.75 431.83-16 431.55-16.25 431.55-16.7L431.55-16.7Q431.55-17.4 432.1-18.25 432.65-19.1 433.68-19.73 434.7-20.35 436-20.35L436-20.35Q437.7-20.35 438.35-19.18 439-18 439-16.1L439-16.1Q439-14.85 438.75-13.3 438.5-11.75 438.25-10.5L438.25-10.5 438.4-10.45Q439.4-13.1 440.83-15.38 442.25-17.65 444.15-19.05 446.05-20.45 448.55-20.45L448.55-20.45Q451.2-20.45 452.6-18.85 454-17.25 454-14.85L454-14.85Q454-13.85 453.78-12.95 453.55-12.05 453.3-11.2L453.3-11.2Q453.05-10.4 452.88-9.55 452.7-8.7 452.7-7.85L452.7-7.85Q452.7-5 455.4-4L455.4-4Q456.1-3.7 456.1-3.1L456.1-3.1Q456.1-2.65 455.8-1.8 455.5-0.95 454.7-0.23 453.9 0.5 452.35 0.5L452.35 0.5Q450.35 0.5 449.25-0.93 448.15-2.35 448.15-4.55L448.15-4.55Q448.15-5.8 448.43-7.08 448.7-8.35 449-9.45L449-9.45Q449.2-10.3 449.38-11.13 449.55-11.95 449.55-12.6L449.55-12.6Q449.55-14.9 447.15-14.9L447.15-14.9Q445.1-14.9 443.55-13.38 442-11.85 440.9-9.55 439.8-7.25 439.1-4.9L439.1-4.9 439.1-3.7Q439.1-1.85 438.08-0.65 437.05 0.55 435.3 0.55ZM467.15 0.65L467.15 0.65Q463.35 0.65 461.22-1.53 459.1-3.7 459.1-7.6L459.1-7.6Q459.1-11.15 460.65-14.05 462.2-16.95 464.82-18.68 467.45-20.4 470.6-20.4L470.6-20.4Q473.6-20.4 475.4-18.93 477.2-17.45 477.2-15L477.2-15Q477.2-13.05 476-11.4 474.8-9.75 472.8-8.78 470.8-7.8 468.35-7.8L468.35-7.8Q465.35-7.8 463.45-9.15L463.45-9.15Q463.5-6.85 465.02-5.45 466.55-4.05 468.95-4.05L468.95-4.05Q470.4-4.05 471.92-4.58 473.45-5.1 474.55-6L474.55-6Q475.25-6.6 475.85-6.6L475.85-6.6Q476.35-6.6 476.67-6.28 477-5.95 477-5.45L477-5.45Q477-4.35 475.1-2.55L475.1-2.55Q471.75 0.65 467.15 0.65ZM467.9-11.1L467.9-11.1Q469.7-11.1 470.9-11.85 472.1-12.6 472.1-13.75L472.1-13.75Q472.1-14.7 471.3-15.23 470.5-15.75 469.1-15.75L469.1-15.75Q467.25-15.75 465.87-14.78 464.5-13.8 463.9-12.05L463.9-12.05Q464.6-11.6 465.7-11.35 466.8-11.1 467.9-11.1ZM498.74-24.85L498.74-24.85Q497.34-24.9 496.49-25.7 495.64-26.5 495.64-27.95L495.64-27.95Q495.69-29.5 496.69-30.48 497.69-31.45 499.24-31.4L499.24-31.4Q500.69-31.35 501.52-30.55 502.34-29.75 502.29-28.3L502.29-28.3Q502.24-26.8 501.29-25.83 500.34-24.85 498.74-24.85ZM498.79 0.5L498.79 0.5Q497.29 0.5 496.44-0.33 495.59-1.15 495.59-3.15L495.59-3.15Q495.59-4.3 495.82-5.4 496.04-6.5 496.34-7.55L496.34-7.55Q496.69-8.65 496.92-9.8 497.14-10.95 497.14-12.25L497.14-12.25Q497.14-13.15 496.89-13.98 496.64-14.8 495.79-15.2L495.79-15.2Q495.14-15.55 494.67-15.93 494.19-16.3 494.19-16.9L494.19-16.9Q494.19-17.6 494.84-18.4 495.49-19.2 496.57-19.78 497.64-20.35 498.79-20.35L498.79-20.35Q500.04-20.35 500.62-19.7 501.19-19.05 501.39-18.05 501.59-17.05 501.59-16L501.59-16Q501.59-14.4 501.34-12.88 501.09-11.35 500.84-10.05L500.84-10.05Q500.64-9.1 500.54-8.3 500.44-7.5 500.44-6.8L500.44-6.8Q500.44-5.55 501.04-4.93 501.64-4.3 502.74-3.75L502.74-3.75Q503.19-3.5 503.19-3L503.19-3Q503.19-2.6 502.79-1.75 502.39-0.9 501.42-0.2 500.44 0.5 498.79 0.5ZM509.74 0.55L509.74 0.55Q507.94 0.55 508.14-0.65L508.14-0.65Q508.69-2.8 509.07-5.03 509.44-7.25 509.44-9.3L509.44-9.3Q509.44-11.95 509.12-13.18 508.79-14.4 508.24-14.88 507.69-15.35 506.89-15.6L506.89-15.6Q506.54-15.75 506.27-16 505.99-16.25 505.99-16.7L505.99-16.7Q505.99-17.4 506.54-18.25 507.09-19.1 508.12-19.73 509.14-20.35 510.44-20.35L510.44-20.35Q512.14-20.35 512.79-19.18 513.44-18 513.44-16.1L513.44-16.1Q513.44-14.85 513.19-13.3 512.94-11.75 512.69-10.5L512.69-10.5 512.84-10.45Q513.84-13.1 515.27-15.38 516.69-17.65 518.59-19.05 520.49-20.45 522.99-20.45L522.99-20.45Q525.64-20.45 527.04-18.85 528.44-17.25 528.44-14.85L528.44-14.85Q528.44-13.85 528.22-12.95 527.99-12.05 527.74-11.2L527.74-11.2Q527.49-10.4 527.32-9.55 527.14-8.7 527.14-7.85L527.14-7.85Q527.14-5 529.84-4L529.84-4Q530.54-3.7 530.54-3.1L530.54-3.1Q530.54-2.65 530.24-1.8 529.94-0.95 529.14-0.23 528.34 0.5 526.79 0.5L526.79 0.5Q524.79 0.5 523.69-0.93 522.59-2.35 522.59-4.55L522.59-4.55Q522.59-5.8 522.87-7.08 523.14-8.35 523.44-9.45L523.44-9.45Q523.64-10.3 523.82-11.13 523.99-11.95 523.99-12.6L523.99-12.6Q523.99-14.9 521.59-14.9L521.59-14.9Q519.54-14.9 517.99-13.38 516.44-11.85 515.34-9.55 514.24-7.25 513.54-4.9L513.54-4.9 513.54-3.7Q513.54-1.85 512.52-0.65 511.49 0.55 509.74 0.55ZM540.34 0.65L540.34 0.65Q538.49 0.65 536.89 0.1 535.29-0.45 534.29-1.45 533.29-2.45 533.29-3.85L533.29-3.85Q533.29-4.6 533.66-5.28 534.04-5.95 534.89-5.95L534.89-5.95Q535.34-5.95 535.84-5.7L535.84-5.7Q536.74-5.2 538.14-4.78 539.54-4.35 541.09-4.35L541.09-4.35Q542.84-4.35 544.19-4.85 545.54-5.35 545.54-6.25L545.54-6.25Q545.54-6.95 544.51-7.25 543.49-7.55 541.09-7.9L541.09-7.9Q539.44-8.2 537.89-8.6 536.34-9 535.34-9.98 534.34-10.95 534.34-12.85L534.34-12.85Q534.34-14.7 535.36-16.43 536.39-18.15 538.44-19.3 540.49-20.45 543.44-20.45L543.44-20.45Q544.99-20.45 546.44-20.1 547.89-19.75 548.84-19.05 549.79-18.35 549.79-17.3L549.79-17.3Q549.79-16.4 549.16-15.65 548.54-14.9 547.71-14.43 546.89-13.95 546.34-13.95L546.34-13.95Q545.94-13.95 545.39-14.5L545.39-14.5Q544.54-15.2 543.51-15.48 542.49-15.75 541.49-15.75L541.49-15.75Q539.99-15.75 539.06-15.3 538.14-14.85 538.14-14.15L538.14-14.15Q538.14-13.5 538.91-13.1 539.69-12.7 540.84-12.53 541.99-12.35 543.04-12.2L543.04-12.2Q545.94-11.8 547.64-10.83 549.34-9.85 549.34-7.4L549.34-7.4Q549.34-5.5 548.26-3.63 547.19-1.75 545.16-0.55 543.14 0.65 540.34 0.65ZM557.83-24.85L557.83-24.85Q556.43-24.9 555.58-25.7 554.73-26.5 554.73-27.95L554.73-27.95Q554.78-29.5 555.78-30.48 556.78-31.45 558.33-31.4L558.33-31.4Q559.78-31.35 560.61-30.55 561.43-29.75 561.38-28.3L561.38-28.3Q561.33-26.8 560.38-25.83 559.43-24.85 557.83-24.85ZM557.88 0.5L557.88 0.5Q556.38 0.5 555.53-0.33 554.68-1.15 554.68-3.15L554.68-3.15Q554.68-4.3 554.91-5.4 555.13-6.5 555.43-7.55L555.43-7.55Q555.78-8.65 556.01-9.8 556.23-10.95 556.23-12.25L556.23-12.25Q556.23-13.15 555.98-13.98 555.73-14.8 554.88-15.2L554.88-15.2Q554.23-15.55 553.76-15.93 553.28-16.3 553.28-16.9L553.28-16.9Q553.28-17.6 553.93-18.4 554.58-19.2 555.66-19.78 556.73-20.35 557.88-20.35L557.88-20.35Q559.13-20.35 559.71-19.7 560.28-19.05 560.48-18.05 560.68-17.05 560.68-16L560.68-16Q560.68-14.4 560.43-12.88 560.18-11.35 559.93-10.05L559.93-10.05Q559.73-9.1 559.63-8.3 559.53-7.5 559.53-6.8L559.53-6.8Q559.53-5.55 560.13-4.93 560.73-4.3 561.83-3.75L561.83-3.75Q562.28-3.5 562.28-3L562.28-3Q562.28-2.6 561.88-1.75 561.48-0.9 560.51-0.2 559.53 0.5 557.88 0.5ZM572.53 13.8L572.53 13.8Q568.78 13.8 566.58 12.25 564.38 10.7 564.38 8.25L564.38 8.25Q564.38 6.45 565.51 5.05 566.63 3.65 568.48 3.65L568.48 3.65Q569.53 3.65 569.53 4.25L569.53 4.25Q569.53 4.6 569.41 5.05 569.28 5.5 569.28 5.95L569.28 5.95Q569.28 7.35 570.88 8.03 572.48 8.7 574.73 8.7L574.73 8.7Q576.13 8.7 577.58 8.4 579.03 8.1 580.01 7.48 580.98 6.85 580.98 5.8L580.98 5.8Q580.98 4.65 579.83 4.1 578.68 3.55 576.93 3.28 575.18 3 573.36 2.78 571.53 2.55 570.23 2.05L570.23 2.05Q568.58 1.5 567.78 0.7 566.98-0.1 566.98-1.35L566.98-1.35Q566.98-3.7 569.83-5.1L569.83-5.1Q568.18-5.95 567.36-7.5 566.53-9.05 566.53-10.95L566.53-10.95Q566.53-13.4 567.81-15.55 569.08-17.7 571.61-19.07 574.13-20.45 577.93-20.45L577.93-20.45Q579.63-20.45 581.38-20.13 583.13-19.8 584.31-18.93 585.48-18.05 585.48-16.4L585.48-16.4Q585.48-15.8 585.23-15.08 584.98-14.35 584.28-14.35L584.28-14.35Q583.98-14.35 583.48-14.48 582.98-14.6 582.58-14.7L582.58-14.7Q582.68-14.2 582.76-13.6 582.83-13 582.83-12.35L582.83-12.35Q582.83-9.4 580.83-7.03 578.83-4.65 574.98-4.2L574.98-4.2Q573.58-4.1 572.91-3.88 572.23-3.65 572.23-3.1L572.23-3.1Q572.23-2.6 572.83-2.38 573.43-2.15 574.38-2.05L574.38-2.05Q577.43-1.8 579.78-1.2 582.13-0.6 583.46 0.73 584.78 2.05 584.78 4.5L584.78 4.5Q584.78 7.35 583.11 9.43 581.43 11.5 578.63 12.65 575.83 13.8 572.53 13.8ZM574.43-8.55L574.43-8.55Q576.73-8.55 578.03-9.8 579.33-11.05 579.33-13.05L579.33-13.05Q579.33-13.6 579.23-14.18 579.13-14.75 579.03-15.15L579.03-15.15Q578.23-15.4 577.48-15.48 576.73-15.55 576.03-15.55L576.03-15.55Q573.38-15.55 571.88-14.55 570.38-13.55 570.38-11.8L570.38-11.8Q570.38-10.25 571.48-9.4 572.58-8.55 574.43-8.55ZM590.08 0.55L590.08 0.55Q589.38 0.55 588.88 0.23 588.38-0.1 588.48-0.65L588.48-0.65Q589.23-4.65 589.75-8.78 590.28-12.9 590.28-17.1L590.28-17.1Q590.28-20.8 590.03-23.8 589.78-26.8 588.43-29.55L588.43-29.55Q588.18-30.1 588.03-30.5 587.88-30.9 587.88-31.25L587.88-31.25Q587.88-32.2 589-33.1 590.13-34 591.38-34L591.38-34Q593.13-34 593.78-31.8 594.43-29.6 594.43-25.3L594.43-25.3Q594.43-20.15 593.83-16.32 593.23-12.5 592.78-10.5L592.78-10.5 592.98-10.4Q593.98-13.05 595.4-15.35 596.83-17.65 598.73-19.05 600.63-20.45 603.13-20.45L603.13-20.45Q605.78-20.45 607.15-18.85 608.53-17.25 608.53-14.9L608.53-14.9Q608.53-13.9 608.33-12.98 608.13-12.05 607.88-11.2L607.88-11.2Q607.63-10.4 607.43-9.58 607.23-8.75 607.23-7.9L607.23-7.9Q607.23-6.35 607.98-5.38 608.73-4.4 609.98-4L609.98-4Q610.33-3.9 610.5-3.73 610.68-3.55 610.68-3.1L610.68-3.1Q610.68-2.65 610.38-1.8 610.08-0.95 609.28-0.23 608.48 0.5 606.93 0.5L606.93 0.5Q604.93 0.5 603.83-0.93 602.73-2.35 602.73-4.6L602.73-4.6Q602.73-5.7 602.95-6.85 603.18-8 603.48-9.05L603.48-9.05Q603.73-10.1 603.93-11.03 604.13-11.95 604.13-12.6L604.13-12.6Q604.13-14.9 601.73-14.9L601.73-14.9Q599.73-14.9 598.2-13.48 596.68-12.05 595.6-9.88 594.53-7.7 593.83-5.4L593.83-5.4 593.83-3.7Q593.83-1.85 592.75-0.65 591.68 0.55 590.08 0.55ZM621.18 0.65L621.18 0.65Q618.13 0.65 616.8-1.38 615.48-3.4 615.48-6.6L615.48-6.6Q615.48-7.75 615.6-8.85 615.73-9.95 615.88-11.05L615.88-11.05Q616.03-12.15 616.18-13.2 616.33-14.25 616.43-15.2L616.43-15.2Q615.38-14.9 614.33-14.9L614.33-14.9Q613.23-14.9 613.23-15.8L613.23-15.8Q613.23-16.75 614.08-18.13 614.93-19.5 616.2-20.85 617.48-22.2 618.75-23.13 620.03-24.05 620.93-24.05L620.93-24.05Q622.03-24.05 622.03-22.15L622.03-22.15Q622.03-21.65 621.95-21.13 621.88-20.6 621.78-20.05L621.78-20.05Q622.73-20.25 623.7-20.4 624.68-20.55 625.58-20.55L625.58-20.55Q626.73-20.55 627.35-20.15 627.98-19.75 627.98-18.6L627.98-18.6Q627.98-17.4 627.4-16.2 626.83-15 626.13-15L626.13-15Q625.98-15 625.63-15.05 625.28-15.1 624.78-15.2L624.78-15.2Q624.13-15.35 623.13-15.5 622.13-15.65 620.73-15.65L620.73-15.65Q620.38-14.1 620.1-12.48 619.83-10.85 619.83-9.55L619.83-9.55Q619.83-6.65 621.28-5.6 622.73-4.55 625.48-4.55L625.48-4.55Q626.33-4.55 626.68-4.28 627.03-4 627.03-3.3L627.03-3.3Q627.03-1.65 625.33-0.5 623.63 0.65 621.18 0.65ZM650.32 0.65L650.32 0.65Q647.32 0.65 645.5-1.23 643.67-3.1 643.67-6.6L643.67-6.6Q643.67-9.1 644.65-11.58 645.62-14.05 647.47-16.05 649.32-18.05 651.92-19.25 654.52-20.45 657.77-20.45L657.77-20.45Q660.77-20.45 662.9-19.43 665.02-18.4 665.02-16.65L665.02-16.65Q665.02-16.2 664.92-15.48 664.82-14.75 664.67-14.3L664.67-14.3Q664.52-13.9 664.25-13.58 663.97-13.25 663.52-13.25L663.52-13.25Q663.32-13.25 662.77-13.4L662.77-13.4Q662.57-12.35 662.47-11.35 662.37-10.35 662.37-9.35L662.37-9.35Q662.37-7.45 662.95-5.98 663.52-4.5 665.22-4.15L665.22-4.15Q665.67-4.05 665.95-3.85 666.22-3.65 666.22-3L666.22-3Q666.22-2.45 665.95-1.6 665.67-0.75 664.9-0.08 664.12 0.6 662.67 0.6L662.67 0.6Q660.72 0.6 659.67-0.83 658.62-2.25 658.62-4.9L658.62-4.9Q657.27-2.45 655.2-0.9 653.12 0.65 650.32 0.65ZM651.92-4.55L651.92-4.55Q653.92-4.55 655.45-5.8 656.97-7.05 657.82-8.95L657.82-8.95Q658.37-10.15 658.67-11.58 658.97-13 659.07-14.4L659.07-14.4Q658.22-14.8 657.12-15.05 656.02-15.3 654.82-15.3L654.82-15.3Q651.77-15.3 649.8-13.5 647.82-11.7 647.82-9L647.82-9Q647.82-7 648.92-5.78 650.02-4.55 651.92-4.55ZM676.62 0.65L676.62 0.65Q673.57 0.65 672.24-1.38 670.92-3.4 670.92-6.6L670.92-6.6Q670.92-7.75 671.04-8.85 671.17-9.95 671.32-11.05L671.32-11.05Q671.47-12.15 671.62-13.2 671.77-14.25 671.87-15.2L671.87-15.2Q670.82-14.9 669.77-14.9L669.77-14.9Q668.67-14.9 668.67-15.8L668.67-15.8Q668.67-16.75 669.52-18.13 670.37-19.5 671.64-20.85 672.92-22.2 674.19-23.13 675.47-24.05 676.37-24.05L676.37-24.05Q677.47-24.05 677.47-22.15L677.47-22.15Q677.47-21.65 677.39-21.13 677.32-20.6 677.22-20.05L677.22-20.05Q678.17-20.25 679.14-20.4 680.12-20.55 681.02-20.55L681.02-20.55Q682.17-20.55 682.79-20.15 683.42-19.75 683.42-18.6L683.42-18.6Q683.42-17.4 682.84-16.2 682.27-15 681.57-15L681.57-15Q681.42-15 681.07-15.05 680.72-15.1 680.22-15.2L680.22-15.2Q679.57-15.35 678.57-15.5 677.57-15.65 676.17-15.65L676.17-15.65Q675.82-14.1 675.54-12.48 675.27-10.85 675.27-9.55L675.27-9.55Q675.27-6.65 676.72-5.6 678.17-4.55 680.92-4.55L680.92-4.55Q681.77-4.55 682.12-4.28 682.47-4 682.47-3.3L682.47-3.3Q682.47-1.65 680.77-0.5 679.07 0.65 676.62 0.65ZM705.76 0.65L705.76 0.65Q702.76 0.65 700.94-1.23 699.11-3.1 699.11-6.6L699.11-6.6Q699.11-9.1 700.09-11.58 701.06-14.05 702.91-16.05 704.76-18.05 707.36-19.25 709.96-20.45 713.21-20.45L713.21-20.45Q716.21-20.45 718.34-19.43 720.46-18.4 720.46-16.65L720.46-16.65Q720.46-16.2 720.36-15.48 720.26-14.75 720.11-14.3L720.11-14.3Q719.96-13.9 719.69-13.58 719.41-13.25 718.96-13.25L718.96-13.25Q718.76-13.25 718.21-13.4L718.21-13.4Q718.01-12.35 717.91-11.35 717.81-10.35 717.81-9.35L717.81-9.35Q717.81-7.45 718.39-5.98 718.96-4.5 720.66-4.15L720.66-4.15Q721.11-4.05 721.39-3.85 721.66-3.65 721.66-3L721.66-3Q721.66-2.45 721.39-1.6 721.11-0.75 720.34-0.08 719.56 0.6 718.11 0.6L718.11 0.6Q716.16 0.6 715.11-0.83 714.06-2.25 714.06-4.9L714.06-4.9Q712.71-2.45 710.64-0.9 708.56 0.65 705.76 0.65ZM707.36-4.55L707.36-4.55Q709.36-4.55 710.89-5.8 712.41-7.05 713.26-8.95L713.26-8.95Q713.81-10.15 714.11-11.58 714.41-13 714.51-14.4L714.51-14.4Q713.66-14.8 712.56-15.05 711.46-15.3 710.26-15.3L710.26-15.3Q707.21-15.3 705.24-13.5 703.26-11.7 703.26-9L703.26-9Q703.26-7 704.36-5.78 705.46-4.55 707.36-4.55ZM745.56 0.65L745.56 0.65Q742.51 0.65 741.18-1.38 739.86-3.4 739.86-6.6L739.86-6.6Q739.86-7.75 739.98-8.85 740.11-9.95 740.26-11.05L740.26-11.05Q740.41-12.15 740.56-13.2 740.71-14.25 740.81-15.2L740.81-15.2Q739.76-14.9 738.71-14.9L738.71-14.9Q737.61-14.9 737.61-15.8L737.61-15.8Q737.61-16.75 738.46-18.13 739.31-19.5 740.58-20.85 741.86-22.2 743.13-23.13 744.41-24.05 745.31-24.05L745.31-24.05Q746.41-24.05 746.41-22.15L746.41-22.15Q746.41-21.65 746.33-21.13 746.26-20.6 746.16-20.05L746.16-20.05Q747.11-20.25 748.08-20.4 749.06-20.55 749.96-20.55L749.96-20.55Q751.11-20.55 751.73-20.15 752.36-19.75 752.36-18.6L752.36-18.6Q752.36-17.4 751.78-16.2 751.21-15 750.51-15L750.51-15Q750.36-15 750.01-15.05 749.66-15.1 749.16-15.2L749.16-15.2Q748.51-15.35 747.51-15.5 746.51-15.65 745.11-15.65L745.11-15.65Q744.76-14.1 744.48-12.48 744.21-10.85 744.21-9.55L744.21-9.55Q744.21-6.65 745.66-5.6 747.11-4.55 749.86-4.55L749.86-4.55Q750.71-4.55 751.06-4.28 751.41-4 751.41-3.3L751.41-3.3Q751.41-1.65 749.71-0.5 748.01 0.65 745.56 0.65ZM759.21-24.85L759.21-24.85Q757.81-24.9 756.96-25.7 756.11-26.5 756.11-27.95L756.11-27.95Q756.16-29.5 757.16-30.48 758.16-31.45 759.71-31.4L759.71-31.4Q761.16-31.35 761.98-30.55 762.81-29.75 762.76-28.3L762.76-28.3Q762.71-26.8 761.76-25.83 760.81-24.85 759.21-24.85ZM759.26 0.5L759.26 0.5Q757.76 0.5 756.91-0.33 756.06-1.15 756.06-3.15L756.06-3.15Q756.06-4.3 756.28-5.4 756.51-6.5 756.81-7.55L756.81-7.55Q757.16-8.65 757.38-9.8 757.61-10.95 757.61-12.25L757.61-12.25Q757.61-13.15 757.36-13.98 757.11-14.8 756.26-15.2L756.26-15.2Q755.61-15.55 755.13-15.93 754.66-16.3 754.66-16.9L754.66-16.9Q754.66-17.6 755.31-18.4 755.96-19.2 757.03-19.78 758.11-20.35 759.26-20.35L759.26-20.35Q760.51-20.35 761.08-19.7 761.66-19.05 761.86-18.05 762.06-17.05 762.06-16L762.06-16Q762.06-14.4 761.81-12.88 761.56-11.35 761.31-10.05L761.31-10.05Q761.11-9.1 761.01-8.3 760.91-7.5 760.91-6.8L760.91-6.8Q760.91-5.55 761.51-4.93 762.11-4.3 763.21-3.75L763.21-3.75Q763.66-3.5 763.66-3L763.66-3Q763.66-2.6 763.26-1.75 762.86-0.9 761.88-0.2 760.91 0.5 759.26 0.5ZM770.2 0.55L770.2 0.55Q768.4 0.55 768.6-0.65L768.6-0.65Q769.15-2.8 769.53-5.03 769.9-7.25 769.9-9.3L769.9-9.3Q769.9-11.95 769.58-13.18 769.25-14.4 768.7-14.88 768.15-15.35 767.35-15.6L767.35-15.6Q767-15.75 766.73-16 766.45-16.25 766.45-16.7L766.45-16.7Q766.45-17.4 767-18.25 767.55-19.1 768.58-19.73 769.6-20.35 770.9-20.35L770.9-20.35Q772.6-20.35 773.25-19.18 773.9-18 773.9-16.1L773.9-16.1Q773.9-14.85 773.65-13.3 773.4-11.75 773.15-10.5L773.15-10.5 773.25-10.45Q774.05-13.1 775.23-15.35 776.4-17.6 778.08-19 779.75-20.4 781.95-20.4L781.95-20.4Q784.2-20.4 785.5-18.88 786.8-17.35 786.8-14.4L786.8-14.4 786.8-13.3Q788.25-16.35 790.33-18.4 792.4-20.45 795.35-20.45L795.35-20.45Q797.75-20.45 799.1-18.85 800.45-17.25 800.45-14.85L800.45-14.85Q800.45-13.9 800.25-13.03 800.05-12.15 799.8-11.3L799.8-11.3Q799.6-10.5 799.4-9.65 799.2-8.8 799.2-7.95L799.2-7.95Q799.2-4.95 801.75-4.05L801.75-4.05Q802.1-3.9 802.3-3.73 802.5-3.55 802.5-3.1L802.5-3.1Q802.5-2.65 802.23-1.8 801.95-0.95 801.15-0.23 800.35 0.5 798.85 0.5L798.85 0.5Q796.9 0.5 795.85-0.93 794.8-2.35 794.8-4.55L794.8-4.55Q794.8-5.65 795-6.85 795.2-8.05 795.5-9.15L795.5-9.15Q795.75-10.15 795.93-11.05 796.1-11.95 796.1-12.6L796.1-12.6Q796.1-13.8 795.53-14.35 794.95-14.9 794-14.9L794-14.9Q792.4-14.9 791.13-13.9 789.85-12.9 788.88-11.3 787.9-9.7 787.2-7.8L787.2-7.8Q787.25-7.35 787.28-6.63 787.3-5.9 787.3-5.35L787.3-5.35Q787.3-4.4 787.18-3.35 787.05-2.3 786.7-1.6L786.7-1.6Q786.3-0.65 785.53-0.05 784.75 0.55 783.45 0.55L783.45 0.55Q782.9 0.55 782.4 0.33 781.9 0.1 781.9-0.4L781.9-0.4Q781.9-0.6 782.2-2.18 782.5-3.75 782.8-6.05 783.1-8.35 783.1-10.55L783.1-10.55Q783.1-12.95 782.6-13.88 782.1-14.8 781.1-14.8L781.1-14.8Q779.85-14.8 778.73-13.75 777.6-12.7 776.68-11.05 775.75-9.4 775.08-7.6 774.4-5.8 774-4.25L774-4.25 774-3.7Q774-1.85 772.98-0.65 771.95 0.55 770.2 0.55ZM813.55 0.65L813.55 0.65Q809.75 0.65 807.63-1.53 805.5-3.7 805.5-7.6L805.5-7.6Q805.5-11.15 807.05-14.05 808.6-16.95 811.23-18.68 813.85-20.4 817-20.4L817-20.4Q820-20.4 821.8-18.93 823.6-17.45 823.6-15L823.6-15Q823.6-13.05 822.4-11.4 821.2-9.75 819.2-8.78 817.2-7.8 814.75-7.8L814.75-7.8Q811.75-7.8 809.85-9.15L809.85-9.15Q809.9-6.85 811.43-5.45 812.95-4.05 815.35-4.05L815.35-4.05Q816.8-4.05 818.33-4.58 819.85-5.1 820.95-6L820.95-6Q821.65-6.6 822.25-6.6L822.25-6.6Q822.75-6.6 823.08-6.28 823.4-5.95 823.4-5.45L823.4-5.45Q823.4-4.35 821.5-2.55L821.5-2.55Q818.15 0.65 813.55 0.65ZM814.3-11.1L814.3-11.1Q816.1-11.1 817.3-11.85 818.5-12.6 818.5-13.75L818.5-13.75Q818.5-14.7 817.7-15.23 816.9-15.75 815.5-15.75L815.5-15.75Q813.65-15.75 812.28-14.78 810.9-13.8 810.3-12.05L810.3-12.05Q811-11.6 812.1-11.35 813.2-11.1 814.3-11.1Z" opacity="1" transform="matrix(1,0,0,1,0,0)" fill="#000000" class="slogan-text-1" data-fill-palette-color="secondary" id="text-1"></path></svg></g></svg></g></svg></g></svg></g></svg></g></svg></g></svg></g><g mask="url(#94aa796d-021c-47d9-aa63-1ad858e88c2e)"><g transform="matrix(3.5847429131153037, 0, 0, 3.5847429131153037, 38.28170518982981, 1)"><svg xmlns="http://www.w3.org/2000/svg" xmlns:xlink="http://www.w3.org/1999/xlink" version="1.1" x="0" y="0" viewBox="5.51185935309578 15.8 88.97614064690421 68.40100000000002" enable-background="new 0 0 100 100" xml:space="preserve" height="68.40100000000002" width="88.97614064690421" class="icon-none" data-fill-palette-color="accent" id="none"><path fill-rule="evenodd" clip-rule="evenodd" d="M41.938 20.25c2.933 2.899 4.4 6.434 4.4 10.6 0 4.233-1.467 7.817-4.4 10.75-2.934 2.934-6.5 4.4-10.7 4.4-4.233 0-7.816-1.467-10.75-4.4-2.967-2.967-4.45-6.55-4.45-10.75 0-4.133 1.483-7.666 4.45-10.6 2.967-2.967 6.55-4.45 10.75-4.45C35.404 15.8 38.971 17.283 41.938 20.25zM31.237 17.8c-3.633 0-6.733 1.283-9.3 3.85-2.6 2.601-3.9 5.667-3.9 9.2 0 3.634 1.3 6.75 3.9 9.351 2.533 2.533 5.633 3.8 9.3 3.8 3.633 0 6.717-1.267 9.25-3.8 2.567-2.567 3.85-5.684 3.85-9.351 0-3.566-1.283-6.633-3.85-9.2C37.987 19.083 34.904 17.8 31.237 17.8zM19.337 63.45c0.167 0.233 0.233 0.483 0.2 0.75l-1.5 18h26.85l-1.4-13.4c-1.933-1.633-3.267-2.967-4-4-0.167-0.233-0.217-0.483-0.15-0.75 0.033-0.3 0.167-0.517 0.4-0.65 0.233-0.166 0.483-0.216 0.75-0.149 0.267 0.033 0.483 0.167 0.65 0.399 0.6 0.9 1.917 2.2 3.95 3.9l2.85 2.15c3.033 2.3 5.017 3.449 5.95 3.449 0.867-0.199 2.233-0.982 4.1-2.35 1.767-1.3 4.633-4.116 8.6-8.45 3.1-4.267 4.717-6.8 4.85-7.6 0.133-1.3-0.3-2.2-1.3-2.7-1.4-0.6-2.966-0.9-4.7-0.9-0.9 0-1.7 0.101-2.4 0.301-0.567 0.166-0.85 0.3-0.85 0.399 0 0.7 0.517 3.983 1.55 9.851 0.067 0.333-0.033 0.633-0.3 0.899l-0.9 0.851c-3.067 2.967-5.267 4.449-6.6 4.449-0.9 0-2.1-0.85-3.6-2.55-0.667-0.733-1.933-2.35-3.8-4.85-3.333-4.5-6.133-7.533-8.4-9.101-1.167-0.399-2.333-0.716-3.5-0.949-2-0.367-3.783-0.551-5.35-0.551-4.2 0-7.15 0.4-8.85 1.2-1.667 0.767-3.684 2.851-6.05 6.25-2.367 3.533-4.066 7.233-5.1 11.101-0.867 2.833-2.034 7.416-3.5 13.75h3.9c0.6-1.2 0.983-2.017 1.15-2.45l4.25-10.4c0.033-0.633 0.2-2.416 0.5-5.35 0.033-0.267 0.15-0.483 0.35-0.65 0.2-0.2 0.433-0.283 0.7-0.25C18.904 63.133 19.137 63.25 19.337 63.45zM21.587 49.3c1.967-0.934 5.2-1.4 9.7-1.4 1.633 0 3.55 0.184 5.75 0.551 1.733 0.433 3.033 0.8 3.9 1.1l0.25 0.15c2.467 1.699 5.467 4.899 9 9.6 1.7 2.4 2.917 3.967 3.65 4.7 1.033 1.2 1.75 1.833 2.15 1.899 0.733 0 2.45-1.267 5.15-3.8l0.55-0.6c-1-5.7-1.5-8.917-1.5-9.65 0-1.166 0.783-1.933 2.35-2.3 0.867-0.267 1.833-0.4 2.9-0.4 2.066 0 3.9 0.367 5.5 1.101 1.933 0.8 2.75 2.366 2.45 4.7-0.066 1.066-1.8 3.949-5.2 8.649l-0.1 0.101c-4.033 4.366-7.017 7.267-8.95 8.699-2 1.5-3.583 2.4-4.75 2.7-1.267 0.367-3.833-0.899-7.7-3.8l-1-0.8 1.25 12.6c0.033 0.267-0.05 0.533-0.25 0.8-0.2 0.2-0.45 0.301-0.75 0.301h-29c-0.267 0-0.5-0.101-0.7-0.301-0.233-0.233-0.316-0.483-0.25-0.75l0.45-6.949-3.25 7.449c-0.167 0.367-0.467 0.551-0.9 0.551h-5.8c-0.267 0-0.517-0.117-0.75-0.351-0.2-0.233-0.267-0.517-0.2-0.85 1.633-7 2.9-12.033 3.8-15.101 1.167-4.133 2.967-8.017 5.4-11.649C17.337 52.517 19.621 50.2 21.587 49.3zM90.887 24.899c-0.267-0.333-0.55-0.583-0.85-0.75l-0.95-0.449c-1.267-0.334-2.467-0.334-3.6 0-0.7 0.3-1.3 0.717-1.8 1.25-1.033 1-1.55 2.217-1.55 3.649 0 0.8 0.184 1.567 0.55 2.3L82.737 31c0.133 0.399 0.434 0.833 0.9 1.3 1.067 1 2.284 1.5 3.65 1.5 1 0 1.917-0.233 2.75-0.7 0.367-0.2 0.633-0.433 0.8-0.7l0.15-0.1c1-1 1.5-2.233 1.5-3.7 0-1.433-0.5-2.633-1.5-3.6L90.887 24.899zM91.038 22.45c0.5 0.267 0.95 0.633 1.35 1.1 1.4 1.367 2.1 3.05 2.1 5.05 0 2.033-0.7 3.717-2.1 5.05-0.333 0.5-0.783 0.9-1.35 1.2-1.1 0.634-2.35 0.95-3.75 0.95-1.967 0-3.65-0.7-5.05-2.1-0.267-0.233-0.566-0.584-0.9-1.051l-3.4 1.5c0.133 0.534 0.2 1.184 0.2 1.95 0 2.434-0.85 4.5-2.55 6.2-1.767 1.767-3.867 2.65-6.3 2.65-2.4 0-4.483-0.884-6.25-2.65-1.8-1.733-2.7-3.8-2.7-6.2 0-1.767 0.483-3.333 1.45-4.7l0.7-1-5.1-4.5c-1.033 0.768-2.216 1.15-3.55 1.15-1.467 0-2.733-0.483-3.8-1.45l-0.2-0.149c-1.1-1.101-1.65-2.45-1.65-4.051 0-1.433 0.55-2.732 1.65-3.899 1.133-1.134 2.467-1.7 4-1.7 1.567 0 2.917 0.566 4.05 1.7 1.067 1.133 1.6 2.434 1.6 3.899 0 1.134-0.267 2.134-0.8 3l5.25 4.65c1.3-1.033 2.833-1.633 4.6-1.8l0.75-0.05c2.433 0 4.533 0.883 6.3 2.649 0.8 0.867 1.367 1.667 1.7 2.4l3.2-1.4c-0.233-0.8-0.35-1.55-0.35-2.25 0-2 0.717-3.683 2.15-5.05 0.7-0.8 1.566-1.383 2.6-1.75 1.633-0.5 3.25-0.5 4.85 0l0.15 0.05C90.221 21.983 90.604 22.184 91.038 22.45zM87.837 27.35c0.3 0 0.55 0.101 0.75 0.3 0.167 0.2 0.25 0.434 0.25 0.7s-0.083 0.5-0.25 0.7c-0.2 0.2-0.45 0.3-0.75 0.3h-0.7c-0.267 0-0.5-0.1-0.7-0.3-0.2-0.2-0.3-0.434-0.3-0.7s0.1-0.5 0.3-0.7c0.2-0.199 0.433-0.3 0.7-0.3H87.837zM75.538 17.649c0.633 0.634 0.95 1.4 0.95 2.301 0 0.866-0.316 1.6-0.95 2.199-0.567 0.634-1.3 0.95-2.2 0.95s-1.65-0.333-2.25-1c-0.667-0.566-1-1.283-1-2.149 0-0.834 0.35-1.601 1.05-2.301 0.567-0.566 1.3-0.85 2.2-0.85C74.171 16.8 74.904 17.083 75.538 17.649zM72.438 20.649l0.15 0.101c0.2 0.233 0.45 0.35 0.75 0.35s0.567-0.116 0.8-0.35c0.233-0.267 0.35-0.533 0.35-0.8 0-0.334-0.117-0.617-0.35-0.851-0.2-0.2-0.466-0.3-0.8-0.3s-0.6 0.1-0.8 0.3c-0.3 0.3-0.45 0.584-0.45 0.851S72.204 20.45 72.438 20.649zM68.737 29.25c-1.566 0.133-2.933 0.733-4.1 1.8l-0.2 0.25c-0.4 0.367-0.717 0.75-0.95 1.15l-0.05 0.1c-0.733 0.967-1.1 2.15-1.1 3.55 0 1.867 0.7 3.467 2.1 4.8 1.367 1.367 2.983 2.051 4.85 2.051 1.9 0 3.517-0.684 4.85-2.051 1.333-1.333 2-2.933 2-4.8 0-0.8-0.1-1.533-0.3-2.2v-0.05c-0.367-0.967-0.933-1.833-1.7-2.6-1.367-1.367-2.983-2.05-4.85-2.05L68.737 29.25zM68.987 37.05c-0.267 0-0.5-0.1-0.7-0.3-0.2-0.2-0.3-0.434-0.3-0.7s0.1-0.5 0.3-0.7c0.2-0.2 0.433-0.3 0.7-0.3h0.65c0.667 0 1 0.333 1 1s-0.333 1-1 1H68.987zM56.438 18.899c-0.7-0.732-1.567-1.1-2.6-1.1-1 0-1.85 0.367-2.55 1.1-0.733 0.7-1.1 1.534-1.1 2.5 0 0.934 0.316 1.768 0.95 2.5l0.2 0.15c0.633 0.667 1.467 1 2.5 1 1 0 1.883-0.333 2.65-1l0.15-0.15c0.567-0.699 0.85-1.533 0.85-2.5C57.487 20.399 57.137 19.566 56.438 18.899zM53.538 20.3h0.7c0.667 0 1 0.333 1 1 0 0.267-0.083 0.5-0.25 0.7-0.2 0.2-0.45 0.3-0.75 0.3h-0.7c-0.267 0-0.5-0.1-0.7-0.3s-0.3-0.434-0.3-0.7 0.1-0.5 0.3-0.7S53.271 20.3 53.538 20.3zM55.137 31.35h0.7c0.667 0 1 0.334 1 1 0 0.667-0.333 1-1 1h-0.7c-0.267 0-0.5-0.1-0.7-0.3-0.2-0.2-0.3-0.434-0.3-0.7s0.1-0.5 0.3-0.7C54.637 31.45 54.871 31.35 55.137 31.35zM81.788 45.35c-0.567 0-1.017 0.167-1.35 0.5-0.367 0.367-0.55 0.8-0.55 1.3s0.184 0.934 0.55 1.301c0.367 0.366 0.816 0.55 1.35 0.55 0.533 0 0.966-0.184 1.3-0.55 0.367-0.334 0.55-0.767 0.55-1.301 0-0.533-0.183-0.982-0.55-1.35C82.788 45.5 82.354 45.35 81.788 45.35zM84.487 44.35c0.767 0.8 1.15 1.733 1.15 2.8 0 1.101-0.383 2.018-1.15 2.75-0.8 0.733-1.7 1.101-2.7 1.101-1.133 0-2.05-0.384-2.75-1.15-0.767-0.7-1.15-1.6-1.15-2.7 0-1 0.383-1.916 1.15-2.75 0.767-0.699 1.683-1.05 2.75-1.05C82.821 43.35 83.721 43.684 84.487 44.35z" fill="#000000" data-fill-palette-color="accent"></path></svg></g></g></svg></g><defs></defs></svg><rect width="395.52" height="247.2" fill="none" stroke="none" visibility="hidden"></rect></g></svg></g></svg>